<?xml version="1.0" encoding="utf-8"?>
<!-- Generator: Adobe Illustrator 23.0.3, SVG Export Plug-In . SVG Version: 6.00 Build 0)  -->
<svg version="1.1" id="Layer_1" xmlns="http://www.w3.org/2000/svg" xmlns:xlink="http://www.w3.org/1999/xlink" x="0px" y="0px"
	 viewBox="0 0 396 98.8" style="enable-background:new 0 0 396 98.8;" xml:space="preserve">
<style type="text/css">
	.st0{clip-path:url(#SVGID_2_);fill:#FFFFFF;}
	.st1{clip-path:url(#SVGID_4_);fill:#FFFFFF;}
	.st2{clip-path:url(#SVGID_6_);fill:#FFFFFF;}
	.st3{clip-path:url(#SVGID_8_);fill:#FFFFFF;}
	.st4{clip-path:url(#SVGID_10_);fill:#FFFFFF;}
	.st5{clip-path:url(#SVGID_12_);fill:#FFFFFF;}
	.st6{clip-path:url(#SVGID_14_);fill:#FFFFFF;}
	.st7{clip-path:url(#SVGID_16_);fill:#FFFFFF;}
	.st8{clip-path:url(#SVGID_18_);fill:#FFFFFF;}
	.st9{clip-path:url(#SVGID_20_);fill:#FFFFFF;}
	.st10{clip-path:url(#SVGID_22_);fill:#FFFFFF;}
	.st11{clip-path:url(#SVGID_24_);fill:#FFFFFF;}
	.st12{clip-path:url(#SVGID_26_);fill:#FFFFFF;}
	.st13{clip-path:url(#SVGID_28_);fill:#FFFFFF;}
	.st14{clip-path:url(#SVGID_30_);fill:#FFFFFF;}
	.st15{clip-path:url(#SVGID_32_);fill:#FFFFFF;}
	.st16{clip-path:url(#SVGID_34_);fill:#FFFFFF;}
	.st17{clip-path:url(#SVGID_36_);fill:#FFFFFF;}
	.st18{clip-path:url(#SVGID_38_);fill:#FFFFFF;}
	.st19{clip-path:url(#SVGID_40_);fill:#FFFFFF;}
	.st20{clip-path:url(#SVGID_42_);fill:#FFFFFF;}
	.st21{clip-path:url(#SVGID_44_);fill:#FFFFFF;}
	.st22{clip-path:url(#SVGID_46_);fill:#FFFFFF;}
	.st23{clip-path:url(#SVGID_48_);fill:#FFFFFF;}
	.st24{clip-path:url(#SVGID_50_);fill:#FFFFFF;}
	.st25{clip-path:url(#SVGID_52_);fill:#FFFFFF;}
	.st26{clip-path:url(#SVGID_54_);fill:#FFFFFF;}
	.st27{clip-path:url(#SVGID_56_);fill:#FFFFFF;}
	.st28{clip-path:url(#SVGID_58_);fill:#FFFFFF;}
	.st29{clip-path:url(#SVGID_60_);fill:#FFFFFF;}
	.st30{clip-path:url(#SVGID_62_);fill:#FFFFFF;}
	.st31{clip-path:url(#SVGID_64_);fill:#FFFFFF;}
	.st32{clip-path:url(#SVGID_66_);fill:#FFFFFF;}
	.st33{clip-path:url(#SVGID_68_);fill:#FFFFFF;}
	.st34{clip-path:url(#SVGID_70_);fill:#FFFFFF;}
	.st35{clip-path:url(#SVGID_72_);fill:#FFFFFF;}
	.st36{clip-path:url(#SVGID_74_);fill:#FFFFFF;}
	.st37{clip-path:url(#SVGID_76_);fill:#FFFFFF;}
	.st38{clip-path:url(#SVGID_78_);fill:#FFFFFF;}
	.st39{clip-path:url(#SVGID_80_);fill:#FFFFFF;}
	.st40{clip-path:url(#SVGID_82_);fill:#FFFFFF;}
	.st41{clip-path:url(#SVGID_84_);fill:#FFFFFF;}
	.st42{clip-path:url(#SVGID_86_);fill:#FFFFFF;}
	.st43{clip-path:url(#SVGID_88_);fill:#FFFFFF;}
	.st44{clip-path:url(#SVGID_90_);fill:#FFFFFF;}
	.st45{clip-path:url(#SVGID_92_);fill:#FFFFFF;}
	.st46{clip-path:url(#SVGID_94_);fill:#FFFFFF;}
	.st47{clip-path:url(#SVGID_96_);fill:#FFFFFF;}
	.st48{clip-path:url(#SVGID_98_);fill:#FFFFFF;}
	.st49{clip-path:url(#SVGID_100_);fill:#FFFFFF;}
	.st50{clip-path:url(#SVGID_102_);fill:#FFFFFF;}
	.st51{clip-path:url(#SVGID_104_);fill:#FFFFFF;}
	.st52{clip-path:url(#SVGID_106_);fill:#FFFFFF;}
	.st53{clip-path:url(#SVGID_108_);fill:#FFFFFF;}
	.st54{clip-path:url(#SVGID_110_);fill:#FFFFFF;}
	.st55{clip-path:url(#SVGID_112_);fill:#FFFFFF;}
	.st56{clip-path:url(#SVGID_114_);fill:#FFFFFF;}
	.st57{clip-path:url(#SVGID_116_);fill:#FFFFFF;}
	.st58{clip-path:url(#SVGID_118_);fill:#FFFFFF;}
	.st59{clip-path:url(#SVGID_120_);fill:#FFFFFF;}
	.st60{clip-path:url(#SVGID_122_);fill:#FFFFFF;}
	.st61{clip-path:url(#SVGID_124_);fill:#FFFFFF;}
	.st62{clip-path:url(#SVGID_126_);fill:#FFFFFF;}
	.st63{clip-path:url(#SVGID_128_);fill:#FFFFFF;}
	.st64{clip-path:url(#SVGID_130_);fill:#FFFFFF;}
	.st65{clip-path:url(#SVGID_132_);fill:#FFFFFF;}
	.st66{clip-path:url(#SVGID_134_);fill:#FFFFFF;}
	.st67{clip-path:url(#SVGID_136_);fill:#FFFFFF;}
	.st68{clip-path:url(#SVGID_138_);fill:#FFFFFF;}
	.st69{clip-path:url(#SVGID_140_);fill:#FFFFFF;}
	.st70{clip-path:url(#SVGID_142_);fill:#FFFFFF;}
	.st71{clip-path:url(#SVGID_144_);fill:#FFFFFF;}
	.st72{clip-path:url(#SVGID_146_);fill:#FFFFFF;}
	.st73{clip-path:url(#SVGID_148_);fill:#FFFFFF;}
	.st74{clip-path:url(#SVGID_150_);fill:#FFFFFF;}
	.st75{clip-path:url(#SVGID_152_);fill:#FFFFFF;}
	.st76{clip-path:url(#SVGID_154_);fill:#FFFFFF;}
	.st77{clip-path:url(#SVGID_156_);fill:#FFFFFF;}
	.st78{clip-path:url(#SVGID_158_);fill:#005596;}
	.st79{clip-path:url(#SVGID_160_);fill:#C4D3E3;}
	.st80{clip-path:url(#SVGID_162_);fill:url(#SVGID_163_);}
	.st81{clip-path:url(#SVGID_165_);fill:url(#SVGID_166_);}
	.st82{clip-path:url(#SVGID_168_);fill:url(#SVGID_169_);}
	.st83{clip-path:url(#SVGID_171_);fill:url(#SVGID_172_);}
	.st84{clip-path:url(#SVGID_174_);fill:url(#SVGID_175_);}
	.st85{clip-path:url(#SVGID_177_);fill:url(#SVGID_178_);}
	.st86{clip-path:url(#SVGID_180_);fill:url(#SVGID_181_);}
	.st87{clip-path:url(#SVGID_183_);fill:url(#SVGID_184_);}
	.st88{clip-path:url(#SVGID_186_);fill:url(#SVGID_187_);}
	.st89{clip-path:url(#SVGID_189_);fill:url(#SVGID_190_);}
	.st90{clip-path:url(#SVGID_192_);fill:url(#SVGID_193_);}
	.st91{clip-path:url(#SVGID_195_);fill:url(#SVGID_196_);}
	.st92{clip-path:url(#SVGID_198_);fill:url(#SVGID_199_);}
	.st93{clip-path:url(#SVGID_201_);fill:url(#SVGID_202_);}
	.st94{clip-path:url(#SVGID_204_);fill:url(#SVGID_205_);}
	.st95{clip-path:url(#SVGID_207_);fill:url(#SVGID_208_);}
	.st96{clip-path:url(#SVGID_210_);fill:url(#SVGID_211_);}
	.st97{clip-path:url(#SVGID_213_);fill:url(#SVGID_214_);}
	.st98{clip-path:url(#SVGID_216_);fill:url(#SVGID_217_);}
	.st99{clip-path:url(#SVGID_219_);fill:url(#SVGID_220_);}
	.st100{clip-path:url(#SVGID_222_);fill:url(#SVGID_223_);}
	.st101{clip-path:url(#SVGID_225_);fill:url(#SVGID_226_);}
	.st102{clip-path:url(#SVGID_228_);fill:url(#SVGID_229_);}
	.st103{clip-path:url(#SVGID_231_);fill:url(#SVGID_232_);}
	.st104{clip-path:url(#SVGID_234_);fill:#FFFFFF;}
</style>
<g>
	<g>
		<defs>
			<rect id="SVGID_1_" y="0" width="396" height="98.8"/>
		</defs>
		<clipPath id="SVGID_2_">
			<use xlink:href="#SVGID_1_"  style="overflow:visible;"/>
		</clipPath>
		<path class="st0" d="M221.3,17.7c0.1,0.8,0.2,2,0.2,3.7s-0.1,2.9-0.2,3.7c-0.1,0.8-0.4,1.4-0.8,1.9c-0.6,0.7-1.5,1.1-2.6,1.1h-3.4
			V14.7h3.4c1.1,0,1.9,0.4,2.6,1.1C220.9,16.3,221.2,16.9,221.3,17.7 M219.4,21.4c0-1.3,0-2.2-0.1-2.9c-0.1-0.6-0.2-1.1-0.4-1.3
			c-0.2-0.4-0.6-0.5-1.1-0.5h-1.2v9.5h1.2c0.5,0,0.8-0.2,1.1-0.5c0.2-0.3,0.3-0.7,0.4-1.4C219.4,23.6,219.4,22.7,219.4,21.4"/>
	</g>
	<g>
		<defs>
			<rect id="SVGID_3_" y="0" width="396" height="98.8"/>
		</defs>
		<clipPath id="SVGID_4_">
			<use xlink:href="#SVGID_3_"  style="overflow:visible;"/>
		</clipPath>
		<path class="st1" d="M229.5,23.7h-4.1c0,1.2,0.1,2,0.3,2.3c0.2,0.3,0.4,0.4,0.8,0.4c0.3,0,0.6-0.1,0.7-0.4
			c0.2-0.2,0.2-0.5,0.2-0.9h2c0,1-0.3,1.7-0.8,2.3c-0.5,0.5-1.2,0.8-2.1,0.8c-0.9,0-1.6-0.3-2.1-0.8c-0.4-0.4-0.6-0.9-0.7-1.6
			c-0.1-0.7-0.2-1.6-0.2-2.6s0.1-2,0.2-2.6c0.1-0.7,0.4-1.2,0.7-1.6c0.5-0.5,1.2-0.8,2.1-0.8c0.9,0,1.6,0.3,2.1,0.8
			c0.4,0.4,0.6,0.9,0.7,1.7C229.4,21.3,229.5,22.3,229.5,23.7 M227.5,22.2c0-1.1-0.1-1.8-0.3-2c-0.2-0.3-0.4-0.4-0.8-0.4
			s-0.6,0.1-0.8,0.4c-0.2,0.3-0.3,1-0.3,2H227.5z"/>
	</g>
	<g>
		<defs>
			<rect id="SVGID_5_" y="0" width="396" height="98.8"/>
		</defs>
		<clipPath id="SVGID_6_">
			<use xlink:href="#SVGID_5_"  style="overflow:visible;"/>
		</clipPath>
		<path class="st2" d="M237.4,28h-1.9v-0.7c-0.2,0.3-0.4,0.5-0.7,0.6c-0.3,0.2-0.6,0.3-1,0.3c-0.8,0-1.4-0.3-1.8-0.8
			c-0.4-0.4-0.6-1.1-0.6-2.1v-7.1h2v7.1c0,0.4,0.1,0.7,0.3,0.8c0.2,0.2,0.4,0.3,0.7,0.3c0.3,0,0.5-0.1,0.7-0.3
			c0.2-0.2,0.3-0.5,0.3-0.8v-7.1h2L237.4,28L237.4,28z"/>
	</g>
	<g>
		<defs>
			<rect id="SVGID_7_" y="0" width="396" height="98.8"/>
		</defs>
		<clipPath id="SVGID_8_">
			<use xlink:href="#SVGID_7_"  style="overflow:visible;"/>
		</clipPath>
		<path class="st3" d="M243.6,28c-1.1,0-1.9-0.2-2.4-0.6c-0.7-0.5-1-1.3-1-2.4V20h-1v-1.5h1v-2.8h2v2.8h1.4V20h-1.4v5
			c0,0.9,0.5,1.3,1.4,1.3L243.6,28L243.6,28z"/>
	</g>
	<g>
		<defs>
			<rect id="SVGID_9_" y="0" width="396" height="98.8"/>
		</defs>
		<clipPath id="SVGID_10_">
			<use xlink:href="#SVGID_9_"  style="overflow:visible;"/>
		</clipPath>
		<path class="st4" d="M251,25.2c0,0.9-0.3,1.6-0.9,2.2c-0.5,0.5-1.2,0.8-2.1,0.8c-0.9,0-1.7-0.3-2.2-0.8c-0.6-0.6-0.9-1.3-0.9-2.2
			h2c0,0.4,0.1,0.7,0.3,0.9c0.2,0.2,0.4,0.3,0.7,0.3s0.6-0.1,0.8-0.3c0.2-0.2,0.3-0.4,0.3-0.8c0-0.3-0.1-0.5-0.2-0.7
			c-0.1-0.2-0.4-0.4-0.8-0.6l-1.3-0.6c-0.7-0.3-1.1-0.7-1.4-1.1c-0.2-0.3-0.3-0.8-0.3-1.3c0-0.8,0.3-1.5,0.9-2.1
			c0.5-0.5,1.3-0.8,2.1-0.8c0.9,0,1.5,0.2,2.1,0.7c0.6,0.5,0.8,1.3,0.8,2.2H249c0-0.4-0.1-0.7-0.3-0.9c-0.2-0.2-0.4-0.3-0.7-0.3
			c-0.3,0-0.5,0.1-0.7,0.3c-0.2,0.2-0.3,0.4-0.3,0.7c0,0.2,0,0.4,0.1,0.6c0.1,0.2,0.4,0.4,0.7,0.6l1.3,0.6c0.7,0.3,1.1,0.7,1.4,1.1
			C250.9,24,251,24.5,251,25.2"/>
	</g>
	<g>
		<defs>
			<rect id="SVGID_11_" y="0" width="396" height="98.8"/>
		</defs>
		<clipPath id="SVGID_12_">
			<use xlink:href="#SVGID_11_"  style="overflow:visible;"/>
		</clipPath>
		<path class="st5" d="M258.7,25.1c-0.1,1-0.3,1.8-0.9,2.3c-0.5,0.5-1.2,0.7-2.1,0.7c-1.1,0-1.8-0.3-2.3-1c-0.5-0.6-0.7-2-0.7-4
			c0-2,0.2-3.4,0.7-4c0.5-0.7,1.3-1,2.3-1c0.9,0,1.6,0.2,2.1,0.7c0.5,0.5,0.8,1.3,0.9,2.3h-2c0-0.4-0.1-0.7-0.3-0.9
			c-0.2-0.2-0.4-0.4-0.7-0.4c-0.3,0-0.6,0.1-0.8,0.4c-0.2,0.3-0.3,1.3-0.3,2.9c0,1.6,0.1,2.6,0.3,2.9c0.2,0.3,0.4,0.4,0.8,0.4
			c0.3,0,0.6-0.1,0.7-0.3c0.1-0.2,0.2-0.5,0.3-0.9C256.8,25.1,258.7,25.1,258.7,25.1z"/>
	</g>
	<g>
		<defs>
			<rect id="SVGID_13_" y="0" width="396" height="98.8"/>
		</defs>
		<clipPath id="SVGID_14_">
			<use xlink:href="#SVGID_13_"  style="overflow:visible;"/>
		</clipPath>
		<path class="st6" d="M266.6,28h-2v-7.1c0-0.4-0.1-0.7-0.3-0.8c-0.2-0.2-0.4-0.3-0.7-0.3s-0.5,0.1-0.7,0.3
			c-0.2,0.2-0.3,0.5-0.3,0.8V28h-2V14.7h2v4.1c0.2-0.2,0.4-0.4,0.6-0.5c0.3-0.2,0.6-0.3,1-0.3c0.8,0,1.4,0.3,1.8,0.8
			c0.4,0.4,0.6,1.1,0.6,2.1L266.6,28L266.6,28z"/>
	</g>
	<g>
		<defs>
			<rect id="SVGID_15_" y="0" width="396" height="98.8"/>
		</defs>
		<clipPath id="SVGID_16_">
			<use xlink:href="#SVGID_15_"  style="overflow:visible;"/>
		</clipPath>
		<rect x="268.9" y="21.7" class="st7" width="3.8" height="1.9"/>
	</g>
	<g>
		<defs>
			<rect id="SVGID_17_" y="0" width="396" height="98.8"/>
		</defs>
		<clipPath id="SVGID_18_">
			<use xlink:href="#SVGID_17_"  style="overflow:visible;"/>
		</clipPath>
		<path class="st8" d="M282.3,28h-2.2l-1.7-5.4h-1.2V28h-2.1V14.7h3.4c1.2,0,2.1,0.3,2.6,0.9c0.5,0.6,0.8,1.6,0.8,3
			c0,0.9-0.1,1.6-0.3,2.2c-0.2,0.6-0.6,1-1.2,1.3L282.3,28z M279.5,20.1c0.2-0.4,0.3-0.9,0.3-1.5c0-0.6-0.1-1.1-0.3-1.5
			c-0.2-0.4-0.5-0.5-1-0.5h-1.3v4.1h1.3C279,20.7,279.3,20.5,279.5,20.1"/>
	</g>
	<g>
		<defs>
			<rect id="SVGID_19_" y="0" width="396" height="98.8"/>
		</defs>
		<clipPath id="SVGID_20_">
			<use xlink:href="#SVGID_19_"  style="overflow:visible;"/>
		</clipPath>
		<path class="st9" d="M290,28h-1.9v-0.7c-0.2,0.3-0.4,0.5-0.7,0.6c-0.3,0.2-0.6,0.3-1,0.3c-0.8,0-1.4-0.3-1.8-0.8
			c-0.4-0.4-0.6-1.1-0.6-2.1v-7.1h2v7.1c0,0.4,0.1,0.7,0.3,0.8c0.2,0.2,0.4,0.3,0.7,0.3s0.5-0.1,0.7-0.3c0.2-0.2,0.3-0.5,0.3-0.8
			v-7.1h2L290,28L290,28z"/>
	</g>
	<g>
		<defs>
			<rect id="SVGID_21_" y="0" width="396" height="98.8"/>
		</defs>
		<clipPath id="SVGID_22_">
			<use xlink:href="#SVGID_21_"  style="overflow:visible;"/>
		</clipPath>
		<path class="st10" d="M298,25.2c0,0.9-0.3,1.6-0.9,2.2c-0.5,0.5-1.2,0.8-2.1,0.8c-0.9,0-1.7-0.3-2.2-0.8c-0.6-0.6-0.9-1.3-0.9-2.2
			h2c0,0.4,0.1,0.7,0.3,0.9c0.2,0.2,0.4,0.3,0.7,0.3s0.6-0.1,0.8-0.3c0.2-0.2,0.3-0.4,0.3-0.8c0-0.3-0.1-0.5-0.2-0.7
			c-0.1-0.2-0.4-0.4-0.8-0.6l-1.3-0.6c-0.7-0.3-1.1-0.7-1.4-1.1c-0.2-0.3-0.3-0.8-0.3-1.3c0-0.8,0.3-1.5,0.9-2.1
			c0.5-0.5,1.3-0.8,2.1-0.8c0.9,0,1.5,0.2,2.1,0.7c0.6,0.5,0.8,1.3,0.8,2.2H296c0-0.4-0.1-0.7-0.3-0.9c-0.2-0.2-0.4-0.3-0.7-0.3
			c-0.3,0-0.5,0.1-0.7,0.3c-0.2,0.2-0.3,0.4-0.3,0.7c0,0.2,0,0.4,0.1,0.6c0.1,0.2,0.4,0.4,0.7,0.6l1.3,0.6c0.7,0.3,1.1,0.7,1.4,1.1
			C297.9,24,298,24.5,298,25.2"/>
	</g>
	<g>
		<defs>
			<rect id="SVGID_23_" y="0" width="396" height="98.8"/>
		</defs>
		<clipPath id="SVGID_24_">
			<use xlink:href="#SVGID_23_"  style="overflow:visible;"/>
		</clipPath>
		<path class="st11" d="M305.7,25.2c0,0.9-0.3,1.6-0.9,2.2c-0.5,0.5-1.2,0.8-2.1,0.8c-0.9,0-1.7-0.3-2.2-0.8
			c-0.6-0.6-0.9-1.3-0.9-2.2h2c0,0.4,0.1,0.7,0.3,0.9c0.2,0.2,0.4,0.3,0.7,0.3s0.6-0.1,0.8-0.3c0.2-0.2,0.3-0.4,0.3-0.8
			c0-0.3-0.1-0.5-0.2-0.7c-0.1-0.2-0.4-0.4-0.8-0.6l-1.3-0.6c-0.7-0.3-1.1-0.7-1.4-1.1c-0.2-0.3-0.3-0.8-0.3-1.3
			c0-0.8,0.3-1.5,0.9-2.1c0.5-0.5,1.3-0.8,2.1-0.8c0.9,0,1.5,0.2,2.1,0.7c0.6,0.5,0.8,1.3,0.8,2.2h-1.9c0-0.4-0.1-0.7-0.3-0.9
			c-0.2-0.2-0.4-0.3-0.7-0.3c-0.3,0-0.5,0.1-0.7,0.3c-0.2,0.2-0.3,0.4-0.3,0.7c0,0.2,0,0.4,0.1,0.6c0.1,0.2,0.4,0.4,0.7,0.6l1.3,0.6
			c0.7,0.3,1.1,0.7,1.4,1.1C305.5,24,305.7,24.5,305.7,25.2"/>
	</g>
	<g>
		<defs>
			<rect id="SVGID_25_" y="0" width="396" height="98.8"/>
		</defs>
		<clipPath id="SVGID_26_">
			<use xlink:href="#SVGID_25_"  style="overflow:visible;"/>
		</clipPath>
		<path class="st12" d="M309.7,16.9h-2.2v-2.2h2.2V16.9z M309.6,28h-2v-9.6h2V28z"/>
	</g>
	<g>
		<defs>
			<rect id="SVGID_27_" y="0" width="396" height="98.8"/>
		</defs>
		<clipPath id="SVGID_28_">
			<use xlink:href="#SVGID_27_"  style="overflow:visible;"/>
		</clipPath>
		<path class="st13" d="M317.7,25.2c0,0.9-0.3,1.6-0.9,2.2c-0.5,0.5-1.2,0.8-2.1,0.8c-0.9,0-1.7-0.3-2.2-0.8
			c-0.6-0.6-0.9-1.3-0.9-2.2h2c0,0.4,0.1,0.7,0.3,0.9c0.2,0.2,0.4,0.3,0.7,0.3s0.6-0.1,0.8-0.3c0.2-0.2,0.3-0.4,0.3-0.8
			c0-0.3-0.1-0.5-0.2-0.7c-0.1-0.2-0.4-0.4-0.8-0.6l-1.3-0.6c-0.7-0.3-1.1-0.7-1.4-1.1c-0.2-0.3-0.3-0.8-0.3-1.3
			c0-0.8,0.3-1.5,0.9-2.1c0.5-0.5,1.3-0.8,2.1-0.8c0.9,0,1.5,0.2,2.1,0.7c0.6,0.5,0.8,1.3,0.8,2.2h-1.9c0-0.4-0.1-0.7-0.3-0.9
			c-0.2-0.2-0.4-0.3-0.7-0.3c-0.3,0-0.5,0.1-0.7,0.3c-0.2,0.2-0.3,0.4-0.3,0.7c0,0.2,0,0.4,0.1,0.6c0.1,0.2,0.4,0.4,0.7,0.6l1.3,0.6
			c0.7,0.3,1.1,0.7,1.4,1.1C317.5,24,317.7,24.5,317.7,25.2"/>
	</g>
	<g>
		<defs>
			<rect id="SVGID_29_" y="0" width="396" height="98.8"/>
		</defs>
		<clipPath id="SVGID_30_">
			<use xlink:href="#SVGID_29_"  style="overflow:visible;"/>
		</clipPath>
		<path class="st14" d="M325.3,25.1c-0.1,1-0.3,1.8-0.9,2.3c-0.5,0.5-1.2,0.7-2.1,0.7c-1.1,0-1.8-0.3-2.3-1c-0.5-0.6-0.7-2-0.7-4
			c0-2,0.2-3.4,0.7-4c0.5-0.7,1.3-1,2.3-1c0.9,0,1.6,0.2,2.1,0.7c0.5,0.5,0.8,1.3,0.9,2.3h-2c0-0.4-0.1-0.7-0.3-0.9
			c-0.2-0.2-0.4-0.4-0.7-0.4c-0.3,0-0.6,0.1-0.8,0.4c-0.2,0.3-0.3,1.3-0.3,2.9c0,1.6,0.1,2.6,0.3,2.9c0.2,0.3,0.4,0.4,0.8,0.4
			c0.3,0,0.6-0.1,0.7-0.3c0.1-0.2,0.2-0.5,0.3-0.9C323.4,25.1,325.3,25.1,325.3,25.1z"/>
	</g>
	<g>
		<defs>
			<rect id="SVGID_31_" y="0" width="396" height="98.8"/>
		</defs>
		<clipPath id="SVGID_32_">
			<use xlink:href="#SVGID_31_"  style="overflow:visible;"/>
		</clipPath>
		<path class="st15" d="M333.2,28h-2v-7.1c0-0.4-0.1-0.7-0.3-0.8c-0.2-0.2-0.4-0.3-0.7-0.3s-0.5,0.1-0.7,0.3
			c-0.2,0.2-0.3,0.5-0.3,0.8V28h-2V14.7h2v4.1c0.2-0.2,0.4-0.4,0.6-0.5c0.3-0.2,0.6-0.3,1-0.3c0.8,0,1.4,0.3,1.8,0.8
			c0.4,0.4,0.6,1.1,0.6,2.1L333.2,28L333.2,28z"/>
	</g>
	<g>
		<defs>
			<rect id="SVGID_33_" y="0" width="396" height="98.8"/>
		</defs>
		<clipPath id="SVGID_34_">
			<use xlink:href="#SVGID_33_"  style="overflow:visible;"/>
		</clipPath>
		<path class="st16" d="M341.3,23.7h-4.1c0,1.2,0.1,2,0.3,2.3c0.2,0.3,0.4,0.4,0.8,0.4c0.3,0,0.6-0.1,0.7-0.4
			c0.2-0.2,0.2-0.5,0.2-0.9h2c0,1-0.3,1.7-0.8,2.3c-0.5,0.5-1.2,0.8-2.1,0.8c-0.9,0-1.6-0.3-2.1-0.8c-0.4-0.4-0.6-0.9-0.7-1.6
			c-0.1-0.7-0.2-1.6-0.2-2.6s0.1-2,0.2-2.6c0.1-0.7,0.4-1.2,0.7-1.6c0.5-0.5,1.2-0.8,2.1-0.8c0.9,0,1.6,0.3,2.1,0.8
			c0.4,0.4,0.6,0.9,0.7,1.7S341.3,22.3,341.3,23.7 M339.4,22.2c0-1.1-0.1-1.8-0.3-2c-0.2-0.3-0.4-0.4-0.8-0.4
			c-0.3,0-0.6,0.1-0.8,0.4c-0.2,0.3-0.3,1-0.3,2H339.4z"/>
	</g>
	<g>
		<defs>
			<rect id="SVGID_35_" y="0" width="396" height="98.8"/>
		</defs>
		<clipPath id="SVGID_36_">
			<use xlink:href="#SVGID_35_"  style="overflow:visible;"/>
		</clipPath>
		<path class="st17" d="M222.1,46.6h-2.2l-0.5-2.6h-3.1l-0.5,2.6h-2.2l3.3-13.3h2L222.1,46.6z M218.9,42.1l-1.1-5.6l-1.1,5.6H218.9z
			"/>
	</g>
	<g>
		<defs>
			<rect id="SVGID_37_" y="0" width="396" height="98.8"/>
		</defs>
		<clipPath id="SVGID_38_">
			<use xlink:href="#SVGID_37_"  style="overflow:visible;"/>
		</clipPath>
		<path class="st18" d="M229.5,46.6h-1.9v-0.7c-0.2,0.3-0.4,0.5-0.7,0.6c-0.3,0.2-0.6,0.3-1,0.3c-0.8,0-1.4-0.3-1.8-0.8
			c-0.4-0.4-0.6-1.1-0.6-2.1v-7.1h2v7.1c0,0.4,0.1,0.7,0.3,0.8c0.2,0.2,0.4,0.3,0.7,0.3s0.5-0.1,0.7-0.3c0.2-0.2,0.3-0.5,0.3-0.8
			v-7.1h2L229.5,46.6L229.5,46.6z"/>
	</g>
	<g>
		<defs>
			<rect id="SVGID_39_" y="0" width="396" height="98.8"/>
		</defs>
		<clipPath id="SVGID_40_">
			<use xlink:href="#SVGID_39_"  style="overflow:visible;"/>
		</clipPath>
		<path class="st19" d="M237.5,43.8c0,0.9-0.3,1.6-0.9,2.2c-0.5,0.5-1.2,0.8-2.1,0.8c-0.9,0-1.7-0.3-2.2-0.8
			c-0.6-0.6-0.9-1.3-0.9-2.2h2c0,0.4,0.1,0.7,0.3,0.9c0.2,0.2,0.4,0.3,0.7,0.3s0.6-0.1,0.8-0.3c0.2-0.2,0.3-0.4,0.3-0.8
			c0-0.3-0.1-0.5-0.2-0.7c-0.1-0.2-0.4-0.4-0.8-0.6l-1.3-0.6c-0.7-0.3-1.1-0.7-1.4-1.1c-0.2-0.3-0.3-0.8-0.3-1.3
			c0-0.8,0.3-1.5,0.9-2.1c0.5-0.5,1.3-0.8,2.1-0.8c0.9,0,1.5,0.2,2.1,0.7c0.6,0.5,0.8,1.3,0.8,2.2h-1.9c0-0.4-0.1-0.7-0.3-0.9
			c-0.2-0.2-0.4-0.3-0.7-0.3c-0.3,0-0.5,0.1-0.7,0.3c-0.2,0.2-0.3,0.4-0.3,0.7c0,0.2,0.1,0.4,0.1,0.6c0.1,0.2,0.4,0.4,0.7,0.6
			l1.3,0.6c0.7,0.3,1.1,0.7,1.4,1.1C237.4,42.6,237.5,43.1,237.5,43.8"/>
	</g>
	<g>
		<defs>
			<rect id="SVGID_41_" y="0" width="396" height="98.8"/>
		</defs>
		<clipPath id="SVGID_42_">
			<use xlink:href="#SVGID_41_"  style="overflow:visible;"/>
		</clipPath>
		<path class="st20" d="M242.8,46.6c-1,0-1.8-0.2-2.3-0.6c-0.7-0.5-1-1.3-1-2.4V33.4h2v10.2c0,0.9,0.4,1.3,1.3,1.3L242.8,46.6
			L242.8,46.6z"/>
	</g>
	<g>
		<defs>
			<rect id="SVGID_43_" y="0" width="396" height="98.8"/>
		</defs>
		<clipPath id="SVGID_44_">
			<use xlink:href="#SVGID_43_"  style="overflow:visible;"/>
		</clipPath>
		<path class="st21" d="M250.1,46.6h-1.9v-0.8c-0.2,0.3-0.4,0.5-0.6,0.7c-0.3,0.2-0.7,0.3-1.1,0.3c-0.8,0-1.4-0.3-1.8-0.8
			c-0.4-0.5-0.6-1.2-0.6-2.2c0-0.9,0.3-1.7,0.9-2.2c0.5-0.4,1.3-0.7,2.3-0.7h0.9v-1.4c0-0.8-0.3-1.1-0.9-1.1c-0.3,0-0.5,0.1-0.7,0.3
			c-0.2,0.2-0.3,0.5-0.3,0.9h-2c0-0.9,0.3-1.6,0.8-2.1c0.5-0.5,1.2-0.8,2.1-0.8c0.9,0,1.6,0.2,2.1,0.7c0.6,0.6,0.9,1.3,0.9,2.3
			L250.1,46.6L250.1,46.6z M248.1,43.7v-1.5h-0.7c-0.5,0-0.8,0.1-1,0.3c-0.3,0.2-0.4,0.6-0.4,1.1c0,0.9,0.3,1.4,1,1.4
			c0.3,0,0.5-0.1,0.7-0.4C248,44.5,248.1,44.1,248.1,43.7"/>
	</g>
	<g>
		<defs>
			<rect id="SVGID_45_" y="0" width="396" height="98.8"/>
		</defs>
		<clipPath id="SVGID_46_">
			<use xlink:href="#SVGID_45_"  style="overflow:visible;"/>
		</clipPath>
		<path class="st22" d="M258.4,46.6h-2v-7.1c0-0.4-0.1-0.7-0.3-0.8c-0.2-0.2-0.4-0.3-0.7-0.3s-0.5,0.1-0.7,0.3
			c-0.2,0.2-0.3,0.5-0.3,0.8v7.1h-2v-9.8h1.9v0.7c0.2-0.3,0.4-0.5,0.7-0.6c0.3-0.2,0.6-0.3,1-0.3c0.8,0,1.4,0.3,1.8,0.8
			c0.4,0.4,0.6,1.1,0.6,2.1L258.4,46.6L258.4,46.6z"/>
	</g>
	<g>
		<defs>
			<rect id="SVGID_47_" y="0" width="396" height="98.8"/>
		</defs>
		<clipPath id="SVGID_48_">
			<use xlink:href="#SVGID_47_"  style="overflow:visible;"/>
		</clipPath>
		<path class="st23" d="M266.4,46.6h-1.9v-0.7c-0.1,0.2-0.3,0.4-0.7,0.6c-0.3,0.2-0.6,0.3-1,0.3c-0.7,0-1.3-0.3-1.7-0.8
			c-0.3-0.4-0.5-0.9-0.6-1.5c-0.1-0.6-0.1-1.6-0.1-2.8c0-1.2,0-2.2,0.1-2.8s0.3-1.1,0.6-1.5c0.4-0.5,1-0.8,1.7-0.8
			c0.4,0,0.7,0.1,1,0.3c0.2,0.1,0.4,0.3,0.6,0.5v-4.1h2L266.4,46.6L266.4,46.6z M264.5,43.8v-4.2c0-0.4-0.1-0.7-0.3-0.9
			c-0.2-0.2-0.4-0.3-0.7-0.3c-0.3,0-0.5,0.1-0.7,0.4c-0.2,0.3-0.3,1.2-0.3,2.9c0,1.7,0.1,2.7,0.3,2.9c0.2,0.2,0.4,0.4,0.7,0.4
			c0.3,0,0.5-0.1,0.7-0.3C264.4,44.6,264.5,44.2,264.5,43.8"/>
	</g>
	<g>
		<defs>
			<rect id="SVGID_49_" y="0" width="396" height="98.8"/>
		</defs>
		<clipPath id="SVGID_50_">
			<use xlink:href="#SVGID_49_"  style="overflow:visible;"/>
		</clipPath>
		<path class="st24" d="M274.5,43.8c0,0.9-0.3,1.6-0.9,2.2c-0.5,0.5-1.2,0.8-2.1,0.8c-0.9,0-1.6-0.3-2.2-0.8
			c-0.6-0.6-0.9-1.3-0.9-2.2h2c0,0.4,0.1,0.7,0.3,0.9c0.2,0.2,0.4,0.3,0.7,0.3c0.3,0,0.6-0.1,0.8-0.3c0.2-0.2,0.3-0.4,0.3-0.8
			c0-0.3-0.1-0.5-0.2-0.7c-0.1-0.2-0.4-0.4-0.8-0.6l-1.3-0.6c-0.7-0.3-1.1-0.7-1.4-1.1c-0.2-0.3-0.3-0.8-0.3-1.3
			c0-0.8,0.3-1.5,0.9-2.1c0.5-0.5,1.3-0.8,2.1-0.8c0.9,0,1.5,0.2,2.1,0.7c0.6,0.5,0.8,1.3,0.8,2.2h-1.9c0-0.4-0.1-0.7-0.3-0.9
			c-0.2-0.2-0.4-0.3-0.7-0.3c-0.3,0-0.5,0.1-0.7,0.3c-0.2,0.2-0.3,0.4-0.3,0.7c0,0.2,0,0.4,0.1,0.6c0.1,0.2,0.4,0.4,0.7,0.6l1.3,0.6
			c0.7,0.3,1.1,0.7,1.4,1.1C274.3,42.6,274.5,43.1,274.5,43.8"/>
	</g>
	<g>
		<defs>
			<rect id="SVGID_51_" y="0" width="396" height="98.8"/>
		</defs>
		<clipPath id="SVGID_52_">
			<use xlink:href="#SVGID_51_"  style="overflow:visible;"/>
		</clipPath>
		<path class="st25" d="M282.4,46.6h-2v-7.1c0-0.4-0.1-0.7-0.3-0.8c-0.2-0.2-0.4-0.3-0.7-0.3s-0.5,0.1-0.7,0.3
			c-0.2,0.2-0.3,0.5-0.3,0.8v7.1h-2V33.4h2v4.1c0.2-0.2,0.4-0.4,0.6-0.5c0.3-0.2,0.6-0.3,1-0.3c0.8,0,1.4,0.3,1.8,0.8
			c0.4,0.4,0.6,1.1,0.6,2.1L282.4,46.6L282.4,46.6z"/>
	</g>
	<g>
		<defs>
			<rect id="SVGID_53_" y="0" width="396" height="98.8"/>
		</defs>
		<clipPath id="SVGID_54_">
			<use xlink:href="#SVGID_53_"  style="overflow:visible;"/>
		</clipPath>
		<path class="st26" d="M290.3,46.6h-1.9v-0.8c-0.2,0.3-0.4,0.5-0.6,0.7c-0.3,0.2-0.7,0.3-1.1,0.3c-0.8,0-1.4-0.3-1.8-0.8
			c-0.4-0.5-0.6-1.2-0.6-2.2c0-0.9,0.3-1.7,0.9-2.2c0.5-0.4,1.3-0.7,2.3-0.7h0.9v-1.4c0-0.8-0.3-1.1-1-1.1c-0.3,0-0.5,0.1-0.7,0.3
			c-0.2,0.2-0.3,0.5-0.3,0.9h-2c0-0.9,0.3-1.6,0.8-2.1c0.5-0.5,1.2-0.8,2.1-0.8c0.9,0,1.6,0.2,2.1,0.7c0.6,0.6,0.9,1.3,0.9,2.3
			L290.3,46.6L290.3,46.6z M288.3,43.7v-1.5h-0.7c-0.5,0-0.8,0.1-1,0.3c-0.3,0.2-0.4,0.6-0.4,1.1c0,0.9,0.3,1.4,1,1.4
			c0.3,0,0.5-0.1,0.7-0.4C288.2,44.5,288.3,44.1,288.3,43.7"/>
	</g>
	<g>
		<defs>
			<rect id="SVGID_55_" y="0" width="396" height="98.8"/>
		</defs>
		<clipPath id="SVGID_56_">
			<use xlink:href="#SVGID_55_"  style="overflow:visible;"/>
		</clipPath>
		<path class="st27" d="M298.6,46.6h-2v-7.1c0-0.4-0.1-0.7-0.3-0.8c-0.2-0.2-0.4-0.3-0.7-0.3c-0.3,0-0.5,0.1-0.7,0.3
			c-0.2,0.2-0.3,0.5-0.3,0.8v7.1h-2v-9.8h1.9v0.7c0.2-0.3,0.4-0.5,0.7-0.6c0.3-0.2,0.6-0.3,1-0.3c0.8,0,1.4,0.3,1.8,0.8
			c0.4,0.4,0.6,1.1,0.6,2.1L298.6,46.6L298.6,46.6z"/>
	</g>
	<g>
		<defs>
			<rect id="SVGID_57_" y="0" width="396" height="98.8"/>
		</defs>
		<clipPath id="SVGID_58_">
			<use xlink:href="#SVGID_57_"  style="overflow:visible;"/>
		</clipPath>
		<path class="st28" d="M306.6,46.6h-1.9v-0.7c-0.1,0.2-0.3,0.4-0.7,0.6c-0.3,0.2-0.6,0.3-1,0.3c-0.7,0-1.3-0.3-1.7-0.8
			c-0.3-0.4-0.5-0.9-0.6-1.5c-0.1-0.6-0.1-1.6-0.1-2.8c0-1.2,0-2.2,0.1-2.8s0.3-1.1,0.6-1.5c0.4-0.5,1-0.8,1.7-0.8
			c0.4,0,0.7,0.1,1,0.3c0.2,0.1,0.4,0.3,0.6,0.5v-4.1h2L306.6,46.6L306.6,46.6z M304.6,43.8v-4.2c0-0.4-0.1-0.7-0.3-0.9
			c-0.2-0.2-0.4-0.3-0.7-0.3c-0.3,0-0.5,0.1-0.7,0.4c-0.2,0.3-0.3,1.2-0.3,2.9c0,1.7,0.1,2.7,0.3,2.9c0.2,0.2,0.4,0.4,0.7,0.4
			c0.3,0,0.5-0.1,0.7-0.3C304.5,44.6,304.6,44.2,304.6,43.8"/>
	</g>
	<g>
		<defs>
			<rect id="SVGID_59_" y="0" width="396" height="98.8"/>
		</defs>
		<clipPath id="SVGID_60_">
			<use xlink:href="#SVGID_59_"  style="overflow:visible;"/>
		</clipPath>
		<path class="st29" d="M314.8,42.3h-4.1c0,1.2,0.1,2,0.3,2.3c0.2,0.3,0.4,0.4,0.8,0.4c0.3,0,0.6-0.1,0.7-0.4
			c0.2-0.2,0.2-0.5,0.2-0.9h2c0,1-0.3,1.7-0.8,2.3c-0.5,0.5-1.2,0.8-2.1,0.8c-0.9,0-1.6-0.3-2.1-0.8c-0.4-0.4-0.6-0.9-0.7-1.6
			c-0.1-0.7-0.2-1.6-0.2-2.6s0.1-2,0.2-2.6c0.1-0.7,0.4-1.2,0.7-1.6c0.5-0.5,1.2-0.8,2.1-0.8c0.9,0,1.6,0.3,2.1,0.8
			c0.4,0.4,0.6,0.9,0.7,1.7C314.7,39.9,314.8,41,314.8,42.3 M312.8,40.8c0-1.1-0.1-1.8-0.3-2c-0.2-0.3-0.4-0.4-0.8-0.4
			s-0.6,0.1-0.8,0.4c-0.2,0.3-0.3,1-0.3,2H312.8z"/>
	</g>
	<g>
		<defs>
			<rect id="SVGID_61_" y="0" width="396" height="98.8"/>
		</defs>
		<clipPath id="SVGID_62_">
			<use xlink:href="#SVGID_61_"  style="overflow:visible;"/>
		</clipPath>
		<path class="st30" d="M320.2,46.6c-1,0-1.8-0.2-2.3-0.6c-0.7-0.5-1-1.3-1-2.4V33.4h2v10.2c0,0.9,0.4,1.3,1.3,1.3L320.2,46.6
			L320.2,46.6z"/>
	</g>
	<g>
		<defs>
			<rect id="SVGID_63_" y="0" width="396" height="98.8"/>
		</defs>
		<clipPath id="SVGID_64_">
			<use xlink:href="#SVGID_63_"  style="overflow:visible;"/>
		</clipPath>
		<path class="st31" d="M327.5,43.8c0,0.9-0.3,1.6-0.9,2.2c-0.5,0.5-1.2,0.8-2.1,0.8c-0.9,0-1.7-0.3-2.2-0.8
			c-0.6-0.6-0.9-1.3-0.9-2.2h2c0,0.4,0.1,0.7,0.3,0.9c0.2,0.2,0.4,0.3,0.7,0.3s0.6-0.1,0.8-0.3c0.2-0.2,0.3-0.4,0.3-0.8
			c0-0.3-0.1-0.5-0.2-0.7c-0.1-0.2-0.4-0.4-0.8-0.6l-1.3-0.6c-0.7-0.3-1.1-0.7-1.4-1.1c-0.2-0.3-0.3-0.8-0.3-1.3
			c0-0.8,0.3-1.5,0.9-2.1c0.5-0.5,1.3-0.8,2.1-0.8c0.9,0,1.5,0.2,2.1,0.7c0.6,0.5,0.8,1.3,0.8,2.2h-1.9c0-0.4-0.1-0.7-0.3-0.9
			c-0.2-0.2-0.4-0.3-0.7-0.3c-0.3,0-0.5,0.1-0.7,0.3c-0.2,0.2-0.3,0.4-0.3,0.7c0,0.2,0,0.4,0.1,0.6c0.1,0.2,0.4,0.4,0.7,0.6l1.3,0.6
			c0.7,0.3,1.1,0.7,1.4,1.1C327.4,42.6,327.5,43.1,327.5,43.8"/>
	</g>
	<g>
		<defs>
			<rect id="SVGID_65_" y="0" width="396" height="98.8"/>
		</defs>
		<clipPath id="SVGID_66_">
			<use xlink:href="#SVGID_65_"  style="overflow:visible;"/>
		</clipPath>
		<polygon class="st32" points="336.2,46.6 334,46.6 332.4,42.5 331.5,43.8 331.5,46.6 329.6,46.6 329.6,33.4 331.5,33.4 331.5,41 
			334,36.8 336.1,36.8 333.6,40.7 		"/>
	</g>
	<g>
		<defs>
			<rect id="SVGID_67_" y="0" width="396" height="98.8"/>
		</defs>
		<clipPath id="SVGID_68_">
			<use xlink:href="#SVGID_67_"  style="overflow:visible;"/>
		</clipPath>
		<path class="st33" d="M343.4,46.6h-1.9v-0.8c-0.2,0.3-0.4,0.5-0.6,0.7c-0.3,0.2-0.7,0.3-1.1,0.3c-0.8,0-1.4-0.3-1.8-0.8
			c-0.4-0.5-0.6-1.2-0.6-2.2c0-0.9,0.3-1.7,0.9-2.2c0.5-0.4,1.3-0.7,2.3-0.7h0.9v-1.4c0-0.8-0.3-1.1-1-1.1c-0.3,0-0.5,0.1-0.7,0.3
			c-0.2,0.2-0.3,0.5-0.3,0.9h-2c0-0.9,0.3-1.6,0.8-2.1c0.5-0.5,1.2-0.8,2.1-0.8c0.9,0,1.6,0.2,2.1,0.7c0.6,0.6,0.9,1.3,0.9,2.3
			L343.4,46.6L343.4,46.6z M341.4,43.7v-1.5h-0.7c-0.5,0-0.8,0.1-1,0.3c-0.3,0.2-0.4,0.6-0.4,1.1c0,0.9,0.3,1.4,1,1.4
			c0.3,0,0.5-0.1,0.7-0.4C341.3,44.5,341.4,44.1,341.4,43.7"/>
	</g>
	<g>
		<defs>
			<rect id="SVGID_69_" y="0" width="396" height="98.8"/>
		</defs>
		<clipPath id="SVGID_70_">
			<use xlink:href="#SVGID_69_"  style="overflow:visible;"/>
		</clipPath>
		<path class="st34" d="M355.6,46.6h-2v-7.1c0-0.4-0.1-0.6-0.3-0.8c-0.2-0.2-0.4-0.3-0.7-0.3s-0.5,0.1-0.7,0.3
			c-0.2,0.2-0.3,0.5-0.3,0.8v7.1h-2v-7.1c0-0.4-0.1-0.7-0.3-0.8c-0.2-0.2-0.4-0.3-0.7-0.3c-0.3,0-0.5,0.1-0.7,0.3
			c-0.2,0.2-0.3,0.5-0.3,0.8v7.1h-2v-9.8h1.9v0.7c0.2-0.3,0.4-0.5,0.7-0.6c0.3-0.2,0.6-0.3,1-0.3c0.8,0,1.4,0.3,1.9,1
			c0.3-0.3,0.6-0.6,0.9-0.7c0.3-0.2,0.7-0.3,1-0.3c0.8,0,1.4,0.3,1.9,0.8c0.4,0.4,0.6,1.1,0.6,2.1L355.6,46.6L355.6,46.6z"/>
	</g>
	<g>
		<defs>
			<rect id="SVGID_71_" y="0" width="396" height="98.8"/>
		</defs>
		<clipPath id="SVGID_72_">
			<use xlink:href="#SVGID_71_"  style="overflow:visible;"/>
		</clipPath>
		<path class="st35" d="M367.8,46.6h-2v-7.1c0-0.4-0.1-0.6-0.3-0.8c-0.2-0.2-0.4-0.3-0.7-0.3c-0.3,0-0.5,0.1-0.7,0.3
			c-0.2,0.2-0.3,0.5-0.3,0.8v7.1h-2v-7.1c0-0.4-0.1-0.7-0.3-0.8c-0.2-0.2-0.4-0.3-0.7-0.3s-0.5,0.1-0.7,0.3
			c-0.2,0.2-0.3,0.5-0.3,0.8v7.1h-2v-9.8h1.9v0.7c0.2-0.3,0.4-0.5,0.7-0.6c0.3-0.2,0.6-0.3,1-0.3c0.8,0,1.4,0.3,1.9,1
			c0.3-0.3,0.6-0.6,0.9-0.7c0.3-0.2,0.7-0.3,1-0.3c0.8,0,1.4,0.3,1.9,0.8c0.4,0.4,0.6,1.1,0.6,2.1L367.8,46.6L367.8,46.6z"/>
	</g>
	<g>
		<defs>
			<rect id="SVGID_73_" y="0" width="396" height="98.8"/>
		</defs>
		<clipPath id="SVGID_74_">
			<use xlink:href="#SVGID_73_"  style="overflow:visible;"/>
		</clipPath>
		<path class="st36" d="M375.9,42.3h-4.1c0,1.2,0.1,2,0.3,2.3c0.2,0.3,0.4,0.4,0.8,0.4c0.3,0,0.6-0.1,0.7-0.4
			c0.2-0.2,0.2-0.5,0.2-0.9h2c0,1-0.3,1.7-0.8,2.3c-0.5,0.5-1.2,0.8-2.1,0.8c-0.9,0-1.6-0.3-2.1-0.8c-0.4-0.4-0.6-0.9-0.7-1.6
			c-0.1-0.7-0.2-1.6-0.2-2.6s0.1-2,0.2-2.6c0.1-0.7,0.4-1.2,0.7-1.6c0.5-0.5,1.2-0.8,2.1-0.8c0.9,0,1.6,0.3,2.1,0.8
			c0.4,0.4,0.6,0.9,0.7,1.7S375.9,41,375.9,42.3 M373.9,40.8c0-1.1-0.1-1.8-0.3-2c-0.2-0.3-0.4-0.4-0.8-0.4s-0.6,0.1-0.8,0.4
			c-0.2,0.3-0.3,1-0.3,2H373.9z"/>
	</g>
	<g>
		<defs>
			<rect id="SVGID_75_" y="0" width="396" height="98.8"/>
		</defs>
		<clipPath id="SVGID_76_">
			<use xlink:href="#SVGID_75_"  style="overflow:visible;"/>
		</clipPath>
		<path class="st37" d="M382.3,38.6h-0.7c-0.5,0-0.9,0.2-1.2,0.5c-0.3,0.3-0.5,0.7-0.5,1.2v6.4h-2v-9.8h1.9v1
			c0.2-0.3,0.5-0.6,0.9-0.8c0.4-0.3,1-0.4,1.5-0.4L382.3,38.6L382.3,38.6z"/>
	</g>
	<g>
		<defs>
			<rect id="SVGID_77_" y="0" width="396" height="98.8"/>
		</defs>
		<clipPath id="SVGID_78_">
			<use xlink:href="#SVGID_77_"  style="overflow:visible;"/>
		</clipPath>
		<path class="st38" d="M219.5,56.1c0.5,0.5,0.8,1.5,0.8,2.9c0,1.4-0.3,2.4-0.8,2.9c-0.5,0.5-1.2,0.8-2.1,0.8h-1.5v5.9h-1.1V55.3
			h2.6C218.3,55.3,219,55.5,219.5,56.1 M218.7,61.1c0.3-0.4,0.5-1.1,0.5-2.1s-0.2-1.8-0.5-2.1c-0.3-0.4-0.8-0.6-1.4-0.6h-1.5v5.4
			h1.5C217.9,61.7,218.3,61.5,218.7,61.1"/>
	</g>
	<g>
		<defs>
			<rect id="SVGID_79_" y="0" width="396" height="98.8"/>
		</defs>
		<clipPath id="SVGID_80_">
			<use xlink:href="#SVGID_79_"  style="overflow:visible;"/>
		</clipPath>
		<path class="st39" d="M226.8,61.1c0.1,0.6,0.1,1.5,0.1,2.7c0,1.2-0.1,2.1-0.1,2.7c-0.1,0.6-0.3,1.1-0.6,1.4
			c-0.4,0.5-1,0.7-1.8,0.7c-0.8,0-1.3-0.3-1.8-0.7c-0.3-0.3-0.5-0.8-0.6-1.4c-0.1-0.6-0.1-1.5-0.1-2.7c0-1.2,0-2.1,0.1-2.7
			c0.1-0.6,0.3-1.1,0.6-1.4c0.4-0.5,1-0.8,1.8-0.8c0.8,0,1.3,0.3,1.8,0.8C226.5,60,226.7,60.5,226.8,61.1 M225.8,66.2
			c0.1-0.5,0.1-1.3,0.1-2.4s0-1.9-0.1-2.4c-0.1-0.5-0.2-0.9-0.4-1.1c-0.2-0.3-0.5-0.4-0.9-0.4c-0.4,0-0.7,0.1-0.9,0.4
			c-0.2,0.2-0.3,0.6-0.4,1.1c-0.1,0.5-0.1,1.3-0.1,2.4c0,1.1,0,1.9,0.1,2.4c0.1,0.5,0.2,0.9,0.4,1.1c0.2,0.3,0.6,0.4,0.9,0.4
			c0.4,0,0.7-0.1,0.9-0.4C225.6,67.1,225.8,66.7,225.8,66.2"/>
	</g>
	<g>
		<defs>
			<rect id="SVGID_81_" y="0" width="396" height="98.8"/>
		</defs>
		<clipPath id="SVGID_82_">
			<use xlink:href="#SVGID_81_"  style="overflow:visible;"/>
		</clipPath>
		<path class="st40" d="M233.9,66.1c0,0.9-0.2,1.6-0.7,2c-0.4,0.4-1,0.6-1.7,0.6c-0.7,0-1.3-0.3-1.8-0.7c-0.3-0.3-0.5-0.8-0.6-1.4
			s-0.1-1.5-0.1-2.7c0-1.2,0-2.1,0.1-2.7c0.1-0.6,0.3-1.1,0.6-1.4c0.4-0.5,1-0.8,1.8-0.8c0.7,0,1.3,0.2,1.7,0.6
			c0.4,0.4,0.6,1.1,0.7,2.1h-1c0-0.6-0.1-1.1-0.4-1.3c-0.2-0.3-0.5-0.4-0.9-0.4c-0.4,0-0.7,0.1-1,0.4c-0.2,0.2-0.3,0.6-0.4,1.1
			c-0.1,0.5-0.1,1.3-0.1,2.4s0,1.9,0.1,2.4c0.1,0.5,0.2,0.9,0.4,1.1c0.2,0.3,0.5,0.4,1,0.4c0.4,0,0.7-0.1,0.9-0.4
			c0.3-0.3,0.4-0.7,0.4-1.3L233.9,66.1L233.9,66.1z"/>
	</g>
	<g>
		<defs>
			<rect id="SVGID_83_" y="0" width="396" height="98.8"/>
		</defs>
		<clipPath id="SVGID_84_">
			<use xlink:href="#SVGID_83_"  style="overflow:visible;"/>
		</clipPath>
		<path class="st41" d="M240.7,66.1c0,0.9-0.2,1.6-0.7,2c-0.4,0.4-1,0.6-1.7,0.6c-0.7,0-1.3-0.3-1.8-0.7c-0.3-0.3-0.5-0.8-0.6-1.4
			s-0.1-1.5-0.1-2.7c0-1.2,0-2.1,0.1-2.7c0.1-0.6,0.3-1.1,0.6-1.4c0.4-0.5,1-0.8,1.8-0.8c0.7,0,1.3,0.2,1.7,0.6
			c0.4,0.4,0.6,1.1,0.7,2.1h-1c0-0.6-0.1-1.1-0.4-1.3c-0.2-0.3-0.5-0.4-0.9-0.4c-0.4,0-0.7,0.1-1,0.4c-0.2,0.2-0.3,0.6-0.4,1.1
			s-0.1,1.3-0.1,2.4s0,1.9,0.1,2.4s0.2,0.9,0.4,1.1c0.2,0.3,0.5,0.4,1,0.4c0.4,0,0.7-0.1,0.9-0.4c0.3-0.3,0.4-0.7,0.4-1.3
			L240.7,66.1L240.7,66.1z"/>
	</g>
	<g>
		<defs>
			<rect id="SVGID_85_" y="0" width="396" height="98.8"/>
		</defs>
		<clipPath id="SVGID_86_">
			<use xlink:href="#SVGID_85_"  style="overflow:visible;"/>
		</clipPath>
		<polygon class="st42" points="248,68.6 247,68.6 247,61.3 244,68.6 243.1,68.6 243.1,59.1 244.1,59.1 244.1,66.3 247,59.1 
			248,59.1 		"/>
	</g>
	<g>
		<defs>
			<rect id="SVGID_87_" y="0" width="396" height="98.8"/>
		</defs>
		<clipPath id="SVGID_88_">
			<use xlink:href="#SVGID_87_"  style="overflow:visible;"/>
		</clipPath>
		<path class="st43" d="M255.8,68.5h-1v-7.2l-2.9,7.2h-1v-9.5h1v7.2l2.9-7.2h1L255.8,68.5L255.8,68.5z M255.4,55.8
			c-0.1,1.3-0.8,1.9-2.1,1.9c-1.3,0-2-0.6-2.1-1.9h0.9c0.1,0.8,0.5,1.1,1.2,1.1c0.7,0,1.1-0.4,1.2-1.1H255.4z"/>
	</g>
	<g>
		<defs>
			<rect id="SVGID_89_" y="0" width="396" height="98.8"/>
		</defs>
		<clipPath id="SVGID_90_">
			<use xlink:href="#SVGID_89_"  style="overflow:visible;"/>
		</clipPath>
		<path class="st44" d="M263.1,66.1c0,0.9-0.2,1.6-0.7,2c-0.4,0.4-1,0.6-1.7,0.6c-0.7,0-1.3-0.3-1.8-0.7c-0.3-0.3-0.5-0.8-0.6-1.4
			c-0.1-0.6-0.1-1.5-0.1-2.7c0-1.2,0-2.1,0.1-2.7c0.1-0.6,0.3-1.1,0.6-1.4c0.4-0.5,1-0.8,1.8-0.8c0.7,0,1.3,0.2,1.7,0.6
			c0.4,0.4,0.6,1.1,0.7,2.1h-1c0-0.6-0.1-1.1-0.4-1.3c-0.2-0.3-0.5-0.4-0.9-0.4c-0.4,0-0.7,0.1-1,0.4c-0.2,0.2-0.3,0.6-0.4,1.1
			c-0.1,0.5-0.1,1.3-0.1,2.4s0,1.9,0.1,2.4c0.1,0.5,0.2,0.9,0.4,1.1c0.2,0.3,0.5,0.4,1,0.4c0.4,0,0.7-0.1,0.9-0.4
			c0.3-0.3,0.4-0.7,0.4-1.3L263.1,66.1L263.1,66.1z"/>
	</g>
	<g>
		<defs>
			<rect id="SVGID_91_" y="0" width="396" height="98.8"/>
		</defs>
		<clipPath id="SVGID_92_">
			<use xlink:href="#SVGID_91_"  style="overflow:visible;"/>
		</clipPath>
		<path class="st45" d="M266.5,68.6h-1v-9.5h1V68.6z M270.7,68.6h-1.2l-3-4.9l2.9-4.6h1.2l-2.9,4.5L270.7,68.6z"/>
	</g>
	<g>
		<defs>
			<rect id="SVGID_93_" y="0" width="396" height="98.8"/>
		</defs>
		<clipPath id="SVGID_94_">
			<use xlink:href="#SVGID_93_"  style="overflow:visible;"/>
		</clipPath>
		<path class="st46" d="M276.8,61.1c0.1,0.6,0.1,1.5,0.1,2.7c0,1.2,0,2.1-0.1,2.7c-0.1,0.6-0.3,1.1-0.6,1.4c-0.4,0.5-1,0.7-1.8,0.7
			s-1.3-0.3-1.8-0.7c-0.3-0.3-0.5-0.8-0.6-1.4c-0.1-0.6-0.1-1.5-0.1-2.7c0-1.2,0-2.1,0.1-2.7c0.1-0.6,0.3-1.1,0.6-1.4
			c0.4-0.5,1-0.8,1.8-0.8s1.3,0.3,1.8,0.8C276.5,60,276.7,60.5,276.8,61.1 M275.8,66.2c0.1-0.5,0.1-1.3,0.1-2.4s0-1.9-0.1-2.4
			c-0.1-0.5-0.2-0.9-0.4-1.1c-0.2-0.3-0.5-0.4-0.9-0.4c-0.4,0-0.7,0.1-1,0.4c-0.2,0.2-0.3,0.6-0.4,1.1s-0.1,1.3-0.1,2.4
			c0,1.1,0,1.9,0.1,2.4c0.1,0.5,0.2,0.9,0.4,1.1c0.2,0.3,0.6,0.4,1,0.4c0.4,0,0.7-0.1,0.9-0.4C275.7,67.1,275.8,66.7,275.8,66.2"/>
	</g>
	<g>
		<defs>
			<rect id="SVGID_95_" y="0" width="396" height="98.8"/>
		</defs>
		<clipPath id="SVGID_96_">
			<use xlink:href="#SVGID_95_"  style="overflow:visible;"/>
		</clipPath>
		<rect x="279.3" y="62.9" class="st47" width="3.6" height="1"/>
	</g>
	<g>
		<defs>
			<rect id="SVGID_97_" y="0" width="396" height="98.8"/>
		</defs>
		<clipPath id="SVGID_98_">
			<use xlink:href="#SVGID_97_"  style="overflow:visible;"/>
		</clipPath>
		<polygon class="st48" points="290.2,56.3 286.8,56.3 286.8,68.5 285.7,68.5 285.7,55.3 290.2,55.3 		"/>
	</g>
	<g>
		<defs>
			<rect id="SVGID_99_" y="0" width="396" height="98.8"/>
		</defs>
		<clipPath id="SVGID_100_">
			<use xlink:href="#SVGID_99_"  style="overflow:visible;"/>
		</clipPath>
		<path class="st49" d="M296.9,64H293c0,1.1,0,1.8,0.1,2.3s0.2,0.8,0.4,1.1c0.2,0.3,0.6,0.4,0.9,0.4c0.4,0,0.7-0.1,1-0.4
			c0.3-0.3,0.4-0.7,0.4-1.3h1c0,0.9-0.2,1.5-0.7,2c-0.4,0.4-1,0.7-1.7,0.7c-0.7,0-1.3-0.2-1.7-0.7c-0.3-0.3-0.5-0.8-0.6-1.4
			c-0.1-0.6-0.2-1.6-0.2-2.7c0-1.2,0.1-2.1,0.2-2.8c0.1-0.6,0.3-1.1,0.6-1.4c0.4-0.5,1-0.7,1.7-0.7c0.7,0,1.3,0.2,1.7,0.7
			c0.3,0.3,0.5,0.8,0.6,1.5C296.8,61.7,296.9,62.7,296.9,64 M295.9,63.1c0-1.6-0.2-2.5-0.5-2.9c-0.2-0.3-0.5-0.4-0.9-0.4
			c-0.4,0-0.7,0.1-0.9,0.4c-0.3,0.3-0.5,1.3-0.5,2.9H295.9z"/>
	</g>
	<g>
		<defs>
			<rect id="SVGID_101_" y="0" width="396" height="98.8"/>
		</defs>
		<clipPath id="SVGID_102_">
			<use xlink:href="#SVGID_101_"  style="overflow:visible;"/>
		</clipPath>
		<path class="st50" d="M304,61c0.1,0.6,0.1,1.6,0.1,2.8c0,1.2,0,2.2-0.1,2.8c-0.1,0.6-0.3,1.1-0.6,1.4c-0.4,0.4-0.9,0.7-1.5,0.7
			c-0.4,0-0.8-0.1-1.1-0.3c-0.2-0.1-0.4-0.3-0.5-0.6v4.5h-1V59.1h1v0.8c0.1-0.2,0.3-0.4,0.5-0.6c0.3-0.2,0.7-0.3,1.1-0.3
			c0.6,0,1.1,0.2,1.5,0.7C303.7,59.9,303.9,60.4,304,61 M303,66.3c0.1-0.5,0.1-1.3,0.1-2.5c0-1.1,0-2-0.1-2.5s-0.2-0.9-0.4-1.1
			c-0.2-0.3-0.5-0.4-0.9-0.4c-0.4,0-0.7,0.1-0.9,0.4c-0.3,0.3-0.4,0.7-0.4,1.3v4.6c0,0.6,0.1,1,0.4,1.3c0.2,0.2,0.5,0.4,0.9,0.4
			c0.4,0,0.7-0.1,0.9-0.4C302.8,67.1,302.9,66.8,303,66.3"/>
	</g>
	<g>
		<defs>
			<rect id="SVGID_103_" y="0" width="396" height="98.8"/>
		</defs>
		<clipPath id="SVGID_104_">
			<use xlink:href="#SVGID_103_"  style="overflow:visible;"/>
		</clipPath>
		<polygon class="st51" points="313.1,68.6 312.1,68.6 312.1,61.4 310.2,65.9 309.5,65.9 307.6,61.4 307.6,68.6 306.6,68.6 
			306.6,59.1 307.6,59.1 309.8,64.6 312.1,59.1 313.1,59.1 		"/>
	</g>
	<g>
		<defs>
			<rect id="SVGID_105_" y="0" width="396" height="98.8"/>
		</defs>
		<clipPath id="SVGID_106_">
			<use xlink:href="#SVGID_105_"  style="overflow:visible;"/>
		</clipPath>
		<path class="st52" d="M320.2,68.6h-1v-0.9c-0.1,0.2-0.3,0.5-0.5,0.6c-0.3,0.2-0.7,0.4-1.1,0.4c-0.6,0-1.1-0.2-1.5-0.6
			c-0.4-0.4-0.6-1.2-0.6-2.1c0-0.9,0.3-1.7,0.8-2.1c0.5-0.4,1.1-0.6,1.9-0.6h1.1v-1.7c0-1.1-0.4-1.6-1.3-1.6c-0.3,0-0.6,0.1-0.9,0.4
			c-0.3,0.3-0.4,0.7-0.4,1.3h-1c0-0.8,0.2-1.5,0.7-2c0.4-0.4,1-0.6,1.6-0.6c0.8,0,1.3,0.2,1.7,0.6c0.4,0.5,0.7,1.1,0.7,2L320.2,68.6
			L320.2,68.6z M319.2,66.1V64h-1c-0.5,0-0.9,0.1-1.2,0.4c-0.3,0.3-0.5,0.8-0.5,1.5c0,1.2,0.4,1.9,1.3,1.9c0.4,0,0.7-0.2,1-0.5
			C319,67,319.2,66.6,319.2,66.1"/>
	</g>
	<g>
		<defs>
			<rect id="SVGID_107_" y="0" width="396" height="98.8"/>
		</defs>
		<clipPath id="SVGID_108_">
			<use xlink:href="#SVGID_107_"  style="overflow:visible;"/>
		</clipPath>
		<polygon class="st53" points="327.6,68.6 326.5,68.6 326.5,64.1 324,64.1 324,68.6 322.9,68.6 322.9,59.1 324,59.1 324,63.2 
			326.5,63.2 326.5,59.1 327.6,59.1 		"/>
	</g>
	<g>
		<defs>
			<rect id="SVGID_109_" y="0" width="396" height="98.8"/>
		</defs>
		<clipPath id="SVGID_110_">
			<use xlink:href="#SVGID_109_"  style="overflow:visible;"/>
		</clipPath>
		<path class="st54" d="M334.9,66.1c0,0.9-0.2,1.6-0.7,2c-0.4,0.4-1,0.6-1.7,0.6c-0.7,0-1.3-0.3-1.8-0.7c-0.3-0.3-0.5-0.8-0.6-1.4
			c-0.1-0.6-0.1-1.5-0.1-2.7c0-1.2,0-2.1,0.1-2.7c0.1-0.6,0.3-1.1,0.6-1.4c0.4-0.5,1-0.8,1.8-0.8c0.7,0,1.3,0.2,1.7,0.6
			c0.4,0.4,0.6,1.1,0.7,2.1h-1c0-0.6-0.1-1.1-0.4-1.3c-0.2-0.3-0.5-0.4-0.9-0.4c-0.4,0-0.7,0.1-1,0.4c-0.2,0.2-0.3,0.6-0.4,1.1
			s-0.1,1.3-0.1,2.4s0,1.9,0.1,2.4s0.2,0.9,0.4,1.1c0.2,0.3,0.5,0.4,1,0.4c0.4,0,0.7-0.1,0.9-0.4c0.3-0.3,0.4-0.7,0.4-1.3
			L334.9,66.1L334.9,66.1z"/>
	</g>
	<g>
		<defs>
			<rect id="SVGID_111_" y="0" width="396" height="98.8"/>
		</defs>
		<clipPath id="SVGID_112_">
			<use xlink:href="#SVGID_111_"  style="overflow:visible;"/>
		</clipPath>
		<path class="st55" d="M338.3,68.6h-1v-9.5h1V68.6z M342.5,68.6h-1.2l-3-4.9l2.9-4.6h1.2l-2.9,4.5L342.5,68.6z"/>
	</g>
	<g>
		<defs>
			<rect id="SVGID_113_" y="0" width="396" height="98.8"/>
		</defs>
		<clipPath id="SVGID_114_">
			<use xlink:href="#SVGID_113_"  style="overflow:visible;"/>
		</clipPath>
		<path class="st56" d="M348.6,68.6h-1v-0.9c-0.1,0.2-0.3,0.5-0.5,0.6c-0.3,0.2-0.7,0.4-1.1,0.4c-0.6,0-1.1-0.2-1.5-0.6
			c-0.4-0.4-0.6-1.2-0.6-2.1c0-0.9,0.3-1.7,0.8-2.1c0.5-0.4,1.1-0.6,1.9-0.6h1.1v-1.7c0-1.1-0.4-1.6-1.3-1.6c-0.3,0-0.6,0.1-0.9,0.4
			c-0.3,0.3-0.4,0.7-0.4,1.3h-1c0-0.8,0.2-1.5,0.7-2c0.4-0.4,1-0.6,1.6-0.6c0.8,0,1.3,0.2,1.7,0.6c0.4,0.5,0.7,1.1,0.7,2L348.6,68.6
			L348.6,68.6z M347.6,66.1V64h-1c-0.5,0-0.9,0.1-1.2,0.4c-0.3,0.3-0.5,0.8-0.5,1.5c0,1.2,0.4,1.9,1.3,1.9c0.4,0,0.7-0.2,1-0.5
			C347.4,67,347.6,66.6,347.6,66.1"/>
	</g>
	<g>
		<defs>
			<rect id="SVGID_115_" y="0" width="396" height="98.8"/>
		</defs>
		<clipPath id="SVGID_116_">
			<use xlink:href="#SVGID_115_"  style="overflow:visible;"/>
		</clipPath>
		<path class="st57" d="M355.5,68.5h-1v-4.1h-1.3l-1.4,4.1h-1.1l1.5-4.3c-0.8-0.4-1.2-1.2-1.2-2.5c0-1.8,0.8-2.7,2.3-2.7h2.2
			L355.5,68.5L355.5,68.5z M354.5,63.6V60h-1.1c-0.5,0-0.8,0.1-1,0.4c-0.2,0.3-0.3,0.7-0.3,1.4c0,1.2,0.4,1.8,1.3,1.8H354.5z"/>
	</g>
	<g>
		<defs>
			<rect id="SVGID_117_" y="0" width="396" height="98.8"/>
		</defs>
		<clipPath id="SVGID_118_">
			<use xlink:href="#SVGID_117_"  style="overflow:visible;"/>
		</clipPath>
		<path class="st58" d="M219.4,83.4c0,0.9-0.2,1.6-0.7,2.1c-0.4,0.4-1,0.6-1.9,0.6h-2.2v-9.5h2.1c0.9,0,1.5,0.2,1.9,0.6
			c0.4,0.4,0.6,1,0.6,1.9c0,0.8-0.2,1.3-0.7,1.7c-0.2,0.1-0.3,0.2-0.6,0.3c0.2,0.1,0.5,0.2,0.6,0.4
			C219.1,81.8,219.4,82.5,219.4,83.4 M218.2,79.1c0-0.6-0.1-1-0.4-1.2c-0.2-0.2-0.6-0.4-1.1-0.4h-1.1v3.2h1.1
			C217.7,80.7,218.2,80.2,218.2,79.1 M218.3,83.4c0-1.2-0.5-1.8-1.5-1.8h-1.1v3.6h1.1c0.5,0,0.9-0.1,1.2-0.4
			C218.2,84.5,218.3,84,218.3,83.4"/>
	</g>
	<g>
		<defs>
			<rect id="SVGID_119_" y="0" width="396" height="98.8"/>
		</defs>
		<clipPath id="SVGID_120_">
			<use xlink:href="#SVGID_119_"  style="overflow:visible;"/>
		</clipPath>
		<polygon class="st59" points="226.4,86.1 225.4,86.1 225.4,81.7 222.8,81.7 222.8,86.1 221.8,86.1 221.8,76.6 222.8,76.6 
			222.8,80.7 225.4,80.7 225.4,76.6 226.4,76.6 		"/>
	</g>
	<g>
		<defs>
			<rect id="SVGID_121_" y="0" width="396" height="98.8"/>
		</defs>
		<clipPath id="SVGID_122_">
			<use xlink:href="#SVGID_121_"  style="overflow:visible;"/>
		</clipPath>
		<path class="st60" d="M233.9,81.5H230c0,1.1,0,1.8,0.1,2.3s0.2,0.8,0.4,1.1c0.2,0.3,0.6,0.4,0.9,0.4c0.4,0,0.7-0.1,1-0.4
			c0.3-0.3,0.4-0.7,0.4-1.3h1c0,0.9-0.2,1.5-0.7,2c-0.4,0.4-1,0.7-1.7,0.7c-0.7,0-1.3-0.2-1.7-0.7c-0.3-0.3-0.5-0.8-0.6-1.4
			c-0.1-0.6-0.2-1.6-0.2-2.7c0-1.2,0.1-2.1,0.2-2.8c0.1-0.6,0.3-1.1,0.6-1.4c0.4-0.5,1-0.7,1.7-0.7c0.7,0,1.3,0.2,1.7,0.7
			c0.3,0.3,0.5,0.8,0.6,1.5C233.8,79.3,233.9,80.2,233.9,81.5 M232.8,80.7c0-1.6-0.2-2.5-0.5-2.9c-0.2-0.3-0.5-0.4-0.9-0.4
			c-0.4,0-0.7,0.1-0.9,0.4c-0.3,0.3-0.5,1.3-0.5,2.9H232.8z"/>
	</g>
	<g>
		<defs>
			<rect id="SVGID_123_" y="0" width="396" height="98.8"/>
		</defs>
		<clipPath id="SVGID_124_">
			<use xlink:href="#SVGID_123_"  style="overflow:visible;"/>
		</clipPath>
		<polygon class="st61" points="243.8,86.1 236.2,86.1 236.2,76.6 237.3,76.6 237.3,85.2 239.5,85.2 239.5,76.6 240.5,76.6 
			240.5,85.2 242.7,85.2 242.7,76.6 243.8,76.6 		"/>
	</g>
	<g>
		<defs>
			<rect id="SVGID_125_" y="0" width="396" height="98.8"/>
		</defs>
		<clipPath id="SVGID_126_">
			<use xlink:href="#SVGID_125_"  style="overflow:visible;"/>
		</clipPath>
		<polygon class="st62" points="251.2,86.1 250.2,86.1 250.2,81.7 247.6,81.7 247.6,86.1 246.6,86.1 246.6,76.6 247.6,76.6 
			247.6,80.7 250.2,80.7 250.2,76.6 251.2,76.6 		"/>
	</g>
	<g>
		<defs>
			<rect id="SVGID_127_" y="0" width="396" height="98.8"/>
		</defs>
		<clipPath id="SVGID_128_">
			<use xlink:href="#SVGID_127_"  style="overflow:visible;"/>
		</clipPath>
		<path class="st63" d="M258.6,81.5h-3.9c0,1.1,0,1.8,0.1,2.3c0.1,0.5,0.2,0.8,0.4,1.1c0.2,0.3,0.6,0.4,1,0.4c0.4,0,0.7-0.1,1-0.4
			c0.3-0.3,0.4-0.7,0.4-1.3h1c0,0.9-0.2,1.5-0.7,2c-0.4,0.4-1,0.7-1.7,0.7c-0.7,0-1.3-0.2-1.7-0.7c-0.3-0.3-0.5-0.8-0.6-1.4
			s-0.2-1.6-0.2-2.7c0-1.2,0.1-2.1,0.2-2.8c0.1-0.6,0.3-1.1,0.6-1.4c0.4-0.5,1-0.7,1.7-0.7c0.7,0,1.3,0.2,1.7,0.7
			c0.3,0.3,0.5,0.8,0.6,1.5C258.6,79.3,258.6,80.2,258.6,81.5 M257.6,80.7c0-1.6-0.2-2.5-0.5-2.9c-0.2-0.3-0.5-0.4-0.9-0.4
			c-0.4,0-0.7,0.1-0.9,0.4c-0.3,0.3-0.5,1.3-0.5,2.9H257.6z"/>
	</g>
	<g>
		<defs>
			<rect id="SVGID_129_" y="0" width="396" height="98.8"/>
		</defs>
		<clipPath id="SVGID_130_">
			<use xlink:href="#SVGID_129_"  style="overflow:visible;"/>
		</clipPath>
		<polygon class="st64" points="264.9,77.5 263,77.5 263,86.1 261.9,86.1 261.9,77.5 260.1,77.5 260.1,76.6 264.9,76.6 		"/>
	</g>
	<g>
		<defs>
			<rect id="SVGID_131_" y="0" width="396" height="98.8"/>
		</defs>
		<clipPath id="SVGID_132_">
			<use xlink:href="#SVGID_131_"  style="overflow:visible;"/>
		</clipPath>
		<path class="st65" d="M271.1,78.7c0.1,0.6,0.1,1.5,0.1,2.7s0,2.1-0.1,2.7c-0.1,0.6-0.3,1.1-0.6,1.4c-0.4,0.5-1,0.7-1.8,0.7
			s-1.3-0.3-1.8-0.7c-0.3-0.3-0.5-0.8-0.6-1.4c-0.1-0.6-0.1-1.5-0.1-2.7s0-2.1,0.1-2.7s0.3-1.1,0.6-1.4c0.4-0.5,1-0.8,1.8-0.8
			s1.3,0.3,1.8,0.8C270.9,77.6,271,78,271.1,78.7 M270.2,83.8c0.1-0.5,0.1-1.3,0.1-2.4c0-1.1,0-1.9-0.1-2.4
			c-0.1-0.5-0.2-0.9-0.4-1.1c-0.2-0.3-0.5-0.4-0.9-0.4c-0.4,0-0.7,0.1-1,0.4c-0.2,0.2-0.3,0.6-0.4,1.1c-0.1,0.5-0.1,1.3-0.1,2.4
			c0,1.1,0,1.9,0.1,2.4c0.1,0.5,0.2,0.9,0.4,1.1c0.2,0.3,0.6,0.4,1,0.4c0.4,0,0.7-0.1,0.9-0.4C270,84.6,270.1,84.3,270.2,83.8"/>
	</g>
	<g>
		<defs>
			<rect id="SVGID_133_" y="0" width="396" height="98.8"/>
		</defs>
		<clipPath id="SVGID_134_">
			<use xlink:href="#SVGID_133_"  style="overflow:visible;"/>
		</clipPath>
		<path class="st66" d="M278.4,78.5c0.1,0.6,0.1,1.6,0.1,2.8s0,2.2-0.1,2.8c-0.1,0.6-0.3,1.1-0.6,1.4c-0.4,0.4-0.9,0.7-1.5,0.7
			c-0.4,0-0.8-0.1-1.1-0.3c-0.2-0.1-0.4-0.3-0.5-0.6v4.5h-1V76.6h1v0.8c0.1-0.2,0.3-0.4,0.5-0.6c0.3-0.2,0.7-0.3,1.1-0.3
			c0.6,0,1.1,0.2,1.5,0.7C278.1,77.4,278.3,77.9,278.4,78.5 M277.4,83.8c0.1-0.5,0.1-1.3,0.1-2.4c0-1.1,0-2-0.1-2.4
			s-0.2-0.9-0.4-1.1c-0.2-0.3-0.5-0.4-0.9-0.4c-0.4,0-0.7,0.1-0.9,0.4c-0.3,0.3-0.4,0.7-0.4,1.3v4.6c0,0.6,0.1,1,0.4,1.3
			c0.2,0.2,0.5,0.4,0.9,0.4c0.4,0,0.7-0.1,0.9-0.4C277.3,84.7,277.4,84.3,277.4,83.8"/>
	</g>
	<g>
		<defs>
			<rect id="SVGID_135_" y="0" width="396" height="98.8"/>
		</defs>
		<clipPath id="SVGID_136_">
			<use xlink:href="#SVGID_135_"  style="overflow:visible;"/>
		</clipPath>
		<polygon class="st67" points="285,76.6 285,77.5 282.1,77.5 282.1,86.1 281,86.1 281,76.6 		"/>
	</g>
	<g>
		<defs>
			<rect id="SVGID_137_" y="0" width="396" height="98.8"/>
		</defs>
		<clipPath id="SVGID_138_">
			<use xlink:href="#SVGID_137_"  style="overflow:visible;"/>
		</clipPath>
		<path class="st68" d="M291.3,78.7c0.1,0.6,0.1,1.5,0.1,2.7s0,2.1-0.1,2.7c-0.1,0.6-0.3,1.1-0.6,1.4c-0.4,0.5-1,0.7-1.8,0.7
			s-1.3-0.3-1.8-0.7c-0.3-0.3-0.5-0.8-0.6-1.4c-0.1-0.6-0.1-1.5-0.1-2.7s0-2.1,0.1-2.7c0.1-0.6,0.3-1.1,0.6-1.4
			c0.4-0.5,1-0.8,1.8-0.8s1.3,0.3,1.8,0.8C291,77.6,291.2,78,291.3,78.7 M290.3,83.8c0.1-0.5,0.1-1.3,0.1-2.4c0-1.1,0-1.9-0.1-2.4
			c-0.1-0.5-0.2-0.9-0.4-1.1c-0.2-0.3-0.5-0.4-0.9-0.4c-0.4,0-0.7,0.1-0.9,0.4c-0.2,0.2-0.3,0.6-0.4,1.1c-0.1,0.5-0.1,1.3-0.1,2.4
			c0,1.1,0,1.9,0.1,2.4c0.1,0.5,0.2,0.9,0.4,1.1c0.2,0.3,0.6,0.4,0.9,0.4c0.4,0,0.7-0.1,0.9-0.4C290.1,84.6,290.2,84.3,290.3,83.8"
			/>
	</g>
	<g>
		<defs>
			<rect id="SVGID_139_" y="0" width="396" height="98.8"/>
		</defs>
		<clipPath id="SVGID_140_">
			<use xlink:href="#SVGID_139_"  style="overflow:visible;"/>
		</clipPath>
		<path class="st69" d="M298.6,83.4c0,0.9-0.2,1.6-0.7,2.1c-0.4,0.4-1,0.6-1.9,0.6h-2.2v-9.5h2.1c0.9,0,1.5,0.2,1.9,0.6
			c0.4,0.4,0.6,1,0.6,1.9c0,0.8-0.2,1.3-0.7,1.7c-0.2,0.1-0.3,0.2-0.6,0.3c0.2,0.1,0.5,0.2,0.6,0.4
			C298.4,81.8,298.6,82.5,298.6,83.4 M297.5,79.1c0-0.6-0.1-1-0.4-1.2s-0.6-0.4-1.1-0.4h-1.1v3.2h1.1
			C297,80.7,297.5,80.2,297.5,79.1 M297.6,83.4c0-1.2-0.5-1.8-1.5-1.8h-1.1v3.6h1.1c0.5,0,0.9-0.1,1.2-0.4
			C297.4,84.5,297.6,84,297.6,83.4"/>
	</g>
	<g>
		<defs>
			<rect id="SVGID_141_" y="0" width="396" height="98.8"/>
		</defs>
		<clipPath id="SVGID_142_">
			<use xlink:href="#SVGID_141_"  style="overflow:visible;"/>
		</clipPath>
		<path class="st70" d="M305.4,86.1h-1v-0.9c-0.1,0.2-0.3,0.5-0.5,0.6c-0.3,0.2-0.7,0.4-1.1,0.4c-0.6,0-1.1-0.2-1.5-0.6
			c-0.4-0.4-0.6-1.2-0.6-2.1c0-0.9,0.3-1.7,0.8-2.1c0.5-0.4,1.1-0.6,1.9-0.6h1.1V79c0-1.1-0.4-1.6-1.3-1.6c-0.3,0-0.6,0.1-0.9,0.4
			c-0.3,0.3-0.4,0.7-0.4,1.3h-1c0-0.8,0.2-1.5,0.7-2c0.4-0.4,1-0.6,1.6-0.6c0.8,0,1.3,0.2,1.7,0.6c0.4,0.5,0.7,1.1,0.7,2L305.4,86.1
			L305.4,86.1z M304.3,83.6v-2.1h-1c-0.5,0-0.9,0.1-1.2,0.4c-0.3,0.3-0.5,0.8-0.5,1.5c0,1.2,0.4,1.9,1.3,1.9c0.4,0,0.7-0.2,1-0.5
			C304.2,84.5,304.3,84.1,304.3,83.6"/>
	</g>
	<g>
		<defs>
			<rect id="SVGID_143_" y="0" width="396" height="98.8"/>
		</defs>
		<clipPath id="SVGID_144_">
			<use xlink:href="#SVGID_143_"  style="overflow:visible;"/>
		</clipPath>
		<path class="st71" d="M312.3,86.1h-1V82H310l-1.4,4.1h-1.1l1.5-4.3c-0.8-0.4-1.2-1.2-1.2-2.5c0-1.8,0.8-2.7,2.3-2.7h2.2
			L312.3,86.1L312.3,86.1z M311.2,81.1v-3.6h-1.1c-0.5,0-0.8,0.1-1,0.4c-0.2,0.3-0.3,0.7-0.3,1.4c0,1.2,0.4,1.8,1.3,1.8H311.2z"/>
	</g>
	<g>
		<defs>
			<rect id="SVGID_145_" y="0" width="396" height="98.8"/>
		</defs>
		<clipPath id="SVGID_146_">
			<use xlink:href="#SVGID_145_"  style="overflow:visible;"/>
		</clipPath>
		<polygon class="st72" points="323.8,86.1 322.8,86.1 322.8,77.5 320.2,77.5 320.2,86.1 319.2,86.1 319.2,76.6 323.8,76.6 		"/>
	</g>
	<g>
		<defs>
			<rect id="SVGID_147_" y="0" width="396" height="98.8"/>
		</defs>
		<clipPath id="SVGID_148_">
			<use xlink:href="#SVGID_147_"  style="overflow:visible;"/>
		</clipPath>
		<path class="st73" d="M331,86.1h-1v-0.9c-0.1,0.2-0.3,0.5-0.5,0.6c-0.3,0.2-0.7,0.4-1.1,0.4c-0.6,0-1.1-0.2-1.5-0.6
			c-0.4-0.4-0.6-1.2-0.6-2.1c0-0.9,0.3-1.7,0.8-2.1c0.5-0.4,1.1-0.6,1.9-0.6h1.1V79c0-1.1-0.4-1.6-1.3-1.6c-0.3,0-0.6,0.1-0.9,0.4
			c-0.3,0.3-0.4,0.7-0.4,1.3h-1c0-0.8,0.2-1.5,0.7-2c0.4-0.4,1-0.6,1.6-0.6c0.8,0,1.3,0.2,1.7,0.6c0.4,0.5,0.7,1.1,0.7,2L331,86.1
			L331,86.1z M329.9,83.6v-2.1h-1c-0.5,0-0.9,0.1-1.2,0.4c-0.3,0.3-0.5,0.8-0.5,1.5c0,1.2,0.4,1.9,1.3,1.9c0.4,0,0.7-0.2,1-0.5
			C329.8,84.5,329.9,84.1,329.9,83.6"/>
	</g>
	<g>
		<defs>
			<rect id="SVGID_149_" y="0" width="396" height="98.8"/>
		</defs>
		<clipPath id="SVGID_150_">
			<use xlink:href="#SVGID_149_"  style="overflow:visible;"/>
		</clipPath>
		<path class="st74" d="M338.6,86.1h-1v-8.6h-2.1v4.9c0,1.4-0.2,2.3-0.6,2.9c-0.4,0.5-1,0.8-1.7,0.8h-0.3v-0.9h0.2
			c0.2,0,0.4,0,0.5-0.1c0.1-0.1,0.3-0.2,0.5-0.4c0.2-0.2,0.3-0.5,0.4-0.9s0.1-1,0.1-1.6v-5.6h4.2L338.6,86.1L338.6,86.1z"/>
	</g>
	<g>
		<defs>
			<rect id="SVGID_151_" y="0" width="396" height="98.8"/>
		</defs>
		<clipPath id="SVGID_152_">
			<use xlink:href="#SVGID_151_"  style="overflow:visible;"/>
		</clipPath>
		<path class="st75" d="M345.7,86.1h-1v-0.9c-0.1,0.2-0.3,0.5-0.5,0.6c-0.3,0.2-0.7,0.4-1.1,0.4c-0.6,0-1.1-0.2-1.5-0.6
			c-0.4-0.4-0.6-1.2-0.6-2.1c0-0.9,0.3-1.7,0.8-2.1c0.5-0.4,1.1-0.6,1.9-0.6h1.1V79c0-1.1-0.4-1.6-1.3-1.6c-0.3,0-0.6,0.1-0.9,0.4
			c-0.3,0.3-0.4,0.7-0.4,1.3h-1c0-0.8,0.2-1.5,0.7-2c0.4-0.4,1-0.6,1.6-0.6c0.8,0,1.3,0.2,1.7,0.6c0.4,0.5,0.7,1.1,0.7,2L345.7,86.1
			L345.7,86.1z M344.6,83.6v-2.1h-1c-0.5,0-0.9,0.1-1.2,0.4c-0.3,0.3-0.5,0.8-0.5,1.5c0,1.2,0.4,1.9,1.3,1.9c0.4,0,0.7-0.2,1-0.5
			C344.5,84.5,344.6,84.1,344.6,83.6"/>
	</g>
	<g>
		<defs>
			<rect id="SVGID_153_" y="0" width="396" height="98.8"/>
		</defs>
		<clipPath id="SVGID_154_">
			<use xlink:href="#SVGID_153_"  style="overflow:visible;"/>
		</clipPath>
		<polygon class="st76" points="352.2,77.5 350.4,77.5 350.4,86.1 349.3,86.1 349.3,77.5 347.5,77.5 347.5,76.6 352.2,76.6 		"/>
	</g>
	<g>
		<defs>
			<rect id="SVGID_155_" y="0" width="396" height="98.8"/>
		</defs>
		<clipPath id="SVGID_156_">
			<use xlink:href="#SVGID_155_"  style="overflow:visible;"/>
		</clipPath>
		<path class="st77" d="M358.4,86.1h-1v-0.9c-0.1,0.2-0.3,0.5-0.5,0.6c-0.3,0.2-0.7,0.4-1.1,0.4c-0.6,0-1.1-0.2-1.5-0.6
			c-0.4-0.4-0.6-1.2-0.6-2.1c0-0.9,0.3-1.7,0.8-2.1c0.5-0.4,1.1-0.6,1.9-0.6h1.1V79c0-1.1-0.4-1.6-1.3-1.6c-0.3,0-0.6,0.1-0.9,0.4
			c-0.3,0.3-0.4,0.7-0.4,1.3h-1c0-0.8,0.2-1.5,0.7-2c0.4-0.4,1-0.6,1.6-0.6c0.8,0,1.3,0.2,1.7,0.6c0.4,0.5,0.7,1.1,0.7,2L358.4,86.1
			L358.4,86.1z M357.3,83.6v-2.1h-1c-0.5,0-0.9,0.1-1.2,0.4c-0.3,0.3-0.5,0.8-0.5,1.5c0,1.2,0.4,1.9,1.3,1.9c0.4,0,0.7-0.2,1-0.5
			C357.2,84.5,357.3,84.1,357.3,83.6"/>
	</g>
</g>
<g>
	<g>
		<defs>
			<rect id="SVGID_157_" y="0" width="199" height="98.8"/>
		</defs>
		<clipPath id="SVGID_158_">
			<use xlink:href="#SVGID_157_"  style="overflow:visible;"/>
		</clipPath>
		<path class="st78" d="M199.2-0.5H99.5c6.7,15.2,10.5,32,10.5,49.7s-3.7,34.5-10.5,49.7h99.8V-0.5z"/>
	</g>
	<g>
		<defs>
			<rect id="SVGID_159_" y="0" width="199" height="98.8"/>
		</defs>
		<clipPath id="SVGID_160_">
			<use xlink:href="#SVGID_159_"  style="overflow:visible;"/>
		</clipPath>
		<path class="st79" d="M99.5-0.5H-0.1v99.4h99.6c6.7-15.2,10.5-32,10.5-49.7C109.9,31.5,106.2,14.7,99.5-0.5"/>
	</g>
</g>
<g>
	<g>
		<defs>
			<rect id="SVGID_161_" x="78.8" y="58.8" width="11.5" height="25.1"/>
		</defs>
		<clipPath id="SVGID_162_">
			<use xlink:href="#SVGID_161_"  style="overflow:visible;"/>
		</clipPath>
		
			<linearGradient id="SVGID_163_" gradientUnits="userSpaceOnUse" x1="-382.3581" y1="395.0377" x2="-381.3581" y2="395.0377" gradientTransform="matrix(19.3034 -4.9739 4.9739 19.3034 5489.2578 -9453.1357)">
			<stop  offset="0" style="stop-color:#CA171E"/>
			<stop  offset="0.2483" style="stop-color:#CA171E"/>
			<stop  offset="1" style="stop-color:#EF3824"/>
		</linearGradient>
		<polygon class="st80" points="72.8,60.4 89.6,56 96.4,82.3 79.5,86.7 		"/>
	</g>
</g>
<g>
	<g>
		<defs>
			<polygon id="SVGID_164_" points="68.8,75.6 68.8,98.8 76.3,98.8 93.6,81.5 93.6,75.6 			"/>
		</defs>
		<clipPath id="SVGID_165_">
			<use xlink:href="#SVGID_164_"  style="overflow:visible;"/>
		</clipPath>
		
			<linearGradient id="SVGID_166_" gradientUnits="userSpaceOnUse" x1="-380.9792" y1="386.939" x2="-379.9792" y2="386.939" gradientTransform="matrix(24.7805 0 0 24.7805 9509.6865 -9501.3311)">
			<stop  offset="0" style="stop-color:#8F0507"/>
			<stop  offset="0.1539" style="stop-color:#8F0507"/>
			<stop  offset="0.912" style="stop-color:#CA171E"/>
			<stop  offset="1" style="stop-color:#CA171E"/>
		</linearGradient>
		<rect x="68.8" y="75.6" class="st81" width="24.8" height="23.3"/>
	</g>
</g>
<g>
	<g>
		<defs>
			<polygon id="SVGID_167_" points="76.3,98.8 93.6,98.8 93.6,81.5 			"/>
		</defs>
		<clipPath id="SVGID_168_">
			<use xlink:href="#SVGID_167_"  style="overflow:visible;"/>
		</clipPath>
		
			<linearGradient id="SVGID_169_" gradientUnits="userSpaceOnUse" x1="-398.1315" y1="390.1686" x2="-397.1315" y2="390.1686" gradientTransform="matrix(18.8193 -22.8045 22.8045 18.8193 -1323.8312 -16327.2119)">
			<stop  offset="0" style="stop-color:#8F0507"/>
			<stop  offset="0.1539" style="stop-color:#8F0507"/>
			<stop  offset="0.912" style="stop-color:#CA171E"/>
			<stop  offset="1" style="stop-color:#CA171E"/>
		</linearGradient>
		<polygon class="st82" points="67.7,91.8 83.3,73 102.1,88.5 86.6,107.4 		"/>
	</g>
</g>
<g>
	<g>
		<defs>
			<rect id="SVGID_170_" x="53.3" y="17.7" width="7.1" height="23"/>
		</defs>
		<clipPath id="SVGID_171_">
			<use xlink:href="#SVGID_170_"  style="overflow:visible;"/>
		</clipPath>
		
			<linearGradient id="SVGID_172_" gradientUnits="userSpaceOnUse" x1="-422.6277" y1="448.1232" x2="-421.6277" y2="448.1232" gradientTransform="matrix(2.8009 -6.1619 6.1619 2.8009 -1520.4109 -3830.7935)">
			<stop  offset="0" style="stop-color:#E14021"/>
			<stop  offset="0.2664" style="stop-color:#E14021"/>
			<stop  offset="0.912" style="stop-color:#F15A22"/>
			<stop  offset="1" style="stop-color:#F15A22"/>
		</linearGradient>
		<polygon class="st83" points="44.6,36.8 54.5,15 69.1,21.6 59.2,43.4 		"/>
	</g>
</g>
<g>
	<g>
		<defs>
			<path id="SVGID_173_" d="M56.4,5.4c-0.2,0.4-0.4,1.1-0.9,2c-0.9,1.9-4.8,3.6-4.9,6.3c0,1.3,0.7,2.4,1.4,3.2
				c0.6,0.7,1.2,1.1,1.2,1.1h0.1H55h0.9h1.6h2.7c0,0,0,0,0.1-0.1c0.4-0.3,2.5-2,2.4-4.2c0-1.7-1.6-3-3-4.2c-0.1-0.1-0.2-0.2-0.3-0.3
				C59.2,9.2,59.1,9.1,59,9c0,0-0.1-0.1-0.1-0.1c-0.4-0.4-0.8-0.8-1-1.1c-0.1-0.1-0.1-0.2-0.2-0.3c-0.2-0.3-0.3-0.6-0.4-0.9
				c-0.2-0.5-0.4-0.9-0.5-1.1c0-0.1-0.1-0.1-0.2-0.1C56.6,5.3,56.5,5.3,56.4,5.4"/>
		</defs>
		<clipPath id="SVGID_174_">
			<use xlink:href="#SVGID_173_"  style="overflow:visible;"/>
		</clipPath>
		
			<linearGradient id="SVGID_175_" gradientUnits="userSpaceOnUse" x1="-405.9759" y1="400.5993" x2="-404.9759" y2="400.5993" gradientTransform="matrix(7.8424 -16.3383 16.3383 7.8424 -3310.5461 -9750.6602)">
			<stop  offset="0" style="stop-color:#F15A22"/>
			<stop  offset="0.1114" style="stop-color:#F15A22"/>
			<stop  offset="0.6044" style="stop-color:#F7911E"/>
			<stop  offset="1" style="stop-color:#FDB515"/>
		</linearGradient>
		<polygon class="st84" points="45.7,15.6 52.9,0.6 67.6,7.7 60.4,22.6 		"/>
	</g>
</g>
<g>
	<g>
		<defs>
			<polygon id="SVGID_176_" points="53.3,25.3 39.9,68.1 51.4,68.1 68.4,51 60.4,25.3 			"/>
		</defs>
		<clipPath id="SVGID_177_">
			<use xlink:href="#SVGID_176_"  style="overflow:visible;"/>
		</clipPath>
		
			<linearGradient id="SVGID_178_" gradientUnits="userSpaceOnUse" x1="-422.4785" y1="380.2513" x2="-421.4785" y2="380.2513" gradientTransform="matrix(-9.9966 -17.7133 17.7133 -9.9966 -10888.6953 -3607.2957)">
			<stop  offset="0" style="stop-color:#D1181F"/>
			<stop  offset="0.2664" style="stop-color:#D1181F"/>
			<stop  offset="0.912" style="stop-color:#EF412E"/>
			<stop  offset="1" style="stop-color:#EF412E"/>
		</linearGradient>
		<polygon class="st85" points="46.8,80.3 21.6,35.6 61.6,13.1 86.7,57.7 		"/>
	</g>
</g>
<g>
	<g>
		<defs>
			<path id="SVGID_179_" d="M51.4,68.1h10.1c2.3-2.5,5.7-4.5,6.8-6.7c0.8-1.7,1.3-2.8,1.6-3.5c0.1-0.3,0.6-0.3,0.8,0L68.4,51
				L51.4,68.1z"/>
		</defs>
		<clipPath id="SVGID_180_">
			<use xlink:href="#SVGID_179_"  style="overflow:visible;"/>
		</clipPath>
		
			<linearGradient id="SVGID_181_" gradientUnits="userSpaceOnUse" x1="-376.3328" y1="391.3589" x2="-375.3327" y2="391.3589" gradientTransform="matrix(19.2092 0 0 19.2092 7280.4116 -7458.1621)">
			<stop  offset="0" style="stop-color:#D1181F"/>
			<stop  offset="0.2664" style="stop-color:#D1181F"/>
			<stop  offset="0.912" style="stop-color:#EF412E"/>
			<stop  offset="1" style="stop-color:#EF412E"/>
		</linearGradient>
		<rect x="51.4" y="51" class="st86" width="19.2" height="17.1"/>
	</g>
</g>
<g>
	<g>
		<defs>
			<rect id="SVGID_182_" x="39" y="67.7" width="34.8" height="31.1"/>
		</defs>
		<clipPath id="SVGID_183_">
			<use xlink:href="#SVGID_182_"  style="overflow:visible;"/>
		</clipPath>
		
			<linearGradient id="SVGID_184_" gradientUnits="userSpaceOnUse" x1="-399.9055" y1="398.7802" x2="-398.9055" y2="398.7802" gradientTransform="matrix(12.1012 -16.1349 16.1349 12.1012 -1547.4294 -11183.0518)">
			<stop  offset="0" style="stop-color:#8F0507"/>
			<stop  offset="0.1539" style="stop-color:#8F0507"/>
			<stop  offset="0.912" style="stop-color:#CA171E"/>
			<stop  offset="1" style="stop-color:#CA171E"/>
		</linearGradient>
		<polygon class="st87" points="24,87.6 51.5,51 88.7,78.9 61.2,115.5 		"/>
	</g>
</g>
<g>
	<g>
		<defs>
			<rect id="SVGID_185_" x="35.8" y="55.1" width="14.3" height="25.1"/>
		</defs>
		<clipPath id="SVGID_186_">
			<use xlink:href="#SVGID_185_"  style="overflow:visible;"/>
		</clipPath>
		
			<linearGradient id="SVGID_187_" gradientUnits="userSpaceOnUse" x1="-416.4412" y1="369.0824" x2="-415.4412" y2="369.0824" gradientTransform="matrix(-22.7993 -15.6087 15.6087 -22.7993 -15202.4014 1989.2594)">
			<stop  offset="0" style="stop-color:#AB1E57"/>
			<stop  offset="5.700000e-02" style="stop-color:#AB1E57"/>
			<stop  offset="1" style="stop-color:#C91B50"/>
		</linearGradient>
		<polygon class="st88" points="45.5,86.8 24.1,72.1 40.3,48.4 61.7,63.1 		"/>
	</g>
</g>
<g>
	<g>
		<defs>
			<rect id="SVGID_188_" x="63.9" y="71.6" width="12.5" height="25.1"/>
		</defs>
		<clipPath id="SVGID_189_">
			<use xlink:href="#SVGID_188_"  style="overflow:visible;"/>
		</clipPath>
		
			<linearGradient id="SVGID_190_" gradientUnits="userSpaceOnUse" x1="-365.2659" y1="401.7013" x2="-364.2659" y2="401.7013" gradientTransform="matrix(12.5102 0 0 12.5102 4633.4946 -4941.2231)">
			<stop  offset="0" style="stop-color:#EB3A23"/>
			<stop  offset="0.1114" style="stop-color:#EB3A23"/>
			<stop  offset="1" style="stop-color:#F15A22"/>
		</linearGradient>
		<rect x="63.9" y="71.6" class="st89" width="12.5" height="25.1"/>
	</g>
</g>
<g>
	<g>
		<defs>
			<polygon id="SVGID_191_" points="60.3,87.4 60.3,98.8 70.4,98.8 80.1,89.1 80.1,87.4 			"/>
		</defs>
		<clipPath id="SVGID_192_">
			<use xlink:href="#SVGID_191_"  style="overflow:visible;"/>
		</clipPath>
		
			<linearGradient id="SVGID_193_" gradientUnits="userSpaceOnUse" x1="-376.9812" y1="390.4989" x2="-375.9812" y2="390.4989" gradientTransform="matrix(19.8315 0 0 19.8315 7536.3862 -7651.0435)">
			<stop  offset="0" style="stop-color:#D71920"/>
			<stop  offset="0.1114" style="stop-color:#D71920"/>
			<stop  offset="1" style="stop-color:#EB3A23"/>
		</linearGradient>
		<rect x="60.3" y="87.4" class="st90" width="19.8" height="11.4"/>
	</g>
</g>
<g>
	<g>
		<defs>
			<polygon id="SVGID_194_" points="70.4,98.8 80.1,98.8 80.1,89.1 			"/>
		</defs>
		<clipPath id="SVGID_195_">
			<use xlink:href="#SVGID_194_"  style="overflow:visible;"/>
		</clipPath>
		
			<linearGradient id="SVGID_196_" gradientUnits="userSpaceOnUse" x1="-394.2252" y1="389.2555" x2="-393.2252" y2="389.2555" gradientTransform="matrix(24.133 -18.8193 18.8193 24.133 2262.3076 -16717.9961)">
			<stop  offset="0" style="stop-color:#D71920"/>
			<stop  offset="0.1114" style="stop-color:#D71920"/>
			<stop  offset="1" style="stop-color:#EB3A23"/>
		</linearGradient>
		<polygon class="st91" points="65.6,92.8 76.4,84.4 84.8,95.2 74.1,103.6 		"/>
	</g>
</g>
<g>
	<g>
		<defs>
			<path id="SVGID_197_" d="M84.2,39.3c-0.3,0.8-0.7,2-1.4,3.8c-1.4,3.5-7.9,6.7-8,11.8c-0.1,2.4,1.1,4.5,2.2,6c1,1.2,1.9,2,1.9,2
				h0.2h0.5l12.6-12.6C91.5,49,90.5,48,89.5,47c-0.2-0.2-0.4-0.4-0.5-0.5c-0.2-0.2-0.4-0.4-0.5-0.6c0-0.1-0.1-0.1-0.1-0.2
				c-0.7-0.7-1.2-1.4-1.6-2.1c-0.1-0.2-0.2-0.4-0.3-0.6c-0.2-0.6-0.5-1.2-0.6-1.6c-0.3-0.9-0.6-1.6-0.8-2.1
				c-0.1-0.2-0.2-0.3-0.4-0.3C84.4,39,84.3,39.1,84.2,39.3"/>
		</defs>
		<clipPath id="SVGID_198_">
			<use xlink:href="#SVGID_197_"  style="overflow:visible;"/>
		</clipPath>
		
			<linearGradient id="SVGID_199_" gradientUnits="userSpaceOnUse" x1="-383.2123" y1="420.7431" x2="-382.2123" y2="420.7431" gradientTransform="matrix(9.2045 -5.5544 5.5544 9.2045 1270.3588 -5948.2383)">
			<stop  offset="0" style="stop-color:#EF3824"/>
			<stop  offset="1" style="stop-color:#F58220"/>
		</linearGradient>
		<polygon class="st92" points="64.3,45.3 87.7,31.3 102.9,56.4 79.5,70.5 		"/>
	</g>
</g>
<g>
	<g>
		<defs>
			<path id="SVGID_200_" d="M79.7,62.7h2.1h1.4h2.6h4.3c0,0,0.1,0,0.1-0.1c0.7-0.6,4.1-3.7,4-7.8c0-1.8-0.8-3.3-1.9-4.7L79.7,62.7z"
				/>
		</defs>
		<clipPath id="SVGID_201_">
			<use xlink:href="#SVGID_200_"  style="overflow:visible;"/>
		</clipPath>
		
			<linearGradient id="SVGID_202_" gradientUnits="userSpaceOnUse" x1="-396.1214" y1="391.4164" x2="-395.1214" y2="391.4164" gradientTransform="matrix(19.9263 -19.4835 19.4835 19.9263 352.8279 -15459.627)">
			<stop  offset="0" style="stop-color:#EF3824"/>
			<stop  offset="1" style="stop-color:#F58220"/>
		</linearGradient>
		<polygon class="st93" points="73.4,56.3 87.2,42.7 100.7,56.6 86.9,70.1 		"/>
	</g>
</g>
<g>
	<g>
		<defs>
			<path id="SVGID_203_" d="M42.5,36c-0.3,0.8-0.9,2.1-1.8,4c-1.8,3.8-9.9,7.2-10.1,12.6c-0.1,2.6,1.4,4.9,2.8,6.4
				c0.7,0.8,1.4,1.4,1.9,1.7l15.3-15.3c-0.5-0.4-1-0.8-1.4-1.2c-0.2-0.2-0.5-0.4-0.7-0.6c-0.2-0.2-0.5-0.4-0.7-0.6
				c-0.1-0.1-0.1-0.1-0.2-0.2c-0.8-0.8-1.6-1.5-2.1-2.3c-0.1-0.2-0.3-0.4-0.4-0.6c-0.3-0.7-0.6-1.2-0.8-1.8c-0.4-1-0.7-1.7-1-2.3
				c-0.1-0.2-0.3-0.3-0.4-0.3C42.7,35.7,42.6,35.8,42.5,36"/>
		</defs>
		<clipPath id="SVGID_204_">
			<use xlink:href="#SVGID_203_"  style="overflow:visible;"/>
		</clipPath>
		
			<linearGradient id="SVGID_205_" gradientUnits="userSpaceOnUse" x1="-422.2189" y1="368.8007" x2="-421.2189" y2="368.8007" gradientTransform="matrix(-17.3625 -12.4519 12.4519 -17.3625 -11867.3486 1205.0021)">
			<stop  offset="0" style="stop-color:#C11755"/>
			<stop  offset="5.700000e-02" style="stop-color:#C11755"/>
			<stop  offset="1" style="stop-color:#E52B63"/>
		</linearGradient>
		<polygon class="st94" points="43.8,70.3 18.7,52.3 37.3,26.3 62.4,44.3 		"/>
	</g>
</g>
<g>
	<g>
		<defs>
			<path id="SVGID_206_" d="M35.3,60.8c0.3,0.2,0.5,0.4,0.5,0.4h0.3h3.3h1.8h3.3H50c0,0,0.1,0,0.2-0.1c0.9-0.6,5.1-4,5-8.4
				c-0.1-2.8-2.3-5.1-4.7-7.1L35.3,60.8z"/>
		</defs>
		<clipPath id="SVGID_207_">
			<use xlink:href="#SVGID_206_"  style="overflow:visible;"/>
		</clipPath>
		
			<linearGradient id="SVGID_208_" gradientUnits="userSpaceOnUse" x1="-377.0832" y1="390.6576" x2="-376.0832" y2="390.6576" gradientTransform="matrix(19.9331 0 0 19.9331 7551.7373 -7733.6636)">
			<stop  offset="0" style="stop-color:#C11755"/>
			<stop  offset="5.700000e-02" style="stop-color:#C11755"/>
			<stop  offset="1" style="stop-color:#E52B63"/>
		</linearGradient>
		<rect x="35.3" y="45.5" class="st95" width="20" height="15.6"/>
	</g>
</g>
<g>
	<g>
		<defs>
			<path id="SVGID_209_" d="M62.9,79.1c0.6,0.5,1,0.8,1,0.8h0.3h2.9h1.6h2.9h4.8c0,0,0.1,0,0.2-0.1c0.8-0.6,4.5-3.5,4.4-7.4
				c-0.1-2.7-2.4-4.8-4.7-6.8L62.9,79.1z"/>
		</defs>
		<clipPath id="SVGID_210_">
			<use xlink:href="#SVGID_209_"  style="overflow:visible;"/>
		</clipPath>
		
			<linearGradient id="SVGID_211_" gradientUnits="userSpaceOnUse" x1="-401.4779" y1="390.5601" x2="-400.4779" y2="390.5601" gradientTransform="matrix(14.0043 -24.7409 24.7409 14.0043 -3976.5259 -15315.251)">
			<stop  offset="0" style="stop-color:#F15A22"/>
			<stop  offset="0.1114" style="stop-color:#F15A22"/>
			<stop  offset="0.6044" style="stop-color:#F7911E"/>
			<stop  offset="1" style="stop-color:#FDB515"/>
		</linearGradient>
		<polygon class="st96" points="56.8,76.5 67.3,57.8 87.3,69.1 76.7,87.8 		"/>
	</g>
</g>
<g>
	<g>
		<defs>
			<path id="SVGID_212_" d="M69.8,57.8c-0.3,0.7-0.8,1.9-1.6,3.5c-1,2.2-4.5,4.2-6.8,6.7c-1.2,1.3-2.1,2.7-2.1,4.4
				c-0.1,2.3,1.2,4.3,2.5,5.6c0.4,0.4,0.7,0.7,1,1l13.4-13.4c-0.2-0.2-0.5-0.4-0.7-0.6c-0.2-0.2-0.4-0.3-0.6-0.5
				c-0.2-0.2-0.4-0.4-0.6-0.5c-0.1,0-0.1-0.1-0.2-0.1c-0.7-0.7-1.4-1.3-1.8-2c-0.1-0.2-0.2-0.4-0.3-0.5c-0.3-0.6-0.5-1.1-0.7-1.6
				c-0.4-0.9-0.7-1.5-0.8-2c0,0,0,0,0,0c-0.1-0.1-0.2-0.2-0.4-0.2C70,57.6,69.9,57.6,69.8,57.8"/>
		</defs>
		<clipPath id="SVGID_213_">
			<use xlink:href="#SVGID_212_"  style="overflow:visible;"/>
		</clipPath>
		
			<linearGradient id="SVGID_214_" gradientUnits="userSpaceOnUse" x1="-399.7141" y1="395.3962" x2="-398.7141" y2="395.3962" gradientTransform="matrix(13.727 -18.5979 18.5979 13.727 -1812.1913 -12775.0439)">
			<stop  offset="0" style="stop-color:#F15A22"/>
			<stop  offset="0.1114" style="stop-color:#F15A22"/>
			<stop  offset="0.6044" style="stop-color:#F7911E"/>
			<stop  offset="1" style="stop-color:#FDB515"/>
		</linearGradient>
		<polygon class="st97" points="49,71.5 65.3,49.4 86.6,65.2 70.3,87.2 		"/>
	</g>
</g>
<g>
	<g>
		<defs>
			<polygon id="SVGID_215_" points="31.8,75.6 31.8,98.8 36.3,98.8 54.5,80.7 54.5,75.6 			"/>
		</defs>
		<clipPath id="SVGID_216_">
			<use xlink:href="#SVGID_215_"  style="overflow:visible;"/>
		</clipPath>
		
			<linearGradient id="SVGID_217_" gradientUnits="userSpaceOnUse" x1="-398.5399" y1="395.4168" x2="-397.5399" y2="395.4168" gradientTransform="matrix(14.834 -18.1551 18.1551 14.834 -1232.4713 -13003.2451)">
			<stop  offset="0" style="stop-color:#712C53"/>
			<stop  offset="0.4716" style="stop-color:#842F53"/>
			<stop  offset="0.9948" style="stop-color:#A12057"/>
			<stop  offset="1" style="stop-color:#A12057"/>
		</linearGradient>
		<polygon class="st98" points="20.4,89.5 40.9,64.4 65.9,84.9 45.4,110 		"/>
	</g>
</g>
<g>
	<g>
		<defs>
			<polygon id="SVGID_218_" points="36.3,98.8 54.5,98.8 54.5,80.7 			"/>
		</defs>
		<clipPath id="SVGID_219_">
			<use xlink:href="#SVGID_218_"  style="overflow:visible;"/>
		</clipPath>
		
			<linearGradient id="SVGID_220_" gradientUnits="userSpaceOnUse" x1="-394.0636" y1="393.4157" x2="-393.0636" y2="393.4157" gradientTransform="matrix(19.2621 -15.7196 15.7196 19.2621 1447.7291 -13679.6533)">
			<stop  offset="0" style="stop-color:#712C53"/>
			<stop  offset="0.4716" style="stop-color:#842F53"/>
			<stop  offset="0.9948" style="stop-color:#A12057"/>
			<stop  offset="1" style="stop-color:#A12057"/>
		</linearGradient>
		<polygon class="st99" points="27.4,87.9 47.2,71.7 63.4,91.6 43.6,107.8 		"/>
	</g>
</g>
<g>
	<g>
		<defs>
			<rect id="SVGID_221_" x="17.8" y="71.5" width="14.3" height="25.1"/>
		</defs>
		<clipPath id="SVGID_222_">
			<use xlink:href="#SVGID_221_"  style="overflow:visible;"/>
		</clipPath>
		
			<linearGradient id="SVGID_223_" gradientUnits="userSpaceOnUse" x1="-399.7177" y1="428.6882" x2="-398.7177" y2="428.6882" gradientTransform="matrix(6.1993 -7.3063 7.3063 6.1993 -623.5966 -5500.6011)">
			<stop  offset="0" style="stop-color:#007D9F"/>
			<stop  offset="1" style="stop-color:#009EBD"/>
		</linearGradient>
		<polygon class="st100" points="5.4,86.1 23.8,64.5 44.4,82 26.1,103.6 		"/>
	</g>
</g>
<g>
	<g>
		<defs>
			<rect id="SVGID_224_" x="15" y="86.1" width="19.8" height="12.7"/>
		</defs>
		<clipPath id="SVGID_225_">
			<use xlink:href="#SVGID_224_"  style="overflow:visible;"/>
		</clipPath>
		
			<linearGradient id="SVGID_226_" gradientUnits="userSpaceOnUse" x1="-400.8759" y1="400.5309" x2="-399.8759" y2="400.5309" gradientTransform="matrix(10.8488 -15.2768 15.2768 10.8488 -1752.5322 -10366.1396)">
			<stop  offset="0" style="stop-color:#00759E"/>
			<stop  offset="5.700000e-02" style="stop-color:#00759E"/>
			<stop  offset="1" style="stop-color:#1A8AAF"/>
		</linearGradient>
		<polygon class="st101" points="9,94.6 21.7,76.7 40.8,90.4 28.2,108.2 		"/>
	</g>
</g>
<g>
	<g>
		<defs>
			<path id="SVGID_227_" d="M14.8,76.2c0.1,0.1,0.2,0.3,0.3,0.4c1.3,1.4,2.4,2.2,2.4,2.2h0.3h3.4h1.9h3.4h5.6c0,0,0.1,0,0.2-0.1
				c0.9-0.7,5.3-4.1,5.1-8.6c-0.1-3.5-3.4-6.1-6.3-8.6c-0.2-0.2-0.5-0.4-0.7-0.6c-0.1-0.1-0.1-0.1-0.2-0.2L14.8,76.2z"/>
		</defs>
		<clipPath id="SVGID_228_">
			<use xlink:href="#SVGID_227_"  style="overflow:visible;"/>
		</clipPath>
		
			<linearGradient id="SVGID_229_" gradientUnits="userSpaceOnUse" x1="-390.8052" y1="426.2814" x2="-389.8052" y2="426.2814" gradientTransform="matrix(7.5277 -6.4207 6.4207 7.5277 230.3 -5647.8193)">
			<stop  offset="0" style="stop-color:#0090AE"/>
			<stop  offset="1" style="stop-color:#3FADCD"/>
		</linearGradient>
		<polygon class="st102" points="5.9,68.3 28,49.4 46.5,71.1 24.4,90 		"/>
	</g>
</g>
<g>
	<g>
		<defs>
			<path id="SVGID_230_" d="M24.4,53c-0.3,0.9-0.9,2.2-1.8,4.1C20.8,61,12.4,64.4,12.3,70c-0.1,2.5,1.2,4.6,2.6,6.2l15.5-15.5
				c-0.2-0.2-0.4-0.3-0.5-0.5c-0.1-0.1-0.1-0.1-0.2-0.2c-0.9-0.8-1.6-1.5-2.1-2.3c-0.1-0.2-0.3-0.4-0.4-0.6
				c-0.3-0.7-0.6-1.3-0.8-1.8c-0.4-1-0.8-1.8-1-2.3c-0.1-0.2-0.3-0.3-0.5-0.3S24.5,52.8,24.4,53"/>
		</defs>
		<clipPath id="SVGID_231_">
			<use xlink:href="#SVGID_230_"  style="overflow:visible;"/>
		</clipPath>
		
			<linearGradient id="SVGID_232_" gradientUnits="userSpaceOnUse" x1="-374.9999" y1="392.6051" x2="-373.9999" y2="392.6051" gradientTransform="matrix(18.0454 0 0 18.0454 6779.3052 -7020.2861)">
			<stop  offset="0" style="stop-color:#009EBD"/>
			<stop  offset="1" style="stop-color:#3FADCD"/>
		</linearGradient>
		<rect x="12.2" y="52.7" class="st103" width="18.1" height="23.5"/>
	</g>
</g>
<g>
	<g>
		<defs>
			<rect id="SVGID_233_" y="0" width="199" height="98.8"/>
		</defs>
		<clipPath id="SVGID_234_">
			<use xlink:href="#SVGID_233_"  style="overflow:visible;"/>
		</clipPath>
		<path class="st104" d="M199,76h-25.7l-3.2-3.8c-0.2-0.2-0.4-0.3-0.7-0.2c-0.3,0.1-0.5,0.3-0.5,0.5l-3.1,14l-2.6-52.2
			c0-0.4-0.3-0.6-0.7-0.7c-0.4,0-0.7,0.3-0.7,0.6L157.2,79l-2.8-3.7c-0.1-0.2-0.3-0.3-0.6-0.3h-154v1.4h153.6l3.6,4.8
			c0.2,0.2,0.5,0.3,0.7,0.3c0.3-0.1,0.5-0.3,0.5-0.6l3.9-37.6l2.4,48.5c0,0.3,0.3,0.6,0.6,0.7c0,0,0,0,0.1,0c0.3,0,0.6-0.2,0.7-0.5
			l3.9-17.7l2.5,3c0.1,0.2,0.3,0.2,0.5,0.2h26L199,76L199,76z"/>
	</g>
</g>
</svg>
