<?xml version="1.0" encoding="utf-8"?>
<!-- Generator: Adobe Illustrator 15.0.0, SVG Export Plug-In . SVG Version: 6.00 Build 0)  -->
<!DOCTYPE svg PUBLIC "-//W3C//DTD SVG 1.1//EN" "http://www.w3.org/Graphics/SVG/1.1/DTD/svg11.dtd">
<svg version="1.1" id="Layer_1" xmlns="http://www.w3.org/2000/svg" xmlns:xlink="http://www.w3.org/1999/xlink" x="0px" y="0px"
	 width="396.013px" height="98.844px" viewBox="0 0 396.013 98.844" enable-background="new 0 0 396.013 98.844"
	 xml:space="preserve">
<g>
	<defs>
		<rect id="SVGID_1_" width="396.013" height="98.844"/>
	</defs>
	<clipPath id="SVGID_2_">
		<use xlink:href="#SVGID_1_"  overflow="visible"/>
	</clipPath>
	<path clip-path="url(#SVGID_2_)" d="M221.315,17.673c0.112,0.764,0.168,1.991,0.168,3.68s-0.056,2.922-0.168,3.698
		c-0.111,0.776-0.379,1.394-0.801,1.853c-0.646,0.733-1.503,1.099-2.57,1.099h-3.373V14.739h3.373c1.067,0,1.925,0.366,2.57,1.099
		C220.937,16.298,221.204,16.91,221.315,17.673 M219.397,21.353c0-1.292-0.028-2.242-0.084-2.851
		c-0.056-0.608-0.178-1.055-0.363-1.341c-0.236-0.36-0.591-0.54-1.062-0.54h-1.23v9.501h1.23c0.471,0,0.825-0.18,1.062-0.54
		c0.186-0.286,0.308-0.736,0.363-1.351C219.369,23.616,219.397,22.657,219.397,21.353"/>
	<path clip-path="url(#SVGID_2_)" d="M229.457,23.663h-4.061c0,1.241,0.099,2.018,0.298,2.328c0.174,0.261,0.428,0.391,0.764,0.391
		c0.322,0,0.57-0.124,0.745-0.372c0.161-0.199,0.242-0.497,0.242-0.895h1.974c-0.036,0.957-0.315,1.708-0.837,2.255
		c-0.485,0.521-1.193,0.782-2.124,0.782c-0.894,0-1.603-0.267-2.124-0.801c-0.373-0.385-0.618-0.925-0.736-1.621
		c-0.117-0.695-0.176-1.577-0.176-2.645c0-1.068,0.059-1.95,0.176-2.646c0.118-0.695,0.363-1.235,0.736-1.621
		c0.509-0.521,1.211-0.782,2.105-0.782c0.881,0,1.583,0.261,2.104,0.782c0.361,0.361,0.603,0.926,0.728,1.696
		C229.395,21.284,229.457,22.334,229.457,23.663 M227.482,22.209c0-1.081-0.094-1.757-0.279-2.031
		c-0.187-0.261-0.44-0.39-0.764-0.39s-0.577,0.129-0.764,0.39c-0.187,0.274-0.279,0.95-0.279,2.031H227.482z"/>
	<path clip-path="url(#SVGID_2_)" d="M237.394,28.003h-1.882v-0.745c-0.212,0.286-0.436,0.491-0.672,0.615
		c-0.311,0.186-0.639,0.279-0.987,0.279c-0.757,0-1.354-0.254-1.788-0.763c-0.372-0.423-0.559-1.131-0.559-2.124v-7.08h1.975v7.061
		c0,0.372,0.09,0.655,0.271,0.848c0.18,0.193,0.413,0.288,0.699,0.288c0.285,0,0.518-0.095,0.697-0.288
		c0.181-0.193,0.271-0.476,0.271-0.848v-7.061h1.976V28.003z"/>
	<path clip-path="url(#SVGID_2_)" d="M243.597,28.003c-1.081,0-1.875-0.198-2.385-0.596c-0.658-0.522-0.987-1.316-0.987-2.384
		v-5.068h-1.006v-1.509h1.006V15.67h1.975v2.776h1.36v1.509h-1.36v4.956c0,0.882,0.466,1.322,1.397,1.322V28.003z"/>
	<path clip-path="url(#SVGID_2_)" d="M251.029,25.171c0,0.87-0.291,1.596-0.875,2.18c-0.534,0.534-1.248,0.8-2.143,0.8
		c-0.932,0-1.651-0.266-2.161-0.8c-0.584-0.609-0.875-1.348-0.875-2.217h1.956c0,0.397,0.111,0.707,0.335,0.931
		c0.187,0.199,0.435,0.298,0.745,0.298s0.564-0.093,0.764-0.279c0.187-0.162,0.279-0.422,0.279-0.783
		c0-0.285-0.068-0.527-0.204-0.726c-0.149-0.223-0.404-0.41-0.764-0.559l-1.305-0.577c-0.671-0.299-1.149-0.678-1.435-1.137
		c-0.211-0.336-0.316-0.782-0.316-1.341c0-0.808,0.285-1.509,0.856-2.106c0.547-0.546,1.254-0.819,2.124-0.819
		c0.857,0,1.547,0.248,2.068,0.745c0.559,0.534,0.838,1.261,0.838,2.18h-1.938c0-0.398-0.094-0.696-0.279-0.895
		c-0.187-0.198-0.417-0.298-0.689-0.298c-0.298,0-0.54,0.093-0.727,0.28c-0.187,0.186-0.279,0.435-0.279,0.745
		c0,0.236,0.049,0.428,0.148,0.577c0.137,0.224,0.379,0.41,0.728,0.559l1.304,0.559c0.671,0.298,1.148,0.659,1.435,1.081
		C250.894,23.955,251.029,24.489,251.029,25.171"/>
	<path clip-path="url(#SVGID_2_)" d="M258.706,25.115c-0.062,1.031-0.348,1.801-0.857,2.311c-0.483,0.484-1.18,0.726-2.086,0.726
		c-1.056,0-1.832-0.348-2.329-1.043c-0.459-0.621-0.688-1.962-0.688-4.024c0-2.037,0.229-3.379,0.688-4.025
		c0.497-0.682,1.273-1.024,2.329-1.024c0.868,0,1.558,0.236,2.068,0.708c0.521,0.496,0.813,1.267,0.875,2.309h-1.956
		c-0.025-0.421-0.112-0.726-0.262-0.912c-0.161-0.235-0.402-0.354-0.726-0.354c-0.336,0-0.59,0.137-0.764,0.41
		c-0.188,0.323-0.279,1.285-0.279,2.888c0,1.602,0.092,2.571,0.279,2.905c0.161,0.262,0.415,0.392,0.764,0.392
		c0.323,0,0.564-0.112,0.726-0.335c0.149-0.211,0.236-0.522,0.262-0.932H258.706z"/>
	<path clip-path="url(#SVGID_2_)" d="M266.585,28.003h-1.976v-7.061c0-0.372-0.09-0.654-0.27-0.847
		c-0.181-0.193-0.413-0.289-0.698-0.289s-0.519,0.096-0.699,0.289c-0.18,0.193-0.27,0.475-0.27,0.847v7.061h-1.975V14.739h1.975
		v4.079c0.161-0.223,0.354-0.397,0.577-0.521c0.285-0.173,0.615-0.261,0.987-0.261c0.758,0,1.354,0.255,1.789,0.764
		c0.372,0.423,0.559,1.13,0.559,2.124V28.003z"/>
	<rect x="268.876" y="21.687" clip-path="url(#SVGID_2_)" width="3.764" height="1.882"/>
	<path clip-path="url(#SVGID_2_)" d="M282.289,28.003h-2.179l-1.732-5.44h-1.175v5.44h-2.086V14.739h3.354
		c1.205,0,2.07,0.308,2.6,0.922c0.527,0.615,0.791,1.612,0.791,2.99c0,0.882-0.114,1.603-0.344,2.162
		c-0.23,0.558-0.631,0.994-1.203,1.303L282.289,28.003z M279.514,20.15c0.175-0.354,0.262-0.854,0.262-1.5
		c0-0.645-0.087-1.145-0.262-1.5c-0.174-0.353-0.515-0.53-1.023-0.53h-1.287v4.061h1.287
		C278.999,20.682,279.34,20.504,279.514,20.15"/>
	<path clip-path="url(#SVGID_2_)" d="M290.021,28.003h-1.883v-0.745c-0.211,0.286-0.435,0.491-0.671,0.615
		c-0.311,0.186-0.639,0.279-0.987,0.279c-0.757,0-1.354-0.254-1.788-0.763c-0.372-0.423-0.559-1.131-0.559-2.124v-7.08h1.975v7.061
		c0,0.372,0.09,0.655,0.271,0.848c0.18,0.193,0.412,0.288,0.698,0.288s0.519-0.095,0.698-0.288c0.181-0.193,0.271-0.476,0.271-0.848
		v-7.061h1.976V28.003z"/>
	<path clip-path="url(#SVGID_2_)" d="M298.05,25.171c0,0.87-0.291,1.596-0.876,2.18c-0.534,0.534-1.247,0.8-2.142,0.8
		c-0.932,0-1.652-0.266-2.161-0.8c-0.584-0.609-0.875-1.348-0.875-2.217h1.956c0,0.397,0.11,0.707,0.334,0.931
		c0.188,0.199,0.436,0.298,0.746,0.298s0.564-0.093,0.764-0.279c0.187-0.162,0.279-0.422,0.279-0.783
		c0-0.285-0.068-0.527-0.204-0.726c-0.149-0.223-0.404-0.41-0.764-0.559l-1.305-0.577c-0.671-0.299-1.149-0.678-1.435-1.137
		c-0.211-0.336-0.316-0.782-0.316-1.341c0-0.808,0.285-1.509,0.856-2.106c0.546-0.546,1.254-0.819,2.124-0.819
		c0.856,0,1.546,0.248,2.067,0.745c0.56,0.534,0.838,1.261,0.838,2.18h-1.937c0-0.398-0.094-0.696-0.279-0.895
		c-0.187-0.198-0.417-0.298-0.689-0.298c-0.298,0-0.54,0.093-0.727,0.28c-0.187,0.186-0.279,0.435-0.279,0.745
		c0,0.236,0.049,0.428,0.148,0.577c0.137,0.224,0.379,0.41,0.727,0.559l1.305,0.559c0.67,0.298,1.148,0.659,1.434,1.081
		C297.914,23.955,298.05,24.489,298.05,25.171"/>
	<path clip-path="url(#SVGID_2_)" d="M305.651,25.171c0,0.87-0.291,1.596-0.876,2.18c-0.534,0.534-1.247,0.8-2.142,0.8
		c-0.932,0-1.652-0.266-2.161-0.8c-0.584-0.609-0.875-1.348-0.875-2.217h1.956c0,0.397,0.11,0.707,0.334,0.931
		c0.188,0.199,0.436,0.298,0.746,0.298c0.31,0,0.564-0.093,0.764-0.279c0.187-0.162,0.279-0.422,0.279-0.783
		c0-0.285-0.068-0.527-0.204-0.726c-0.15-0.223-0.404-0.41-0.764-0.559l-1.305-0.577c-0.671-0.299-1.148-0.678-1.435-1.137
		c-0.212-0.336-0.316-0.782-0.316-1.341c0-0.808,0.285-1.509,0.856-2.106c0.546-0.546,1.254-0.819,2.124-0.819
		c0.856,0,1.546,0.248,2.067,0.745c0.56,0.534,0.838,1.261,0.838,2.18h-1.937c0-0.398-0.094-0.696-0.28-0.895
		c-0.186-0.198-0.416-0.298-0.688-0.298c-0.299,0-0.54,0.093-0.727,0.28c-0.187,0.186-0.279,0.435-0.279,0.745
		c0,0.236,0.049,0.428,0.148,0.577c0.137,0.224,0.379,0.41,0.727,0.559l1.305,0.559c0.67,0.298,1.148,0.659,1.434,1.081
		C305.516,23.955,305.651,24.489,305.651,25.171"/>
	<path clip-path="url(#SVGID_2_)" d="M309.731,16.937h-2.181v-2.18h2.181V16.937z M309.638,28.003h-1.975v-9.557h1.975V28.003z"/>
	<path clip-path="url(#SVGID_2_)" d="M317.668,25.171c0,0.87-0.292,1.596-0.876,2.18c-0.534,0.534-1.247,0.8-2.143,0.8
		c-0.931,0-1.651-0.266-2.16-0.8c-0.585-0.609-0.876-1.348-0.876-2.217h1.957c0,0.397,0.11,0.707,0.334,0.931
		c0.188,0.199,0.435,0.298,0.745,0.298s0.565-0.093,0.764-0.279c0.188-0.162,0.28-0.422,0.28-0.783c0-0.285-0.069-0.527-0.205-0.726
		c-0.149-0.223-0.403-0.41-0.764-0.559l-1.304-0.577c-0.672-0.299-1.149-0.678-1.436-1.137c-0.211-0.336-0.315-0.782-0.315-1.341
		c0-0.808,0.285-1.509,0.855-2.106c0.547-0.546,1.255-0.819,2.124-0.819c0.857,0,1.547,0.248,2.068,0.745
		c0.56,0.534,0.838,1.261,0.838,2.18h-1.937c0-0.398-0.094-0.696-0.28-0.895c-0.186-0.198-0.416-0.298-0.689-0.298
		c-0.298,0-0.54,0.093-0.726,0.28c-0.188,0.186-0.279,0.435-0.279,0.745c0,0.236,0.049,0.428,0.148,0.577
		c0.137,0.224,0.379,0.41,0.727,0.559l1.305,0.559c0.67,0.298,1.148,0.659,1.434,1.081
		C317.531,23.955,317.668,24.489,317.668,25.171"/>
	<path clip-path="url(#SVGID_2_)" d="M325.344,25.115c-0.062,1.031-0.348,1.801-0.856,2.311c-0.484,0.484-1.181,0.726-2.087,0.726
		c-1.056,0-1.832-0.348-2.328-1.043c-0.46-0.621-0.689-1.962-0.689-4.024c0-2.037,0.229-3.379,0.689-4.025
		c0.496-0.682,1.272-1.024,2.328-1.024c0.869,0,1.559,0.236,2.068,0.708c0.521,0.496,0.812,1.267,0.875,2.309h-1.956
		c-0.024-0.421-0.111-0.726-0.261-0.912c-0.161-0.235-0.403-0.354-0.727-0.354c-0.335,0-0.59,0.137-0.764,0.41
		c-0.188,0.323-0.279,1.285-0.279,2.888c0,1.602,0.092,2.571,0.279,2.905c0.161,0.262,0.416,0.392,0.764,0.392
		c0.323,0,0.565-0.112,0.727-0.335c0.149-0.211,0.236-0.522,0.261-0.932H325.344z"/>
	<path clip-path="url(#SVGID_2_)" d="M333.225,28.003h-1.976v-7.061c0-0.372-0.09-0.654-0.271-0.847
		c-0.18-0.193-0.412-0.289-0.698-0.289s-0.519,0.096-0.698,0.289c-0.181,0.193-0.271,0.475-0.271,0.847v7.061h-1.975V14.739h1.975
		v4.079c0.161-0.223,0.354-0.397,0.578-0.521c0.285-0.173,0.615-0.261,0.987-0.261c0.758,0,1.354,0.255,1.788,0.764
		c0.372,0.423,0.56,1.13,0.56,2.124V28.003z"/>
	<path clip-path="url(#SVGID_2_)" d="M341.346,23.663h-4.062c0,1.241,0.1,2.018,0.298,2.328c0.174,0.261,0.429,0.391,0.764,0.391
		c0.323,0,0.571-0.124,0.745-0.372c0.161-0.199,0.242-0.497,0.242-0.895h1.975c-0.036,0.957-0.316,1.708-0.838,2.255
		c-0.484,0.521-1.192,0.782-2.124,0.782c-0.894,0-1.603-0.267-2.124-0.801c-0.372-0.385-0.618-0.925-0.735-1.621
		c-0.118-0.695-0.178-1.577-0.178-2.645c0-1.068,0.06-1.95,0.178-2.646c0.117-0.695,0.363-1.235,0.735-1.621
		c0.51-0.521,1.211-0.782,2.105-0.782c0.882,0,1.584,0.261,2.105,0.782c0.36,0.361,0.603,0.926,0.727,1.696
		S341.346,22.334,341.346,23.663 M339.371,22.209c0-1.081-0.094-1.757-0.28-2.031c-0.186-0.261-0.44-0.39-0.764-0.39
		c-0.322,0-0.577,0.129-0.763,0.39c-0.188,0.274-0.28,0.95-0.28,2.031H339.371z"/>
	<path clip-path="url(#SVGID_2_)" d="M222.062,46.634h-2.181l-0.54-2.627h-3.073l-0.521,2.627h-2.198l3.26-13.265h2.03
		L222.062,46.634z M218.95,42.125l-1.137-5.551l-1.136,5.551H218.95z"/>
	<path clip-path="url(#SVGID_2_)" d="M229.477,46.633h-1.882v-0.746c-0.211,0.287-0.435,0.491-0.67,0.615
		c-0.312,0.187-0.641,0.28-0.988,0.28c-0.757,0-1.354-0.255-1.789-0.764c-0.372-0.422-0.558-1.13-0.558-2.124v-7.079h1.975v7.061
		c0,0.372,0.089,0.655,0.27,0.847c0.181,0.193,0.414,0.289,0.699,0.289s0.518-0.096,0.698-0.289c0.18-0.192,0.271-0.475,0.271-0.847
		v-7.061h1.975V46.633z"/>
	<path clip-path="url(#SVGID_2_)" d="M237.504,43.801c0,0.87-0.291,1.596-0.875,2.18c-0.534,0.534-1.248,0.801-2.143,0.801
		c-0.932,0-1.651-0.267-2.161-0.801c-0.584-0.609-0.875-1.348-0.875-2.217h1.956c0,0.398,0.111,0.708,0.335,0.932
		c0.187,0.198,0.435,0.297,0.745,0.297s0.565-0.093,0.764-0.279c0.187-0.162,0.279-0.422,0.279-0.783
		c0-0.285-0.068-0.527-0.204-0.726c-0.149-0.223-0.404-0.41-0.764-0.559l-1.305-0.577c-0.671-0.298-1.149-0.677-1.435-1.137
		c-0.211-0.335-0.316-0.782-0.316-1.341c0-0.808,0.286-1.509,0.857-2.105c0.546-0.547,1.253-0.82,2.123-0.82
		c0.857,0,1.547,0.249,2.068,0.745c0.559,0.535,0.839,1.261,0.839,2.18h-1.938c0-0.397-0.094-0.696-0.279-0.894
		c-0.187-0.199-0.417-0.298-0.689-0.298c-0.298,0-0.54,0.092-0.726,0.279c-0.188,0.186-0.28,0.435-0.28,0.745
		c0,0.236,0.05,0.428,0.148,0.577c0.138,0.224,0.379,0.411,0.728,0.56l1.305,0.558c0.67,0.298,1.147,0.659,1.434,1.081
		C237.368,42.584,237.504,43.119,237.504,43.801"/>
	<path clip-path="url(#SVGID_2_)" d="M242.777,46.633c-1.043,0-1.819-0.199-2.329-0.597c-0.658-0.496-0.987-1.291-0.987-2.384
		V33.369h1.975v10.172c0,0.883,0.447,1.323,1.342,1.323V46.633z"/>
	<path clip-path="url(#SVGID_2_)" d="M250.117,46.634h-1.862v-0.839c-0.224,0.311-0.423,0.528-0.597,0.653
		c-0.323,0.223-0.695,0.335-1.118,0.335c-0.758,0-1.373-0.273-1.844-0.82c-0.397-0.472-0.597-1.205-0.597-2.198
		c0-0.932,0.304-1.665,0.913-2.199c0.51-0.447,1.261-0.671,2.255-0.671h0.875v-1.359c0-0.758-0.317-1.137-0.95-1.137
		c-0.273,0-0.491,0.093-0.652,0.28c-0.198,0.211-0.298,0.515-0.298,0.912h-1.975c0-0.856,0.279-1.565,0.838-2.123
		c0.534-0.534,1.225-0.802,2.068-0.802c0.919,0,1.615,0.243,2.086,0.727c0.571,0.571,0.857,1.342,0.857,2.31V46.634z
		 M248.143,43.746v-1.453h-0.652c-0.472,0-0.813,0.099-1.024,0.298c-0.26,0.236-0.392,0.602-0.392,1.099
		c0,0.907,0.342,1.36,1.025,1.36c0.298,0,0.546-0.117,0.745-0.354C248.042,44.46,248.143,44.143,248.143,43.746"/>
	<path clip-path="url(#SVGID_2_)" d="M258.389,46.633h-1.976v-7.061c0-0.373-0.09-0.655-0.27-0.848
		c-0.181-0.192-0.413-0.288-0.698-0.288s-0.519,0.096-0.699,0.288c-0.18,0.193-0.27,0.475-0.27,0.848v7.061h-1.975v-9.818h1.9v0.726
		c0.224-0.298,0.44-0.503,0.651-0.615c0.285-0.173,0.615-0.26,0.987-0.26c0.758,0,1.354,0.255,1.789,0.763
		c0.372,0.423,0.559,1.131,0.559,2.124V46.633z"/>
	<path clip-path="url(#SVGID_2_)" d="M266.436,46.633h-1.9v-0.746c-0.099,0.224-0.317,0.429-0.651,0.615
		c-0.286,0.187-0.615,0.28-0.987,0.28c-0.733,0-1.312-0.255-1.732-0.764c-0.299-0.36-0.488-0.857-0.569-1.491
		c-0.081-0.633-0.12-1.57-0.12-2.813c0-1.241,0.039-2.176,0.12-2.803s0.271-1.121,0.569-1.482c0.421-0.508,0.999-0.763,1.732-0.763
		c0.372,0,0.701,0.087,0.987,0.26c0.186,0.1,0.378,0.274,0.577,0.522v-4.08h1.975V46.633z M264.461,43.838v-4.229
		c0-0.41-0.1-0.714-0.299-0.913c-0.186-0.186-0.409-0.279-0.67-0.279c-0.298,0-0.541,0.13-0.727,0.391
		c-0.212,0.274-0.316,1.242-0.316,2.906c0,1.677,0.104,2.652,0.316,2.925c0.174,0.249,0.416,0.373,0.727,0.373
		c0.272,0,0.496-0.087,0.67-0.261C264.361,44.553,264.461,44.249,264.461,43.838"/>
	<path clip-path="url(#SVGID_2_)" d="M274.465,43.801c0,0.87-0.292,1.596-0.876,2.18c-0.534,0.534-1.248,0.801-2.144,0.801
		c-0.93,0-1.65-0.267-2.159-0.801c-0.585-0.609-0.876-1.348-0.876-2.217h1.956c0,0.398,0.111,0.708,0.335,0.932
		c0.188,0.198,0.435,0.297,0.744,0.297c0.312,0,0.566-0.093,0.765-0.279c0.188-0.162,0.28-0.422,0.28-0.783
		c0-0.285-0.069-0.527-0.205-0.726c-0.149-0.223-0.403-0.41-0.764-0.559l-1.305-0.577c-0.671-0.298-1.148-0.677-1.435-1.137
		c-0.212-0.335-0.315-0.782-0.315-1.341c0-0.808,0.285-1.509,0.856-2.105c0.546-0.547,1.254-0.82,2.122-0.82
		c0.858,0,1.548,0.249,2.069,0.745c0.56,0.535,0.839,1.261,0.839,2.18h-1.938c0-0.397-0.094-0.696-0.28-0.894
		c-0.186-0.199-0.416-0.298-0.69-0.298c-0.297,0-0.539,0.092-0.725,0.279c-0.188,0.186-0.279,0.435-0.279,0.745
		c0,0.236,0.049,0.428,0.148,0.577c0.137,0.224,0.379,0.411,0.727,0.56l1.305,0.558c0.67,0.298,1.148,0.659,1.434,1.081
		C274.328,42.584,274.465,43.119,274.465,43.801"/>
	<path clip-path="url(#SVGID_2_)" d="M282.364,46.633h-1.975v-7.061c0-0.373-0.09-0.655-0.271-0.848
		c-0.181-0.192-0.413-0.288-0.698-0.288s-0.519,0.096-0.699,0.288c-0.18,0.193-0.27,0.475-0.27,0.848v7.061h-1.975V33.369h1.975
		v4.08c0.161-0.223,0.354-0.397,0.577-0.522c0.286-0.173,0.615-0.26,0.987-0.26c0.758,0,1.354,0.255,1.789,0.763
		c0.372,0.423,0.559,1.131,0.559,2.124V46.633z"/>
	<path clip-path="url(#SVGID_2_)" d="M290.3,46.634h-1.862v-0.839c-0.225,0.311-0.423,0.528-0.598,0.653
		c-0.322,0.223-0.694,0.335-1.117,0.335c-0.758,0-1.373-0.273-1.845-0.82c-0.396-0.472-0.596-1.205-0.596-2.198
		c0-0.932,0.304-1.665,0.913-2.199c0.51-0.447,1.261-0.671,2.255-0.671h0.875v-1.359c0-0.758-0.317-1.137-0.95-1.137
		c-0.273,0-0.491,0.093-0.652,0.28c-0.198,0.211-0.298,0.515-0.298,0.912h-1.975c0-0.856,0.278-1.565,0.838-2.123
		c0.534-0.534,1.224-0.802,2.068-0.802c0.919,0,1.613,0.243,2.086,0.727c0.571,0.571,0.857,1.342,0.857,2.31V46.634z
		 M288.325,43.746v-1.453h-0.652c-0.472,0-0.813,0.099-1.024,0.298c-0.26,0.236-0.392,0.602-0.392,1.099
		c0,0.907,0.342,1.36,1.025,1.36c0.298,0,0.546-0.117,0.745-0.354C288.225,44.46,288.325,44.143,288.325,43.746"/>
	<path clip-path="url(#SVGID_2_)" d="M298.571,46.633h-1.976v-7.061c0-0.373-0.09-0.655-0.27-0.848
		c-0.181-0.192-0.413-0.288-0.698-0.288c-0.286,0-0.519,0.096-0.699,0.288c-0.181,0.193-0.27,0.475-0.27,0.848v7.061h-1.975v-9.818
		h1.9v0.726c0.224-0.298,0.44-0.503,0.651-0.615c0.285-0.173,0.615-0.26,0.987-0.26c0.758,0,1.354,0.255,1.788,0.763
		c0.373,0.423,0.56,1.131,0.56,2.124V46.633z"/>
	<path clip-path="url(#SVGID_2_)" d="M306.619,46.633h-1.9v-0.746c-0.1,0.224-0.317,0.429-0.651,0.615
		c-0.287,0.187-0.615,0.28-0.987,0.28c-0.734,0-1.312-0.255-1.732-0.764c-0.3-0.36-0.488-0.857-0.569-1.491
		c-0.081-0.633-0.12-1.57-0.12-2.813c0-1.241,0.039-2.176,0.12-2.803s0.27-1.121,0.569-1.482c0.421-0.508,0.998-0.763,1.732-0.763
		c0.372,0,0.7,0.087,0.987,0.26c0.186,0.1,0.378,0.274,0.577,0.522v-4.08h1.975V46.633z M304.645,43.838v-4.229
		c0-0.41-0.101-0.714-0.299-0.913c-0.187-0.186-0.41-0.279-0.67-0.279c-0.298,0-0.541,0.13-0.728,0.391
		c-0.211,0.274-0.315,1.242-0.315,2.906c0,1.677,0.104,2.652,0.315,2.925c0.175,0.249,0.417,0.373,0.728,0.373
		c0.272,0,0.496-0.087,0.67-0.261C304.544,44.553,304.645,44.249,304.645,43.838"/>
	<path clip-path="url(#SVGID_2_)" d="M314.796,42.293h-4.061c0,1.241,0.1,2.018,0.298,2.328c0.174,0.261,0.428,0.391,0.764,0.391
		c0.323,0,0.571-0.123,0.745-0.372c0.161-0.199,0.242-0.497,0.242-0.894h1.974c-0.036,0.956-0.315,1.708-0.837,2.254
		c-0.484,0.522-1.192,0.782-2.124,0.782c-0.894,0-1.603-0.267-2.124-0.801c-0.373-0.385-0.618-0.925-0.735-1.621
		c-0.118-0.695-0.177-1.577-0.177-2.645c0-1.068,0.059-1.95,0.177-2.646c0.117-0.695,0.362-1.235,0.735-1.62
		c0.509-0.522,1.212-0.783,2.105-0.783c0.882,0,1.583,0.261,2.104,0.783c0.361,0.36,0.603,0.925,0.728,1.695
		C314.733,39.914,314.796,40.964,314.796,42.293 M312.821,40.839c0-1.08-0.093-1.757-0.279-2.03
		c-0.186-0.261-0.44-0.391-0.764-0.391s-0.577,0.13-0.764,0.391c-0.187,0.273-0.279,0.95-0.279,2.03H312.821z"/>
	<path clip-path="url(#SVGID_2_)" d="M320.162,46.633c-1.044,0-1.819-0.199-2.329-0.597c-0.658-0.496-0.987-1.291-0.987-2.384
		V33.369h1.975v10.172c0,0.883,0.447,1.323,1.342,1.323V46.633z"/>
	<path clip-path="url(#SVGID_2_)" d="M327.539,43.801c0,0.87-0.292,1.596-0.876,2.18c-0.534,0.534-1.247,0.801-2.143,0.801
		c-0.931,0-1.651-0.267-2.16-0.801c-0.585-0.609-0.876-1.348-0.876-2.217h1.957c0,0.398,0.11,0.708,0.334,0.932
		c0.188,0.198,0.435,0.297,0.745,0.297s0.565-0.093,0.764-0.279c0.188-0.162,0.28-0.422,0.28-0.783c0-0.285-0.069-0.527-0.205-0.726
		c-0.149-0.223-0.403-0.41-0.764-0.559l-1.304-0.577c-0.672-0.298-1.149-0.677-1.436-1.137c-0.211-0.335-0.315-0.782-0.315-1.341
		c0-0.808,0.285-1.509,0.856-2.105c0.546-0.547,1.254-0.82,2.123-0.82c0.857,0,1.547,0.249,2.068,0.745
		c0.56,0.535,0.839,1.261,0.839,2.18h-1.938c0-0.397-0.094-0.696-0.28-0.894c-0.186-0.199-0.416-0.298-0.689-0.298
		c-0.298,0-0.54,0.092-0.726,0.279c-0.188,0.186-0.279,0.435-0.279,0.745c0,0.236,0.049,0.428,0.148,0.577
		c0.137,0.224,0.379,0.411,0.727,0.56l1.305,0.558c0.67,0.298,1.148,0.659,1.434,1.081
		C327.402,42.584,327.539,43.119,327.539,43.801"/>
	<polygon clip-path="url(#SVGID_2_)" points="336.202,46.633 334.022,46.633 332.364,42.498 331.526,43.82 331.526,46.633 
		329.552,46.633 329.552,33.369 331.526,33.369 331.526,41.007 334.004,36.815 336.072,36.815 333.631,40.709 	"/>
	<path clip-path="url(#SVGID_2_)" d="M343.355,46.634h-1.862v-0.839c-0.224,0.311-0.423,0.528-0.597,0.653
		c-0.323,0.223-0.695,0.335-1.118,0.335c-0.758,0-1.373-0.273-1.844-0.82c-0.397-0.472-0.596-1.205-0.596-2.198
		c0-0.932,0.304-1.665,0.912-2.199c0.51-0.447,1.261-0.671,2.255-0.671h0.875v-1.359c0-0.758-0.317-1.137-0.95-1.137
		c-0.273,0-0.491,0.093-0.652,0.28c-0.198,0.211-0.298,0.515-0.298,0.912h-1.975c0-0.856,0.279-1.565,0.838-2.123
		c0.534-0.534,1.225-0.802,2.068-0.802c0.919,0,1.615,0.243,2.087,0.727c0.57,0.571,0.856,1.342,0.856,2.31V46.634z M341.381,43.746
		v-1.453h-0.652c-0.472,0-0.812,0.099-1.024,0.298c-0.26,0.236-0.391,0.602-0.391,1.099c0,0.907,0.341,1.36,1.024,1.36
		c0.298,0,0.546-0.117,0.745-0.354C341.281,44.46,341.381,44.143,341.381,43.746"/>
	<path clip-path="url(#SVGID_2_)" d="M355.559,46.633h-1.975v-7.061c0-0.36-0.094-0.639-0.28-0.838
		c-0.187-0.199-0.422-0.298-0.708-0.298s-0.52,0.096-0.698,0.288c-0.181,0.193-0.271,0.475-0.271,0.848v7.061h-1.976v-7.061
		c0-0.373-0.089-0.655-0.27-0.848c-0.181-0.192-0.413-0.288-0.698-0.288c-0.286,0-0.519,0.096-0.699,0.288
		c-0.18,0.193-0.27,0.475-0.27,0.848v7.061h-1.975v-9.818h1.9v0.726c0.224-0.298,0.439-0.503,0.651-0.615
		c0.286-0.173,0.615-0.26,0.987-0.26c0.808,0,1.447,0.335,1.919,1.006c0.272-0.31,0.565-0.56,0.875-0.746
		c0.311-0.173,0.659-0.26,1.044-0.26c0.808,0,1.429,0.255,1.863,0.763c0.385,0.436,0.578,1.143,0.578,2.124V46.633z"/>
	<path clip-path="url(#SVGID_2_)" d="M367.761,46.633h-1.975v-7.061c0-0.36-0.094-0.639-0.279-0.838
		c-0.188-0.199-0.423-0.298-0.709-0.298c-0.285,0-0.519,0.096-0.698,0.288c-0.181,0.193-0.27,0.475-0.27,0.848v7.061h-1.976v-7.061
		c0-0.373-0.09-0.655-0.271-0.848c-0.18-0.192-0.412-0.288-0.698-0.288s-0.519,0.096-0.698,0.288
		c-0.181,0.193-0.271,0.475-0.271,0.848v7.061h-1.975v-9.818h1.9v0.726c0.224-0.298,0.439-0.503,0.652-0.615
		c0.285-0.173,0.614-0.26,0.987-0.26c0.807,0,1.447,0.335,1.918,1.006c0.273-0.31,0.565-0.56,0.876-0.746
		c0.311-0.173,0.658-0.26,1.043-0.26c0.808,0,1.429,0.255,1.863,0.763c0.385,0.436,0.578,1.143,0.578,2.124V46.633z"/>
	<path clip-path="url(#SVGID_2_)" d="M375.882,42.293h-4.062c0,1.241,0.1,2.018,0.298,2.328c0.174,0.261,0.429,0.391,0.764,0.391
		c0.323,0,0.572-0.123,0.746-0.372c0.16-0.199,0.241-0.497,0.241-0.894h1.975c-0.036,0.956-0.315,1.708-0.838,2.254
		c-0.483,0.522-1.192,0.782-2.124,0.782c-0.894,0-1.602-0.267-2.124-0.801c-0.372-0.385-0.617-0.925-0.735-1.621
		c-0.117-0.695-0.178-1.577-0.178-2.645c0-1.068,0.061-1.95,0.178-2.646c0.118-0.695,0.363-1.235,0.735-1.62
		c0.51-0.522,1.211-0.783,2.106-0.783c0.881,0,1.583,0.261,2.104,0.783c0.36,0.36,0.603,0.925,0.727,1.695
		S375.882,40.964,375.882,42.293 M373.907,40.839c0-1.08-0.094-1.757-0.279-2.03c-0.187-0.261-0.441-0.391-0.764-0.391
		c-0.323,0-0.578,0.13-0.764,0.391c-0.188,0.273-0.28,0.95-0.28,2.03H373.907z"/>
	<path clip-path="url(#SVGID_2_)" d="M382.272,38.585h-0.671c-0.472,0-0.863,0.152-1.174,0.457
		c-0.311,0.304-0.466,0.717-0.466,1.238v6.353h-1.975v-9.818h1.9v1.043c0.199-0.297,0.484-0.558,0.856-0.782
		c0.447-0.273,0.956-0.41,1.528-0.41V38.585z"/>
	<path clip-path="url(#SVGID_2_)" d="M219.462,56.068c0.502,0.522,0.754,1.496,0.754,2.926c0,1.429-0.252,2.4-0.754,2.915
		c-0.503,0.516-1.207,0.773-2.114,0.773h-1.509v5.869h-1.1V55.285h2.608C218.255,55.285,218.959,55.547,219.462,56.068
		 M218.652,61.126c0.31-0.379,0.465-1.089,0.465-2.133s-0.155-1.758-0.465-2.142c-0.312-0.386-0.764-0.579-1.361-0.579h-1.452v5.421
		h1.452C217.889,61.694,218.341,61.505,218.652,61.126"/>
	<path clip-path="url(#SVGID_2_)" d="M226.812,61.118c0.1,0.621,0.149,1.521,0.149,2.701c0,1.179-0.05,2.081-0.149,2.701
		c-0.1,0.621-0.285,1.099-0.56,1.435c-0.409,0.496-0.992,0.746-1.75,0.746c-0.759,0-1.342-0.25-1.751-0.746
		c-0.274-0.336-0.46-0.813-0.56-1.435c-0.1-0.62-0.148-1.522-0.148-2.701c0-1.18,0.049-2.08,0.148-2.701
		c0.1-0.622,0.285-1.1,0.56-1.435c0.409-0.511,0.992-0.765,1.751-0.765c0.758,0,1.341,0.254,1.75,0.765
		C226.526,60.018,226.712,60.496,226.812,61.118 M225.824,66.222c0.062-0.496,0.094-1.298,0.094-2.403s-0.032-1.909-0.094-2.412
		c-0.062-0.504-0.192-0.879-0.392-1.127c-0.236-0.287-0.547-0.43-0.931-0.43c-0.397,0-0.715,0.143-0.95,0.43
		c-0.199,0.248-0.327,0.62-0.382,1.117c-0.056,0.497-0.084,1.304-0.084,2.422c0,1.117,0.028,1.923,0.084,2.412
		c0.055,0.491,0.183,0.861,0.382,1.108c0.235,0.286,0.553,0.429,0.95,0.429c0.384,0,0.694-0.143,0.931-0.429
		C225.632,67.092,225.762,66.719,225.824,66.222"/>
	<path clip-path="url(#SVGID_2_)" d="M233.911,66.055c-0.025,0.931-0.249,1.606-0.672,2.029c-0.409,0.409-0.969,0.616-1.676,0.616
		c-0.746,0-1.329-0.25-1.751-0.746c-0.274-0.322-0.46-0.798-0.56-1.425s-0.148-1.532-0.148-2.711c0-1.18,0.049-2.084,0.148-2.71
		c0.1-0.628,0.285-1.104,0.56-1.426c0.409-0.511,0.992-0.765,1.751-0.765c0.72,0,1.279,0.199,1.676,0.598
		c0.423,0.409,0.646,1.099,0.672,2.065h-1.025c0-0.632-0.124-1.079-0.372-1.34c-0.224-0.26-0.534-0.392-0.933-0.392
		c-0.422,0-0.745,0.143-0.968,0.43c-0.199,0.248-0.327,0.626-0.382,1.136c-0.056,0.51-0.084,1.311-0.084,2.403
		s0.028,1.89,0.084,2.394c0.055,0.504,0.183,0.88,0.382,1.127c0.223,0.286,0.546,0.429,0.968,0.429c0.361,0,0.665-0.123,0.913-0.372
		c0.262-0.273,0.392-0.721,0.392-1.341H233.911z"/>
	<path clip-path="url(#SVGID_2_)" d="M240.729,66.055c-0.025,0.931-0.249,1.606-0.671,2.029c-0.41,0.409-0.97,0.616-1.677,0.616
		c-0.745,0-1.329-0.25-1.751-0.746c-0.274-0.322-0.46-0.798-0.56-1.425s-0.148-1.532-0.148-2.711c0-1.18,0.049-2.084,0.148-2.71
		c0.1-0.628,0.285-1.104,0.56-1.426c0.409-0.511,0.993-0.765,1.751-0.765c0.72,0,1.279,0.199,1.677,0.598
		c0.422,0.409,0.646,1.099,0.671,2.065h-1.025c0-0.632-0.124-1.079-0.372-1.34c-0.224-0.26-0.534-0.392-0.933-0.392
		c-0.422,0-0.745,0.143-0.968,0.43c-0.199,0.248-0.326,0.626-0.382,1.136s-0.084,1.311-0.084,2.403s0.028,1.89,0.084,2.394
		s0.183,0.88,0.382,1.127c0.223,0.286,0.546,0.429,0.968,0.429c0.361,0,0.665-0.123,0.913-0.372
		c0.262-0.273,0.392-0.721,0.392-1.341H240.729z"/>
	<polygon clip-path="url(#SVGID_2_)" points="248.015,68.551 246.972,68.551 246.972,61.322 244.046,68.551 243.059,68.551 
		243.059,59.069 244.102,59.069 244.102,66.296 247.027,59.069 248.015,59.069 	"/>
	<path clip-path="url(#SVGID_2_)" d="M255.783,68.55h-1.044v-7.228l-2.925,7.228h-0.987v-9.481h1.043v7.227l2.926-7.227h0.987V68.55
		z M255.392,55.808c-0.087,1.278-0.783,1.919-2.087,1.919c-1.292,0-1.994-0.641-2.105-1.919h0.895
		c0.074,0.758,0.479,1.137,1.211,1.137c0.721,0,1.117-0.379,1.192-1.137H255.392z"/>
	<path clip-path="url(#SVGID_2_)" d="M263.085,66.055c-0.024,0.931-0.248,1.606-0.671,2.029c-0.409,0.409-0.969,0.616-1.677,0.616
		c-0.745,0-1.328-0.25-1.751-0.746c-0.273-0.322-0.46-0.798-0.559-1.425c-0.1-0.627-0.148-1.532-0.148-2.711
		c0-1.18,0.049-2.084,0.148-2.71c0.099-0.628,0.285-1.104,0.559-1.426c0.41-0.511,0.994-0.765,1.751-0.765
		c0.721,0,1.279,0.199,1.677,0.598c0.423,0.409,0.646,1.099,0.671,2.065h-1.024c0-0.632-0.124-1.079-0.371-1.34
		c-0.225-0.26-0.535-0.392-0.934-0.392c-0.422,0-0.745,0.143-0.968,0.43c-0.2,0.248-0.327,0.626-0.382,1.136
		c-0.056,0.51-0.084,1.311-0.084,2.403s0.028,1.89,0.084,2.394c0.055,0.504,0.182,0.88,0.382,1.127
		c0.223,0.286,0.546,0.429,0.968,0.429c0.36,0,0.664-0.123,0.913-0.372c0.262-0.273,0.392-0.721,0.392-1.341H263.085z"/>
	<path clip-path="url(#SVGID_2_)" d="M266.477,68.551h-1.044v-9.482h1.044V68.551z M270.725,68.551h-1.193l-3.035-4.919l2.85-4.563
		h1.155l-2.869,4.507L270.725,68.551z"/>
	<path clip-path="url(#SVGID_2_)" d="M276.834,61.118c0.1,0.621,0.149,1.521,0.149,2.701c0,1.179-0.05,2.081-0.149,2.701
		c-0.099,0.621-0.285,1.099-0.559,1.435c-0.41,0.496-0.993,0.746-1.751,0.746s-1.342-0.25-1.751-0.746
		c-0.274-0.336-0.46-0.813-0.56-1.435c-0.1-0.62-0.148-1.522-0.148-2.701c0-1.18,0.049-2.08,0.148-2.701
		c0.1-0.622,0.285-1.1,0.56-1.435c0.409-0.511,0.993-0.765,1.751-0.765s1.341,0.254,1.751,0.765
		C276.549,60.018,276.735,60.496,276.834,61.118 M275.847,66.222c0.062-0.496,0.094-1.298,0.094-2.403s-0.032-1.909-0.094-2.412
		c-0.062-0.504-0.192-0.879-0.392-1.127c-0.235-0.287-0.545-0.43-0.931-0.43c-0.397,0-0.715,0.143-0.95,0.43
		c-0.199,0.248-0.326,0.62-0.382,1.117s-0.084,1.304-0.084,2.422c0,1.117,0.028,1.923,0.084,2.412
		c0.056,0.491,0.183,0.861,0.382,1.108c0.235,0.286,0.553,0.429,0.95,0.429c0.386,0,0.695-0.143,0.931-0.429
		C275.654,67.092,275.785,66.719,275.847,66.222"/>
	<rect x="279.312" y="62.887" clip-path="url(#SVGID_2_)" width="3.559" height="0.987"/>
	<polygon clip-path="url(#SVGID_2_)" points="290.192,56.274 286.765,56.274 286.765,68.55 285.665,68.55 285.665,55.286 
		290.192,55.286 	"/>
	<path clip-path="url(#SVGID_2_)" d="M296.898,63.968h-3.875c0,1.056,0.031,1.825,0.093,2.31s0.192,0.838,0.392,1.062
		c0.235,0.286,0.552,0.428,0.949,0.428c0.41,0,0.733-0.123,0.969-0.372c0.273-0.286,0.41-0.733,0.41-1.341h1.025
		c0,0.855-0.23,1.521-0.689,1.992c-0.423,0.436-0.994,0.652-1.715,0.652c-0.707,0-1.279-0.229-1.713-0.688
		c-0.298-0.323-0.501-0.806-0.605-1.444c-0.106-0.64-0.158-1.556-0.158-2.749c0-1.216,0.052-2.142,0.158-2.774
		c0.104-0.635,0.308-1.112,0.605-1.436c0.422-0.458,0.987-0.688,1.694-0.688c0.708,0,1.273,0.23,1.695,0.688
		c0.299,0.335,0.501,0.827,0.605,1.472C296.846,61.727,296.898,62.689,296.898,63.968 M295.855,63.129
		c-0.013-1.553-0.175-2.502-0.485-2.851c-0.236-0.286-0.547-0.429-0.932-0.429c-0.396,0-0.714,0.143-0.949,0.429
		c-0.299,0.335-0.454,1.286-0.466,2.851H295.855z"/>
	<path clip-path="url(#SVGID_2_)" d="M303.959,61.015c0.1,0.628,0.148,1.562,0.148,2.804s-0.049,2.173-0.148,2.794
		c-0.1,0.622-0.286,1.093-0.56,1.417c-0.396,0.447-0.888,0.671-1.471,0.671c-0.435,0-0.796-0.101-1.081-0.299
		c-0.186-0.124-0.36-0.311-0.521-0.56v4.489h-1.043V59.069h1.024v0.763c0.1-0.211,0.28-0.402,0.54-0.578
		c0.323-0.223,0.683-0.335,1.081-0.335c0.583,0,1.074,0.225,1.471,0.671C303.673,59.913,303.859,60.388,303.959,61.015
		 M302.972,66.269c0.062-0.491,0.093-1.309,0.093-2.45c0-1.144-0.031-1.959-0.093-2.45s-0.192-0.853-0.392-1.089
		c-0.236-0.286-0.54-0.43-0.913-0.43c-0.36,0-0.658,0.118-0.894,0.355c-0.298,0.272-0.447,0.707-0.447,1.302v4.604
		c0,0.583,0.149,1.017,0.447,1.304c0.235,0.236,0.533,0.354,0.894,0.354c0.373,0,0.677-0.137,0.913-0.41
		C302.779,67.123,302.91,66.758,302.972,66.269"/>
	<polygon clip-path="url(#SVGID_2_)" points="313.105,68.551 312.062,68.551 312.062,61.378 310.199,65.868 309.454,65.868 
		307.609,61.378 307.609,68.551 306.566,68.551 306.566,59.069 307.554,59.069 309.826,64.602 312.118,59.069 313.105,59.069 	"/>
	<path clip-path="url(#SVGID_2_)" d="M320.222,68.551h-1.007v-0.857c-0.124,0.249-0.298,0.46-0.521,0.633
		c-0.335,0.249-0.715,0.374-1.136,0.374c-0.597,0-1.1-0.211-1.509-0.634c-0.411-0.435-0.615-1.15-0.615-2.143
		c0-0.943,0.266-1.658,0.801-2.143c0.459-0.422,1.08-0.634,1.863-0.634h1.081v-1.696c0-1.081-0.436-1.62-1.305-1.62
		c-0.336,0-0.621,0.119-0.857,0.354c-0.285,0.298-0.428,0.739-0.428,1.322h-1.043c0-0.845,0.229-1.496,0.688-1.956
		c0.423-0.423,0.97-0.634,1.64-0.634c0.758,0,1.322,0.199,1.696,0.598c0.434,0.459,0.651,1.117,0.651,1.975V68.551z M319.179,66.055
		v-2.087h-1.044c-0.484,0-0.869,0.137-1.154,0.409c-0.336,0.335-0.504,0.846-0.504,1.528c0,1.241,0.44,1.862,1.323,1.862
		c0.409,0,0.741-0.161,0.997-0.484C319.05,66.96,319.179,66.551,319.179,66.055"/>
	<polygon clip-path="url(#SVGID_2_)" points="327.58,68.551 326.537,68.551 326.537,64.136 323.984,64.136 323.984,68.551 
		322.941,68.551 322.941,59.069 323.984,59.069 323.984,63.203 326.537,63.203 326.537,59.069 327.58,59.069 	"/>
	<path clip-path="url(#SVGID_2_)" d="M334.883,66.055c-0.025,0.931-0.249,1.606-0.671,2.029c-0.41,0.409-0.97,0.616-1.677,0.616
		c-0.745,0-1.329-0.25-1.751-0.746c-0.274-0.322-0.46-0.798-0.56-1.425c-0.099-0.627-0.148-1.532-0.148-2.711
		c0-1.18,0.05-2.084,0.148-2.71c0.1-0.628,0.285-1.104,0.56-1.426c0.409-0.511,0.993-0.765,1.751-0.765
		c0.72,0,1.279,0.199,1.677,0.598c0.422,0.409,0.646,1.099,0.671,2.065h-1.025c0-0.632-0.124-1.079-0.372-1.34
		c-0.224-0.26-0.534-0.392-0.932-0.392c-0.423,0-0.746,0.143-0.969,0.43c-0.199,0.248-0.326,0.626-0.382,1.136
		s-0.084,1.311-0.084,2.403s0.028,1.89,0.084,2.394s0.183,0.88,0.382,1.127c0.223,0.286,0.546,0.429,0.969,0.429
		c0.36,0,0.664-0.123,0.913-0.372c0.261-0.273,0.391-0.721,0.391-1.341H334.883z"/>
	<path clip-path="url(#SVGID_2_)" d="M338.273,68.551h-1.043v-9.482h1.043V68.551z M342.521,68.551h-1.192l-3.036-4.919l2.85-4.563
		h1.155l-2.869,4.507L342.521,68.551z"/>
	<path clip-path="url(#SVGID_2_)" d="M348.594,68.551h-1.006v-0.857c-0.125,0.249-0.299,0.46-0.522,0.633
		c-0.334,0.249-0.714,0.374-1.136,0.374c-0.597,0-1.099-0.211-1.509-0.634c-0.41-0.435-0.615-1.15-0.615-2.143
		c0-0.943,0.268-1.658,0.802-2.143c0.459-0.422,1.08-0.634,1.862-0.634h1.081v-1.696c0-1.081-0.435-1.62-1.305-1.62
		c-0.335,0-0.621,0.119-0.857,0.354c-0.285,0.298-0.428,0.739-0.428,1.322h-1.043c0-0.845,0.229-1.496,0.689-1.956
		c0.422-0.423,0.969-0.634,1.639-0.634c0.758,0,1.323,0.199,1.696,0.598c0.434,0.459,0.651,1.117,0.651,1.975V68.551z
		 M347.551,66.055v-2.087h-1.043c-0.485,0-0.87,0.137-1.155,0.409c-0.336,0.335-0.503,0.846-0.503,1.528
		c0,1.241,0.44,1.862,1.322,1.862c0.41,0,0.741-0.161,0.997-0.484C347.423,66.96,347.551,66.551,347.551,66.055"/>
	<path clip-path="url(#SVGID_2_)" d="M355.505,68.55h-1.044v-4.08h-1.266l-1.398,4.08h-1.099l1.527-4.266
		c-0.832-0.385-1.248-1.223-1.248-2.515c0-1.802,0.776-2.701,2.328-2.701h2.199V68.55z M354.461,63.558v-3.576h-1.117
		c-0.473,0-0.811,0.142-1.016,0.428c-0.204,0.286-0.308,0.739-0.308,1.36c0,1.19,0.44,1.788,1.323,1.788H354.461z"/>
	<path clip-path="url(#SVGID_2_)" d="M219.359,83.421c0,0.919-0.23,1.607-0.689,2.067c-0.396,0.397-1.03,0.596-1.9,0.596h-2.16
		v-9.481h2.143c0.869,0,1.49,0.185,1.862,0.558c0.422,0.386,0.634,1.02,0.634,1.9c0,0.758-0.217,1.33-0.652,1.715
		c-0.162,0.136-0.348,0.248-0.559,0.335c0.248,0.086,0.46,0.205,0.633,0.354C219.129,81.837,219.359,82.489,219.359,83.421
		 M218.204,79.117c0-0.584-0.12-0.993-0.363-1.229c-0.242-0.235-0.599-0.355-1.071-0.355h-1.117v3.204h1.117
		C217.727,80.737,218.204,80.197,218.204,79.117 M218.316,83.383c0-1.204-0.516-1.808-1.547-1.808h-1.117v3.578h1.117
		c0.521,0,0.91-0.13,1.165-0.392C218.189,84.501,218.316,84.042,218.316,83.383"/>
	<polygon clip-path="url(#SVGID_2_)" points="226.438,86.085 225.396,86.085 225.396,81.67 222.843,81.67 222.843,86.085 
		221.8,86.085 221.8,76.603 222.843,76.603 222.843,80.737 225.396,80.737 225.396,76.603 226.438,76.603 	"/>
	<path clip-path="url(#SVGID_2_)" d="M233.854,81.502h-3.875c0,1.056,0.031,1.825,0.093,2.31s0.193,0.838,0.392,1.062
		c0.235,0.286,0.553,0.428,0.949,0.428c0.41,0,0.733-0.123,0.97-0.372c0.272-0.286,0.408-0.733,0.408-1.341h1.026
		c0,0.855-0.23,1.521-0.689,1.992c-0.423,0.436-0.994,0.652-1.715,0.652c-0.707,0-1.279-0.229-1.713-0.688
		c-0.298-0.323-0.5-0.805-0.605-1.444c-0.106-0.64-0.158-1.556-0.158-2.749c0-1.216,0.052-2.142,0.158-2.774
		c0.105-0.635,0.308-1.112,0.605-1.436c0.422-0.458,0.987-0.688,1.695-0.688c0.707,0,1.271,0.23,1.694,0.688
		c0.299,0.335,0.501,0.827,0.605,1.472C233.801,79.261,233.854,80.223,233.854,81.502 M232.811,80.664
		c-0.013-1.553-0.175-2.502-0.485-2.851c-0.235-0.286-0.546-0.429-0.931-0.429c-0.397,0-0.715,0.143-0.95,0.429
		c-0.299,0.335-0.454,1.286-0.466,2.851H232.811z"/>
	<polygon clip-path="url(#SVGID_2_)" points="243.783,86.085 236.237,86.085 236.237,76.603 237.28,76.603 237.28,85.153 
		239.497,85.153 239.497,76.603 240.54,76.603 240.54,85.153 242.739,85.153 242.739,76.603 243.783,76.603 	"/>
	<polygon clip-path="url(#SVGID_2_)" points="251.234,86.085 250.191,86.085 250.191,81.67 247.64,81.67 247.64,86.085 
		246.597,86.085 246.597,76.603 247.64,76.603 247.64,80.737 250.191,80.737 250.191,76.603 251.234,76.603 	"/>
	<path clip-path="url(#SVGID_2_)" d="M258.649,81.502h-3.875c0,1.056,0.03,1.825,0.093,2.31c0.062,0.484,0.192,0.838,0.391,1.062
		c0.235,0.286,0.553,0.428,0.95,0.428c0.41,0,0.732-0.123,0.969-0.372c0.273-0.286,0.409-0.733,0.409-1.341h1.025
		c0,0.855-0.23,1.521-0.689,1.992c-0.422,0.436-0.994,0.652-1.714,0.652c-0.708,0-1.279-0.229-1.713-0.688
		c-0.299-0.323-0.501-0.805-0.606-1.444s-0.157-1.556-0.157-2.749c0-1.216,0.052-2.142,0.157-2.774
		c0.105-0.635,0.308-1.112,0.606-1.436c0.422-0.458,0.987-0.688,1.694-0.688c0.708,0,1.271,0.23,1.695,0.688
		c0.299,0.335,0.5,0.827,0.605,1.472C258.597,79.261,258.649,80.223,258.649,81.502 M257.606,80.664
		c-0.013-1.553-0.175-2.502-0.485-2.851c-0.236-0.286-0.547-0.429-0.932-0.429c-0.397,0-0.714,0.143-0.949,0.429
		c-0.299,0.335-0.454,1.286-0.466,2.851H257.606z"/>
	<polygon clip-path="url(#SVGID_2_)" points="264.871,77.534 262.989,77.534 262.989,86.085 261.945,86.085 261.945,77.534 
		260.083,77.534 260.083,76.602 264.871,76.602 	"/>
	<path clip-path="url(#SVGID_2_)" d="M271.149,78.652c0.1,0.622,0.149,1.521,0.149,2.701s-0.05,2.081-0.149,2.702
		c-0.1,0.62-0.285,1.098-0.559,1.434c-0.41,0.496-0.993,0.746-1.751,0.746s-1.342-0.25-1.751-0.746
		c-0.274-0.336-0.46-0.813-0.56-1.434c-0.1-0.621-0.148-1.522-0.148-2.702s0.049-2.079,0.148-2.701s0.285-1.1,0.56-1.434
		c0.409-0.511,0.993-0.766,1.751-0.766s1.341,0.255,1.751,0.766C270.864,77.552,271.05,78.03,271.149,78.652 M270.162,83.756
		c0.062-0.496,0.094-1.297,0.094-2.403c0-1.105-0.032-1.909-0.094-2.412c-0.062-0.503-0.192-0.879-0.392-1.127
		c-0.236-0.287-0.546-0.43-0.931-0.43c-0.397,0-0.715,0.143-0.95,0.43c-0.199,0.248-0.327,0.621-0.382,1.117
		c-0.056,0.497-0.084,1.304-0.084,2.422c0,1.117,0.028,1.923,0.084,2.412c0.055,0.491,0.183,0.861,0.382,1.109
		c0.235,0.285,0.553,0.428,0.95,0.428c0.385,0,0.694-0.143,0.931-0.428C269.97,84.626,270.1,84.253,270.162,83.756"/>
	<path clip-path="url(#SVGID_2_)" d="M278.434,78.549c0.1,0.628,0.148,1.562,0.148,2.804s-0.049,2.173-0.148,2.794
		c-0.099,0.622-0.286,1.093-0.559,1.417c-0.397,0.447-0.889,0.671-1.472,0.671c-0.435,0-0.796-0.101-1.081-0.299
		c-0.186-0.124-0.36-0.311-0.522-0.56v4.489h-1.042V76.603h1.024v0.763c0.1-0.211,0.28-0.403,0.54-0.578
		c0.323-0.223,0.683-0.335,1.081-0.335c0.583,0,1.074,0.225,1.472,0.671C278.147,77.448,278.335,77.921,278.434,78.549
		 M277.446,83.803c0.062-0.491,0.093-1.309,0.093-2.45c0-1.144-0.031-1.959-0.093-2.45s-0.192-0.853-0.392-1.089
		c-0.235-0.286-0.539-0.43-0.913-0.43c-0.36,0-0.658,0.118-0.894,0.355c-0.298,0.272-0.448,0.707-0.448,1.303v4.603
		c0,0.583,0.15,1.018,0.448,1.304c0.235,0.236,0.533,0.354,0.894,0.354c0.374,0,0.678-0.137,0.913-0.409
		C277.254,84.657,277.385,84.292,277.446,83.803"/>
	<polygon clip-path="url(#SVGID_2_)" points="284.972,76.603 284.972,77.534 282.084,77.534 282.084,86.084 281.041,86.084 
		281.041,76.603 	"/>
	<path clip-path="url(#SVGID_2_)" d="M291.251,78.652c0.1,0.622,0.149,1.521,0.149,2.701s-0.05,2.081-0.149,2.702
		c-0.099,0.62-0.285,1.098-0.559,1.434c-0.41,0.496-0.993,0.746-1.751,0.746s-1.341-0.25-1.751-0.746
		c-0.273-0.336-0.46-0.813-0.56-1.434c-0.099-0.621-0.148-1.522-0.148-2.702s0.05-2.079,0.148-2.701c0.1-0.622,0.286-1.1,0.56-1.434
		c0.41-0.511,0.993-0.766,1.751-0.766s1.341,0.255,1.751,0.766C290.966,77.552,291.152,78.03,291.251,78.652 M290.264,83.756
		c0.062-0.496,0.094-1.297,0.094-2.403c0-1.105-0.031-1.909-0.094-2.412c-0.062-0.503-0.192-0.879-0.391-1.127
		c-0.236-0.287-0.546-0.43-0.932-0.43c-0.397,0-0.715,0.143-0.949,0.43c-0.2,0.248-0.327,0.621-0.383,1.117
		c-0.056,0.497-0.083,1.304-0.083,2.422c0,1.117,0.027,1.923,0.083,2.412c0.056,0.491,0.183,0.861,0.383,1.109
		c0.234,0.285,0.552,0.428,0.949,0.428c0.386,0,0.695-0.143,0.932-0.428C290.071,84.626,290.202,84.253,290.264,83.756"/>
	<path clip-path="url(#SVGID_2_)" d="M298.61,83.421c0,0.919-0.229,1.607-0.69,2.067c-0.396,0.397-1.03,0.596-1.899,0.596h-2.161
		v-9.481h2.143c0.869,0,1.49,0.185,1.862,0.558c0.423,0.386,0.634,1.02,0.634,1.9c0,0.758-0.217,1.33-0.651,1.715
		c-0.162,0.136-0.349,0.248-0.56,0.335c0.249,0.086,0.46,0.205,0.633,0.354C298.381,81.837,298.61,82.489,298.61,83.421
		 M297.455,79.117c0-0.584-0.121-0.993-0.363-1.229s-0.6-0.355-1.071-0.355h-1.118v3.204h1.118
		C296.977,80.737,297.455,80.197,297.455,79.117 M297.566,83.383c0-1.204-0.516-1.808-1.546-1.808h-1.118v3.578h1.118
		c0.521,0,0.91-0.13,1.164-0.392C297.439,84.501,297.566,84.042,297.566,83.383"/>
	<path clip-path="url(#SVGID_2_)" d="M305.373,86.085h-1.006v-0.857c-0.125,0.249-0.298,0.46-0.521,0.633
		c-0.335,0.249-0.715,0.374-1.136,0.374c-0.598,0-1.1-0.211-1.51-0.634c-0.41-0.435-0.614-1.15-0.614-2.143
		c0-0.943,0.267-1.658,0.801-2.143c0.459-0.422,1.08-0.634,1.862-0.634h1.081v-1.696c0-1.08-0.435-1.62-1.305-1.62
		c-0.335,0-0.62,0.119-0.856,0.354c-0.286,0.298-0.429,0.739-0.429,1.323h-1.043c0-0.846,0.229-1.497,0.689-1.957
		c0.422-0.423,0.969-0.634,1.639-0.634c0.758,0,1.323,0.199,1.696,0.598c0.434,0.459,0.651,1.117,0.651,1.975V86.085z
		 M304.33,83.589v-2.087h-1.043c-0.485,0-0.87,0.137-1.155,0.409c-0.335,0.335-0.503,0.846-0.503,1.528
		c0,1.241,0.44,1.862,1.322,1.862c0.41,0,0.742-0.161,0.997-0.484C304.202,84.495,304.33,84.085,304.33,83.589"/>
	<path clip-path="url(#SVGID_2_)" d="M312.284,86.084h-1.044v-4.079h-1.266l-1.398,4.079h-1.099l1.528-4.266
		c-0.832-0.385-1.249-1.223-1.249-2.515c0-1.801,0.776-2.701,2.328-2.701h2.199V86.084z M311.24,81.093v-3.577h-1.117
		c-0.473,0-0.81,0.142-1.016,0.428c-0.204,0.286-0.308,0.739-0.308,1.36c0,1.19,0.441,1.789,1.323,1.789H311.24z"/>
	<polygon clip-path="url(#SVGID_2_)" points="323.815,86.085 322.771,86.085 322.771,77.533 320.22,77.533 320.22,86.085 
		319.177,86.085 319.177,76.603 323.815,76.603 	"/>
	<path clip-path="url(#SVGID_2_)" d="M330.95,86.085h-1.007v-0.857c-0.124,0.249-0.298,0.46-0.521,0.633
		c-0.335,0.249-0.715,0.374-1.136,0.374c-0.597,0-1.1-0.211-1.509-0.634c-0.411-0.435-0.615-1.15-0.615-2.143
		c0-0.943,0.266-1.658,0.801-2.143c0.459-0.422,1.08-0.634,1.863-0.634h1.08v-1.696c0-1.08-0.436-1.62-1.304-1.62
		c-0.336,0-0.621,0.119-0.857,0.354c-0.285,0.298-0.429,0.739-0.429,1.323h-1.043c0-0.846,0.229-1.497,0.689-1.957
		c0.422-0.423,0.969-0.634,1.64-0.634c0.758,0,1.322,0.199,1.695,0.598c0.435,0.459,0.652,1.117,0.652,1.975V86.085z
		 M329.906,83.589v-2.087h-1.043c-0.484,0-0.869,0.137-1.155,0.409c-0.335,0.335-0.503,0.846-0.503,1.528
		c0,1.241,0.44,1.862,1.323,1.862c0.409,0,0.741-0.161,0.996-0.484C329.778,84.495,329.906,84.085,329.906,83.589"/>
	<path clip-path="url(#SVGID_2_)" d="M338.569,86.085h-1.043v-8.553h-2.086v4.882c0,1.366-0.203,2.319-0.606,2.858
		c-0.403,0.541-0.984,0.812-1.743,0.812h-0.314v-0.913h0.166c0.188,0,0.352-0.028,0.494-0.084c0.143-0.057,0.295-0.177,0.457-0.363
		c0.161-0.187,0.285-0.497,0.372-0.932s0.131-0.98,0.131-1.64v-5.551h4.173V86.085z"/>
	<path clip-path="url(#SVGID_2_)" d="M345.687,86.085h-1.007v-0.857c-0.125,0.249-0.298,0.46-0.521,0.633
		c-0.335,0.249-0.715,0.374-1.136,0.374c-0.597,0-1.1-0.211-1.509-0.634c-0.411-0.435-0.615-1.15-0.615-2.143
		c0-0.943,0.267-1.658,0.801-2.143c0.459-0.422,1.08-0.634,1.863-0.634h1.08v-1.696c0-1.08-0.435-1.62-1.304-1.62
		c-0.336,0-0.621,0.119-0.857,0.354c-0.285,0.298-0.429,0.739-0.429,1.323h-1.043c0-0.846,0.229-1.497,0.689-1.957
		c0.422-0.423,0.969-0.634,1.64-0.634c0.758,0,1.322,0.199,1.695,0.598c0.434,0.459,0.652,1.117,0.652,1.975V86.085z
		 M344.643,83.589v-2.087H343.6c-0.485,0-0.869,0.137-1.155,0.409c-0.335,0.335-0.503,0.846-0.503,1.528
		c0,1.241,0.44,1.862,1.322,1.862c0.41,0,0.742-0.161,0.997-0.484C344.515,84.495,344.643,84.085,344.643,83.589"/>
	<polygon clip-path="url(#SVGID_2_)" points="352.242,77.534 350.36,77.534 350.36,86.085 349.317,86.085 349.317,77.534 
		347.454,77.534 347.454,76.602 352.242,76.602 	"/>
	<path clip-path="url(#SVGID_2_)" d="M358.392,86.085h-1.006v-0.857c-0.125,0.249-0.299,0.46-0.522,0.633
		c-0.334,0.249-0.714,0.374-1.136,0.374c-0.597,0-1.099-0.211-1.509-0.634c-0.41-0.435-0.615-1.15-0.615-2.143
		c0-0.943,0.267-1.658,0.802-2.143c0.459-0.422,1.08-0.634,1.862-0.634h1.081v-1.696c0-1.08-0.435-1.62-1.305-1.62
		c-0.335,0-0.621,0.119-0.857,0.354c-0.285,0.298-0.428,0.739-0.428,1.323h-1.043c0-0.846,0.229-1.497,0.689-1.957
		c0.422-0.423,0.969-0.634,1.639-0.634c0.758,0,1.323,0.199,1.696,0.598c0.434,0.459,0.651,1.117,0.651,1.975V86.085z
		 M357.349,83.589v-2.087h-1.043c-0.485,0-0.87,0.137-1.155,0.409c-0.336,0.335-0.503,0.846-0.503,1.528
		c0,1.241,0.44,1.862,1.322,1.862c0.41,0,0.741-0.161,0.997-0.484C357.221,84.495,357.349,84.085,357.349,83.589"/>
</g>
<g>
	<defs>
		<rect id="SVGID_3_" width="199.026" height="98.844"/>
	</defs>
	<clipPath id="SVGID_4_">
		<use xlink:href="#SVGID_3_"  overflow="visible"/>
	</clipPath>
	<path clip-path="url(#SVGID_4_)" fill="#005596" d="M199.209-0.493H99.453c6.724,15.193,10.466,32.001,10.466,49.685
		c0,17.684-3.742,34.492-10.466,49.685h99.756V-0.493z"/>
	<path clip-path="url(#SVGID_4_)" fill="#C4D3E3" d="M99.453-0.493H-0.123v99.37h99.576c6.724-15.192,10.466-32.001,10.466-49.685
		C109.919,31.508,106.177,14.7,99.453-0.493"/>
</g>
<g>
	<defs>
		<rect id="SVGID_5_" x="78.826" y="58.816" width="11.536" height="25.052"/>
	</defs>
	<clipPath id="SVGID_6_">
		<use xlink:href="#SVGID_5_"  overflow="visible"/>
	</clipPath>
	
		<linearGradient id="SVGID_7_" gradientUnits="userSpaceOnUse" x1="0" y1="98.8452" x2="1" y2="98.8452" gradientTransform="matrix(19.3034 -4.9739 -4.9739 -19.3034 564.9667 1982.2762)">
		<stop  offset="0" style="stop-color:#CA171E"/>
		<stop  offset="0.2483" style="stop-color:#CA171E"/>
		<stop  offset="1" style="stop-color:#EF3824"/>
	</linearGradient>
	<polygon clip-path="url(#SVGID_6_)" fill="url(#SVGID_7_)" points="72.773,60.375 89.644,56.029 96.415,82.307 79.544,86.655 	"/>
</g>
<g>
	<defs>
		<polygon id="SVGID_8_" points="68.831,75.578 68.831,98.844 76.26,98.844 93.612,81.493 93.612,75.578 		"/>
	</defs>
	<clipPath id="SVGID_9_">
		<use xlink:href="#SVGID_8_"  overflow="visible"/>
	</clipPath>
	
		<linearGradient id="SVGID_10_" gradientUnits="userSpaceOnUse" x1="-4.882812e-04" y1="98.9224" x2="0.9995" y2="98.9224" gradientTransform="matrix(24.7805 0 0 -24.7805 68.8281 2538.5525)">
		<stop  offset="0" style="stop-color:#8F0507"/>
		<stop  offset="0.1539" style="stop-color:#8F0507"/>
		<stop  offset="0.912" style="stop-color:#CA171E"/>
		<stop  offset="1" style="stop-color:#CA171E"/>
	</linearGradient>
	<rect x="68.831" y="75.578" clip-path="url(#SVGID_9_)" fill="url(#SVGID_10_)" width="24.781" height="23.267"/>
</g>
<g>
	<defs>
		<polygon id="SVGID_11_" points="76.26,98.844 93.612,98.844 93.612,81.493 		"/>
	</defs>
	<clipPath id="SVGID_12_">
		<use xlink:href="#SVGID_11_"  overflow="visible"/>
	</clipPath>
	
		<linearGradient id="SVGID_13_" gradientUnits="userSpaceOnUse" x1="0" y1="99.064" x2="1" y2="99.064" gradientTransform="matrix(18.8193 -22.8045 -22.8045 -18.8193 2340.3127 1958.9908)">
		<stop  offset="0" style="stop-color:#8F0507"/>
		<stop  offset="0.1539" style="stop-color:#8F0507"/>
		<stop  offset="0.912" style="stop-color:#CA171E"/>
		<stop  offset="1" style="stop-color:#CA171E"/>
	</linearGradient>
	<polygon clip-path="url(#SVGID_12_)" fill="url(#SVGID_13_)" points="67.742,91.815 83.29,72.974 102.13,88.522 86.582,107.363 	
		"/>
</g>
<g>
	<defs>
		<rect id="SVGID_14_" x="53.299" y="17.695" width="7.091" height="23.004"/>
	</defs>
	<clipPath id="SVGID_15_">
		<use xlink:href="#SVGID_14_"  overflow="visible"/>
	</clipPath>
	
		<linearGradient id="SVGID_16_" gradientUnits="userSpaceOnUse" x1="0" y1="98.8442" x2="1" y2="98.8442" gradientTransform="matrix(2.8009 -6.1619 -6.1619 -2.8009 666.2075 305.3959)">
		<stop  offset="0" style="stop-color:#E14021"/>
		<stop  offset="0.2664" style="stop-color:#E14021"/>
		<stop  offset="0.912" style="stop-color:#F15A22"/>
		<stop  offset="1" style="stop-color:#F15A22"/>
	</linearGradient>
	<polygon clip-path="url(#SVGID_15_)" fill="url(#SVGID_16_)" points="44.633,36.76 54.513,15.024 69.056,21.634 59.176,43.371 	"/>
</g>
<g>
	<defs>
		<path id="SVGID_17_" d="M56.436,5.434c-0.16,0.418-0.428,1.069-0.857,2.003c-0.86,1.868-4.826,3.568-4.896,6.27
			c-0.035,1.304,0.684,2.417,1.362,3.176c0.593,0.664,1.157,1.057,1.157,1.057h0.146h1.622h0.888h1.593h2.656
			c0,0,0.033-0.024,0.083-0.062c0.432-0.323,2.493-1.981,2.436-4.171c-0.045-1.681-1.593-2.973-2.966-4.16
			c-0.113-0.097-0.226-0.195-0.335-0.291c-0.115-0.101-0.227-0.202-0.335-0.302c-0.03-0.027-0.062-0.055-0.09-0.082
			c-0.408-0.379-0.759-0.753-0.999-1.131c-0.065-0.101-0.125-0.202-0.171-0.304c-0.151-0.326-0.28-0.617-0.393-0.876
			c-0.21-0.483-0.361-0.855-0.466-1.127c-0.037-0.097-0.127-0.146-0.217-0.146C56.564,5.288,56.474,5.337,56.436,5.434"/>
	</defs>
	<clipPath id="SVGID_18_">
		<use xlink:href="#SVGID_17_"  overflow="visible"/>
	</clipPath>
	
		<linearGradient id="SVGID_19_" gradientUnits="userSpaceOnUse" x1="0" y1="98.897" x2="1" y2="98.897" gradientTransform="matrix(7.8424 -16.3383 -16.3383 -7.8424 1666.5597 799.5516)">
		<stop  offset="0" style="stop-color:#F15A22"/>
		<stop  offset="0.1114" style="stop-color:#F15A22"/>
		<stop  offset="0.6044" style="stop-color:#F7911E"/>
		<stop  offset="1" style="stop-color:#FDB515"/>
	</linearGradient>
	<polygon clip-path="url(#SVGID_18_)" fill="url(#SVGID_19_)" points="45.712,15.571 52.902,0.593 67.619,7.657 60.429,22.635 	"/>
</g>
<g>
	<defs>
		<polygon id="SVGID_20_" points="53.325,25.306 39.949,68.07 51.36,68.07 68.445,50.986 60.413,25.306 		"/>
	</defs>
	<clipPath id="SVGID_21_">
		<use xlink:href="#SVGID_20_"  overflow="visible"/>
	</clipPath>
	
		<linearGradient id="SVGID_22_" gradientUnits="userSpaceOnUse" x1="0" y1="98.6714" x2="1" y2="98.6714" gradientTransform="matrix(-9.9966 -17.7133 -17.7133 9.9966 1817.9669 -911.4119)">
		<stop  offset="0" style="stop-color:#D1181F"/>
		<stop  offset="0.2664" style="stop-color:#D1181F"/>
		<stop  offset="0.912" style="stop-color:#EF412E"/>
		<stop  offset="1" style="stop-color:#EF412E"/>
	</linearGradient>
	<polygon clip-path="url(#SVGID_21_)" fill="url(#SVGID_22_)" points="46.833,80.267 21.645,35.636 61.562,13.109 86.749,57.74 	"/>
</g>
<g>
	<defs>
		<path id="SVGID_23_" d="M51.36,68.07h10.128c2.289-2.5,5.736-4.546,6.76-6.716c0.78-1.653,1.265-2.806,1.557-3.546
			c0.13-0.332,0.607-0.335,0.765-0.03l-2.125-6.792L51.36,68.07z"/>
	</defs>
	<clipPath id="SVGID_24_">
		<use xlink:href="#SVGID_23_"  overflow="visible"/>
	</clipPath>
	
		<linearGradient id="SVGID_25_" gradientUnits="userSpaceOnUse" x1="4.882812e-04" y1="98.8442" x2="1.001" y2="98.8442" gradientTransform="matrix(19.2092 0 0 -19.2092 51.3594 1958.2533)">
		<stop  offset="0" style="stop-color:#D1181F"/>
		<stop  offset="0.2664" style="stop-color:#D1181F"/>
		<stop  offset="0.912" style="stop-color:#EF412E"/>
		<stop  offset="1" style="stop-color:#EF412E"/>
	</linearGradient>
	<rect x="51.36" y="50.986" clip-path="url(#SVGID_24_)" fill="url(#SVGID_25_)" width="19.21" height="17.084"/>
</g>
<g>
	<defs>
		<rect id="SVGID_26_" x="38.975" y="67.739" width="34.793" height="31.105"/>
	</defs>
	<clipPath id="SVGID_27_">
		<use xlink:href="#SVGID_26_"  overflow="visible"/>
	</clipPath>
	
		<linearGradient id="SVGID_28_" gradientUnits="userSpaceOnUse" x1="0" y1="98.8931" x2="1" y2="98.8931" gradientTransform="matrix(12.1012 -16.1349 -16.1349 -12.1012 1643.153 1291.834)">
		<stop  offset="0" style="stop-color:#8F0507"/>
		<stop  offset="0.1539" style="stop-color:#8F0507"/>
		<stop  offset="0.912" style="stop-color:#CA171E"/>
		<stop  offset="1" style="stop-color:#CA171E"/>
	</linearGradient>
	<polygon clip-path="url(#SVGID_27_)" fill="url(#SVGID_28_)" points="24.044,87.646 51.5,51.039 88.698,78.937 61.243,115.544 	"/>
</g>
<g>
	<defs>
		<rect id="SVGID_29_" x="35.79" y="55.079" width="14.265" height="25.051"/>
	</defs>
	<clipPath id="SVGID_30_">
		<use xlink:href="#SVGID_29_"  overflow="visible"/>
	</clipPath>
	
		<linearGradient id="SVGID_31_" gradientUnits="userSpaceOnUse" x1="0" y1="98.8442" x2="1" y2="98.8442" gradientTransform="matrix(-22.7993 -15.6087 -15.6087 22.7993 1595.8972 -2179.0435)">
		<stop  offset="0" style="stop-color:#AB1E57"/>
		<stop  offset="0.057" style="stop-color:#AB1E57"/>
		<stop  offset="1" style="stop-color:#C91B50"/>
	</linearGradient>
	<polygon clip-path="url(#SVGID_30_)" fill="url(#SVGID_31_)" points="45.502,86.779 24.113,72.135 40.342,48.429 61.732,63.073 	
		"/>
</g>
<g>
	<defs>
		<rect id="SVGID_32_" x="63.945" y="71.614" width="12.51" height="25.052"/>
	</defs>
	<clipPath id="SVGID_33_">
		<use xlink:href="#SVGID_32_"  overflow="visible"/>
	</clipPath>
	
		<linearGradient id="SVGID_34_" gradientUnits="userSpaceOnUse" x1="0" y1="98.8442" x2="1" y2="98.8442" gradientTransform="matrix(12.5102 0 0 -12.5102 63.9453 1320.7019)">
		<stop  offset="0" style="stop-color:#EB3A23"/>
		<stop  offset="0.1114" style="stop-color:#EB3A23"/>
		<stop  offset="1" style="stop-color:#F15A22"/>
	</linearGradient>
	<rect x="63.945" y="71.614" clip-path="url(#SVGID_33_)" fill="url(#SVGID_34_)" width="12.51" height="25.052"/>
</g>
<g>
	<defs>
		<polygon id="SVGID_35_" points="60.284,87.425 60.284,98.844 70.367,98.844 80.115,89.095 80.115,87.425 		"/>
	</defs>
	<clipPath id="SVGID_36_">
		<use xlink:href="#SVGID_35_"  overflow="visible"/>
	</clipPath>
	
		<linearGradient id="SVGID_37_" gradientUnits="userSpaceOnUse" x1="9.765625e-04" y1="99.0981" x2="1.001" y2="99.0981" gradientTransform="matrix(19.8315 0 0 -19.8315 60.2812 2058.4062)">
		<stop  offset="0" style="stop-color:#D71920"/>
		<stop  offset="0.1114" style="stop-color:#D71920"/>
		<stop  offset="1" style="stop-color:#EB3A23"/>
	</linearGradient>
	<rect x="60.284" y="87.425" clip-path="url(#SVGID_36_)" fill="url(#SVGID_37_)" width="19.831" height="11.419"/>
</g>
<g>
	<defs>
		<polygon id="SVGID_38_" points="70.367,98.844 80.115,98.844 80.115,89.095 		"/>
	</defs>
	<clipPath id="SVGID_39_">
		<use xlink:href="#SVGID_38_"  overflow="visible"/>
	</clipPath>
	
		<linearGradient id="SVGID_40_" gradientUnits="userSpaceOnUse" x1="0" y1="99.1704" x2="1" y2="99.1704" gradientTransform="matrix(24.133 -18.8193 -18.8193 -24.133 1940.3225 2488.249)">
		<stop  offset="0" style="stop-color:#D71920"/>
		<stop  offset="0.1114" style="stop-color:#D71920"/>
		<stop  offset="1" style="stop-color:#EB3A23"/>
	</linearGradient>
	<polygon clip-path="url(#SVGID_39_)" fill="url(#SVGID_40_)" points="65.64,92.782 76.429,84.369 84.843,95.158 74.053,103.572 	
		"/>
</g>
<g>
	<defs>
		<path id="SVGID_41_" d="M84.24,39.285c-0.262,0.784-0.697,2.003-1.396,3.755c-1.398,3.502-7.851,6.692-7.965,11.757
			c-0.056,2.446,1.113,4.534,2.217,5.955c0.966,1.246,1.882,1.982,1.882,1.982h0.236h0.499L92.36,50.09
			c-0.861-1.1-1.896-2.115-2.878-3.092c-0.183-0.184-0.365-0.366-0.543-0.546c-0.187-0.19-0.368-0.379-0.546-0.567
			c-0.049-0.051-0.099-0.102-0.147-0.154c-0.663-0.711-1.234-1.412-1.625-2.12c-0.105-0.189-0.201-0.38-0.279-0.571
			c-0.244-0.613-0.454-1.156-0.638-1.642c-0.342-0.905-0.586-1.603-0.757-2.113c-0.061-0.183-0.207-0.274-0.353-0.274
			C84.447,39.011,84.301,39.102,84.24,39.285"/>
	</defs>
	<clipPath id="SVGID_42_">
		<use xlink:href="#SVGID_41_"  overflow="visible"/>
	</clipPath>
	
		<linearGradient id="SVGID_43_" gradientUnits="userSpaceOnUse" x1="0" y1="98.7729" x2="1" y2="98.7729" gradientTransform="matrix(9.2045 -5.5544 -5.5544 -9.2045 628.6823 962.1634)">
		<stop  offset="0" style="stop-color:#EF3824"/>
		<stop  offset="1" style="stop-color:#F58220"/>
	</linearGradient>
	<polygon clip-path="url(#SVGID_42_)" fill="url(#SVGID_43_)" points="64.329,45.344 87.679,31.253 102.854,56.402 79.504,70.493 	
		"/>
</g>
<g>
	<defs>
		<path id="SVGID_44_" d="M79.713,62.735h2.141h1.444h2.592h4.32c0,0,0.055-0.044,0.136-0.114c0.703-0.607,4.055-3.717,3.962-7.823
			c-0.04-1.768-0.85-3.305-1.948-4.707L79.713,62.735z"/>
	</defs>
	<clipPath id="SVGID_45_">
		<use xlink:href="#SVGID_44_"  overflow="visible"/>
	</clipPath>
	
		<linearGradient id="SVGID_46_" gradientUnits="userSpaceOnUse" x1="0" y1="98.9517" x2="1" y2="98.9517" gradientTransform="matrix(19.9263 -19.4835 -19.4835 -19.9263 2013.6672 2029.4131)">
		<stop  offset="0" style="stop-color:#EF3824"/>
		<stop  offset="1" style="stop-color:#F58220"/>
	</linearGradient>
	<polygon clip-path="url(#SVGID_45_)" fill="url(#SVGID_46_)" points="73.392,56.271 87.222,42.748 100.722,56.555 86.892,70.078 	
		"/>
</g>
<g>
	<defs>
		<path id="SVGID_47_" d="M42.475,36.037c-0.332,0.841-0.883,2.148-1.77,4.025c-1.77,3.754-9.946,7.172-10.092,12.603
			c-0.069,2.621,1.412,4.858,2.809,6.384c0.728,0.793,1.426,1.388,1.879,1.745l15.261-15.261c-0.481-0.417-0.968-0.826-1.444-1.228
			c-0.233-0.196-0.464-0.391-0.69-0.585c-0.237-0.203-0.466-0.406-0.692-0.607c-0.061-0.055-0.125-0.11-0.185-0.165
			c-0.84-0.762-1.565-1.513-2.059-2.273c-0.133-0.203-0.256-0.407-0.353-0.612c-0.31-0.657-0.576-1.239-0.809-1.76
			c-0.433-0.97-0.744-1.718-0.959-2.265c-0.077-0.196-0.263-0.293-0.448-0.293C42.737,35.744,42.552,35.841,42.475,36.037"/>
	</defs>
	<clipPath id="SVGID_48_">
		<use xlink:href="#SVGID_47_"  overflow="visible"/>
	</clipPath>
	
		<linearGradient id="SVGID_49_" gradientUnits="userSpaceOnUse" x1="0" y1="98.8081" x2="1" y2="98.8081" gradientTransform="matrix(-17.3625 -12.4519 -12.4519 17.3625 1286.0352 -1656.417)">
		<stop  offset="0" style="stop-color:#C11755"/>
		<stop  offset="0.057" style="stop-color:#C11755"/>
		<stop  offset="1" style="stop-color:#E52B63"/>
	</linearGradient>
	<polygon clip-path="url(#SVGID_48_)" fill="url(#SVGID_49_)" points="43.763,70.274 18.681,52.286 37.343,26.264 62.425,44.252 	
		"/>
</g>
<g>
	<defs>
		<path id="SVGID_50_" d="M35.301,60.793c0.309,0.244,0.506,0.38,0.506,0.38h0.3h3.345h1.828h3.284h5.474
			c0,0,0.069-0.048,0.173-0.125c0.892-0.649,5.139-3.982,5.02-8.384c-0.075-2.808-2.296-5.076-4.669-7.132L35.301,60.793z"/>
	</defs>
	<clipPath id="SVGID_51_">
		<use xlink:href="#SVGID_50_"  overflow="visible"/>
	</clipPath>
	
		<linearGradient id="SVGID_52_" gradientUnits="userSpaceOnUse" x1="4.882812e-04" y1="98.8442" x2="1.0005" y2="98.8442" gradientTransform="matrix(19.9331 0 0 -19.9331 35.2969 2023.6293)">
		<stop  offset="0" style="stop-color:#C11755"/>
		<stop  offset="0.057" style="stop-color:#C11755"/>
		<stop  offset="1" style="stop-color:#E52B63"/>
	</linearGradient>
	<rect x="35.301" y="45.532" clip-path="url(#SVGID_51_)" fill="url(#SVGID_52_)" width="20.049" height="15.641"/>
</g>
<g>
	<defs>
		<path id="SVGID_53_" d="M62.883,79.102c0.608,0.54,1.05,0.843,1.05,0.843h0.265h2.945h1.611h2.892h4.821
			c0,0,0.061-0.042,0.152-0.107c0.785-0.573,4.525-3.508,4.421-7.386c-0.072-2.708-2.411-4.848-4.711-6.794L62.883,79.102z"/>
	</defs>
	<clipPath id="SVGID_54_">
		<use xlink:href="#SVGID_53_"  overflow="visible"/>
	</clipPath>
	
		<linearGradient id="SVGID_55_" gradientUnits="userSpaceOnUse" x1="0" y1="98.9106" x2="1" y2="98.9106" gradientTransform="matrix(14.0043 -24.7409 -24.7409 -14.0043 2511.0037 1472.3684)">
		<stop  offset="0" style="stop-color:#F15A22"/>
		<stop  offset="0.1114" style="stop-color:#F15A22"/>
		<stop  offset="0.6044" style="stop-color:#F7911E"/>
		<stop  offset="1" style="stop-color:#FDB515"/>
	</linearGradient>
	<polygon clip-path="url(#SVGID_54_)" fill="url(#SVGID_55_)" points="56.758,76.478 67.314,57.829 87.269,69.125 76.713,87.774 	
		"/>
</g>
<g>
	<defs>
		<path id="SVGID_56_" d="M69.805,57.808c-0.292,0.74-0.777,1.893-1.557,3.546c-1.024,2.17-4.471,4.216-6.76,6.716
			c-1.198,1.31-2.084,2.74-2.129,4.382c-0.061,2.31,1.243,4.279,2.474,5.623c0.371,0.404,0.731,0.746,1.05,1.027l13.446-13.444
			c-0.226-0.191-0.451-0.381-0.673-0.568c-0.204-0.173-0.409-0.345-0.607-0.515c-0.209-0.18-0.411-0.358-0.61-0.535
			c-0.054-0.049-0.11-0.098-0.163-0.146c-0.74-0.67-1.378-1.332-1.813-2c-0.117-0.18-0.225-0.357-0.311-0.539
			c-0.273-0.579-0.507-1.091-0.713-1.551c-0.381-0.854-0.655-1.513-0.845-1.995c-0.004-0.013-0.018-0.017-0.024-0.03
			c-0.077-0.148-0.229-0.224-0.381-0.224C70.03,57.554,69.872,57.638,69.805,57.808"/>
	</defs>
	<clipPath id="SVGID_57_">
		<use xlink:href="#SVGID_56_"  overflow="visible"/>
	</clipPath>
	
		<linearGradient id="SVGID_58_" gradientUnits="userSpaceOnUse" x1="0" y1="98.8433" x2="1" y2="98.8433" gradientTransform="matrix(13.727 -18.5979 -18.5979 -13.727 1892.7505 1443.2268)">
		<stop  offset="0" style="stop-color:#F15A22"/>
		<stop  offset="0.1114" style="stop-color:#F15A22"/>
		<stop  offset="0.6044" style="stop-color:#F7911E"/>
		<stop  offset="1" style="stop-color:#FDB515"/>
	</linearGradient>
	<polygon clip-path="url(#SVGID_57_)" fill="url(#SVGID_58_)" points="49.002,71.503 65.304,49.417 86.625,65.154 70.323,87.24 	"/>
</g>
<g>
	<defs>
		<polygon id="SVGID_59_" points="31.809,75.561 31.809,98.844 36.319,98.844 54.512,80.651 54.512,75.561 		"/>
	</defs>
	<clipPath id="SVGID_60_">
		<use xlink:href="#SVGID_59_"  overflow="visible"/>
	</clipPath>
	
		<linearGradient id="SVGID_61_" gradientUnits="userSpaceOnUse" x1="0" y1="98.5981" x2="1" y2="98.5981" gradientTransform="matrix(14.834 -18.1551 -18.1551 -14.834 1824.4816 1560.5083)">
		<stop  offset="0" style="stop-color:#712C53"/>
		<stop  offset="0.4716" style="stop-color:#842F53"/>
		<stop  offset="0.9948" style="stop-color:#A12057"/>
		<stop  offset="1" style="stop-color:#A12057"/>
	</linearGradient>
	<polygon clip-path="url(#SVGID_60_)" fill="url(#SVGID_61_)" points="20.401,89.523 40.898,64.438 65.92,84.882 45.423,109.968 	
		"/>
</g>
<g>
	<defs>
		<polygon id="SVGID_62_" points="36.319,98.844 54.512,98.844 54.512,80.651 		"/>
	</defs>
	<clipPath id="SVGID_63_">
		<use xlink:href="#SVGID_62_"  overflow="visible"/>
	</clipPath>
	
		<linearGradient id="SVGID_64_" gradientUnits="userSpaceOnUse" x1="0" y1="99.1313" x2="1" y2="99.1313" gradientTransform="matrix(19.2621 -15.7196 -15.7196 -19.2621 1599.8739 2002.3536)">
		<stop  offset="0" style="stop-color:#712C53"/>
		<stop  offset="0.4716" style="stop-color:#842F53"/>
		<stop  offset="0.9948" style="stop-color:#A12057"/>
		<stop  offset="1" style="stop-color:#A12057"/>
	</linearGradient>
	<polygon clip-path="url(#SVGID_63_)" fill="url(#SVGID_64_)" points="27.407,87.924 47.239,71.74 63.424,91.572 43.592,107.756 	
		"/>
</g>
<g>
	<defs>
		<rect id="SVGID_65_" x="17.787" y="71.543" width="14.266" height="25.051"/>
	</defs>
	<clipPath id="SVGID_66_">
		<use xlink:href="#SVGID_65_"  overflow="visible"/>
	</clipPath>
	
		<linearGradient id="SVGID_67_" gradientUnits="userSpaceOnUse" x1="0" y1="98.8442" x2="1" y2="98.8442" gradientTransform="matrix(6.1993 -7.3063 -7.3063 -6.1993 752.7433 690.1868)">
		<stop  offset="0" style="stop-color:#007D9F"/>
		<stop  offset="1" style="stop-color:#009EBD"/>
	</linearGradient>
	<polygon clip-path="url(#SVGID_66_)" fill="url(#SVGID_67_)" points="5.429,86.108 23.758,64.505 44.411,82.029 26.082,103.632 	
		"/>
</g>
<g>
	<defs>
		<rect id="SVGID_68_" x="15.005" y="86.105" width="19.831" height="12.739"/>
	</defs>
	<clipPath id="SVGID_69_">
		<use xlink:href="#SVGID_68_"  overflow="visible"/>
	</clipPath>
	
		<linearGradient id="SVGID_70_" gradientUnits="userSpaceOnUse" x1="0" y1="99.0981" x2="1" y2="99.0981" gradientTransform="matrix(10.8488 -15.2768 -15.2768 -10.8488 1531.1831 1178.3384)">
		<stop  offset="0" style="stop-color:#00759E"/>
		<stop  offset="0.057" style="stop-color:#00759E"/>
		<stop  offset="1" style="stop-color:#1A8AAF"/>
	</linearGradient>
	<polygon clip-path="url(#SVGID_69_)" fill="url(#SVGID_70_)" points="8.991,94.574 21.653,76.744 40.85,90.375 28.188,108.206 	"/>
</g>
<g>
	<defs>
		<path id="SVGID_71_" d="M14.832,76.172c0.106,0.123,0.213,0.252,0.32,0.368c1.252,1.365,2.441,2.175,2.441,2.175H17.9h3.422h1.872
			h3.361h5.603c0,0,0.07-0.049,0.177-0.127c0.912-0.665,5.259-4.076,5.138-8.582c-0.093-3.457-3.36-6.114-6.257-8.557
			c-0.239-0.2-0.475-0.4-0.706-0.599c-0.065-0.056-0.126-0.11-0.19-0.166L14.832,76.172z"/>
	</defs>
	<clipPath id="SVGID_72_">
		<use xlink:href="#SVGID_71_"  overflow="visible"/>
	</clipPath>
	
		<linearGradient id="SVGID_73_" gradientUnits="userSpaceOnUse" x1="0" y1="99.1763" x2="1" y2="99.1763" gradientTransform="matrix(7.5277 -6.4207 -6.4207 -7.5277 662.2451 816.9155)">
		<stop  offset="0" style="stop-color:#0090AE"/>
		<stop  offset="1" style="stop-color:#3FADCD"/>
	</linearGradient>
	<polygon clip-path="url(#SVGID_72_)" fill="url(#SVGID_73_)" points="5.93,68.278 28.008,49.447 46.496,71.123 24.418,89.954 	"/>
</g>
<g>
	<defs>
		<path id="SVGID_74_" d="M24.416,52.988c-0.339,0.861-0.903,2.199-1.81,4.12c-1.812,3.843-10.181,7.342-10.329,12.898
			c-0.067,2.482,1.228,4.623,2.555,6.166L30.32,60.685c-0.175-0.152-0.35-0.305-0.518-0.456c-0.063-0.056-0.128-0.112-0.19-0.169
			c-0.86-0.78-1.6-1.549-2.107-2.325c-0.136-0.209-0.262-0.417-0.361-0.627c-0.318-0.672-0.59-1.269-0.829-1.802
			c-0.443-0.992-0.761-1.758-0.982-2.318c-0.079-0.199-0.268-0.3-0.458-0.3S24.495,52.789,24.416,52.988"/>
	</defs>
	<clipPath id="SVGID_75_">
		<use xlink:href="#SVGID_74_"  overflow="visible"/>
	</clipPath>
	
		<linearGradient id="SVGID_76_" gradientUnits="userSpaceOnUse" x1="0" y1="98.8442" x2="1" y2="98.8442" gradientTransform="matrix(18.0454 0 0 -18.0454 12.2812 1848.1082)">
		<stop  offset="0" style="stop-color:#009EBD"/>
		<stop  offset="1" style="stop-color:#3FADCD"/>
	</linearGradient>
	<rect x="12.21" y="52.688" clip-path="url(#SVGID_75_)" fill="url(#SVGID_76_)" width="18.11" height="23.484"/>
</g>
<g>
	<defs>
		<rect id="SVGID_77_" width="199.026" height="98.844"/>
	</defs>
	<clipPath id="SVGID_78_">
		<use xlink:href="#SVGID_77_"  overflow="visible"/>
	</clipPath>
	<path clip-path="url(#SVGID_78_)" fill="#FFFFFF" d="M199.026,75.985h-25.663l-3.228-3.773c-0.171-0.201-0.441-0.289-0.696-0.222
		c-0.255,0.062-0.452,0.266-0.509,0.523l-3.071,13.98l-2.641-52.243c-0.018-0.362-0.312-0.648-0.674-0.658
		c-0.36-0.012-0.671,0.261-0.708,0.621l-4.686,44.76l-2.773-3.678c-0.131-0.174-0.336-0.277-0.554-0.277H-0.133v1.39h153.61
		l3.625,4.809c0.172,0.229,0.465,0.326,0.74,0.251c0.275-0.076,0.475-0.312,0.504-0.596l3.938-37.615l2.45,48.473
		c0.018,0.347,0.289,0.628,0.636,0.655c0.019,0.002,0.039,0.003,0.057,0.003c0.324,0,0.608-0.224,0.678-0.546l3.882-17.669
		l2.528,2.958c0.132,0.154,0.325,0.243,0.528,0.243h25.983V75.985z"/>
</g>
</svg>
