<svg width="71" height="50" viewBox="0 0 71 50" fill="none" xmlns="http://www.w3.org/2000/svg">
<path d="M47.2686 46.4633V30.8926H50.8498V43.5271H57.7899V30.8926H61.3712V46.4633H47.2686ZM60.2812 49.7554V45.618L61.0598 46.4633H57.7899V43.5271H63.5956V49.7554H60.2812Z" fill="#11629B"/>
<path d="M47.2686 46.4633V30.8926H50.8498V43.5271H57.7899V30.8926H61.3712V46.4633H47.2686ZM60.2812 49.7554V45.618L61.0598 46.4633H57.7899V43.5271H63.5956V49.7554H60.2812Z" fill="url(#paint0_linear_2412_1159)"/>
<path d="M35.5746 46.4633V33.0057L36.3977 33.8288H30.6143V30.8926H44.1163V33.8288H38.3329L39.1337 33.0057V46.4633H35.5746Z" fill="#11629B"/>
<path d="M35.5746 46.4633V33.0057L36.3977 33.8288H30.6143V30.8926H44.1163V33.8288H38.3329L39.1337 33.0057V46.4633H35.5746Z" fill="url(#paint1_linear_2412_1159)"/>
<path d="M13.0574 46.4633V30.8926H16.6386V41.0358L24.0681 30.8926H27.4492V46.4633H23.8902V36.3423L16.4607 46.4633H13.0574Z" fill="#11629B"/>
<path d="M13.0574 46.4633V30.8926H16.6386V41.0358L24.0681 30.8926H27.4492V46.4633H23.8902V36.3423L16.4607 46.4633H13.0574Z" fill="url(#paint2_linear_2412_1159)"/>
<path d="M1.31707 3.21951L0 0H43.4634V29.122H9.95122L8.92683 25.9024H39.9512V3.21951H1.31707Z" fill="url(#paint3_linear_2412_1159)"/>
<path d="M20.7805 6.73171H2.34146L3.31949 9.80488H20.7805V6.73171Z" fill="url(#paint4_linear_2412_1159)"/>
<path d="M5.56098 16.3902L4.68293 13.3171L4.63239 13.1707H20.7805V16.2439L5.56098 16.3902Z" fill="url(#paint5_linear_2412_1159)"/>
<path d="M6.73171 19.6098L7.7561 22.8293H20.7805V19.6098H6.73171Z" fill="url(#paint6_linear_2412_1159)"/>
<path d="M47.1219 29.122V25.9024H66.7317V15.2195L58.6829 3.36585H50.4878V12.2927H61.4634V15.6585H46.9756V0H60.439L70.2439 14.3415V29.122H47.1219Z" fill="url(#paint7_linear_2412_1159)"/>
<defs>
<linearGradient id="paint0_linear_2412_1159" x1="19.307" y1="39.7799" x2="61.4893" y2="39.1037" gradientUnits="userSpaceOnUse">
<stop stop-color="#11629B"/>
<stop offset="1" stop-color="#04BFD7"/>
</linearGradient>
<linearGradient id="paint1_linear_2412_1159" x1="19.3071" y1="39.7799" x2="61.4894" y2="39.1037" gradientUnits="userSpaceOnUse">
<stop stop-color="#11629B"/>
<stop offset="1" stop-color="#04BFD7"/>
</linearGradient>
<linearGradient id="paint2_linear_2412_1159" x1="19.3071" y1="39.7799" x2="61.4894" y2="39.1037" gradientUnits="userSpaceOnUse">
<stop stop-color="#11629B"/>
<stop offset="1" stop-color="#04BFD7"/>
</linearGradient>
<linearGradient id="paint3_linear_2412_1159" x1="13.6098" y1="19.1707" x2="68.1951" y2="19.3171" gradientUnits="userSpaceOnUse">
<stop stop-color="#11629B"/>
<stop offset="1" stop-color="#05BBD4"/>
</linearGradient>
<linearGradient id="paint4_linear_2412_1159" x1="13.6098" y1="19.1707" x2="68.1951" y2="19.3171" gradientUnits="userSpaceOnUse">
<stop stop-color="#11629B"/>
<stop offset="1" stop-color="#05BBD4"/>
</linearGradient>
<linearGradient id="paint5_linear_2412_1159" x1="13.6098" y1="19.1707" x2="68.1951" y2="19.3171" gradientUnits="userSpaceOnUse">
<stop stop-color="#11629B"/>
<stop offset="1" stop-color="#05BBD4"/>
</linearGradient>
<linearGradient id="paint6_linear_2412_1159" x1="13.6098" y1="19.1707" x2="68.1951" y2="19.3171" gradientUnits="userSpaceOnUse">
<stop stop-color="#11629B"/>
<stop offset="1" stop-color="#05BBD4"/>
</linearGradient>
<linearGradient id="paint7_linear_2412_1159" x1="13.6098" y1="19.1707" x2="68.1951" y2="19.3171" gradientUnits="userSpaceOnUse">
<stop stop-color="#11629B"/>
<stop offset="1" stop-color="#05BBD4"/>
</linearGradient>
</defs>
</svg>
