<svg width="25" height="24" viewBox="0 0 25 24" fill="none" xmlns="http://www.w3.org/2000/svg">
<path d="M20.97 18.33C20.97 18.69 20.89 19.06 20.72 19.42C20.55 19.78 20.33 20.12 20.04 20.44C19.55 20.98 19.01 21.37 18.4 21.62C17.8 21.87 17.15 22 16.45 22C15.43 22 14.34 21.76 13.19 21.27C12.04 20.78 10.89 20.12 9.75 19.29C8.6 18.45 7.51 17.52 6.47 16.49C5.44 15.45 4.51 14.36 3.68 13.22C2.86 12.08 2.2 10.94 1.72 9.81C1.24 8.67 1 7.58 1 6.54C1 5.86 1.12 5.21 1.36 4.61C1.6 4 1.98 3.44 2.51 2.94C3.15 2.31 3.85 2 4.59 2C4.87 2 5.15 2.06 5.4 2.18C5.66 2.3 5.89 2.48 6.07 2.74L8.39 6.01C8.57 6.26 8.7 6.49 8.79 6.71C8.88 6.92 8.93 7.13 8.93 7.32C8.93 7.56 8.86 7.8 8.72 8.03C8.59 8.26 8.4 8.5 8.16 8.74L7.4 9.53C7.29 9.64 7.24 9.77 7.24 9.93C7.24 10.01 7.25 10.08 7.27 10.16C7.3 10.24 7.33 10.3 7.35 10.36C7.53 10.69 7.84 11.12 8.28 11.64C8.73 12.16 9.21 12.69 9.73 13.22C10.27 13.75 10.79 14.24 11.32 14.69C11.84 15.13 12.27 15.43 12.61 15.61C12.66 15.63 12.72 15.66 12.79 15.69C12.87 15.72 12.95 15.73 13.04 15.73C13.21 15.73 13.34 15.67 13.45 15.56L14.21 14.81C14.46 14.56 14.7 14.37 14.93 14.25C15.16 14.11 15.39 14.04 15.64 14.04C15.83 14.04 16.03 14.08 16.25 14.17C16.47 14.26 16.7 14.39 16.95 14.56L20.26 16.91C20.52 17.09 20.7 17.3 20.81 17.55C20.91 17.8 20.97 18.05 20.97 18.33Z" stroke="#ffffff" stroke-width="2" stroke-miterlimit="10"/>
<path d="M17.5 9C17.5 8.4 17.03 7.48 16.33 6.73C15.69 6.04 14.84 5.5 14 5.5" stroke="#ffffff" stroke-width="2" stroke-linecap="round" stroke-linejoin="round"/>
<path d="M21 9C21 5.13 17.87 2 14 2" stroke="#ffffff" stroke-width="2" stroke-linecap="round" stroke-linejoin="round"/>
</svg>
