<svg width="41" height="41" viewBox="0 0 41 41" fill="none" xmlns="http://www.w3.org/2000/svg">
<path d="M40.3274 37.0347L32.5977 29.3276C35.0916 26.1504 36.4449 22.2268 36.4398 18.1877C36.4398 14.5905 35.3731 11.0741 33.3747 8.08316C31.3762 5.09221 28.5356 2.76105 25.2123 1.38446C21.8889 0.00788038 18.232 -0.352296 14.7039 0.349479C11.1758 1.05126 7.9351 2.78346 5.39151 5.32706C2.84792 7.87065 1.11571 11.1114 0.413933 14.6395C-0.287843 18.1675 0.0723335 21.8245 1.44892 25.1478C2.8255 28.4712 5.15666 31.3117 8.14761 33.3102C11.1386 35.3087 14.655 36.3754 18.2521 36.3754C22.2913 36.3804 26.2148 35.0272 29.3921 32.5332L37.0991 40.263C37.3105 40.4761 37.5619 40.6452 37.839 40.7606C38.116 40.8761 38.4132 40.9355 38.7133 40.9355C39.0134 40.9355 39.3106 40.8761 39.5876 40.7606C39.8647 40.6452 40.1161 40.4761 40.3274 40.263C40.5405 40.0516 40.7097 39.8002 40.8251 39.5232C40.9405 39.2461 40.9999 38.949 40.9999 38.6488C40.9999 38.3487 40.9405 38.0516 40.8251 37.7745C40.7097 37.4975 40.5405 37.246 40.3274 37.0347ZM4.61138 18.1877C4.61138 15.4898 5.4114 12.8525 6.91027 10.6093C8.40913 8.36608 10.5395 6.61771 13.0321 5.58527C15.5246 4.55283 18.2673 4.2827 20.9133 4.80903C23.5594 5.33536 25.9899 6.63452 27.8976 8.54222C29.8053 10.4499 31.1045 12.8805 31.6308 15.5265C32.1571 18.1726 31.887 20.9153 30.8546 23.4078C29.8221 25.9003 28.0738 28.0307 25.8305 29.5296C23.5873 31.0284 20.95 31.8285 18.2521 31.8285C14.6344 31.8285 11.1648 30.3913 8.60667 27.8332C6.04853 25.275 4.61138 21.8054 4.61138 18.1877Z" fill="#11629B"/>
</svg>
